<svg xmlns="http://www.w3.org/2000/svg" xmlns:xlink="http://www.w3.org/1999/xlink" width="1080" zoomAndPan="magnify" viewBox="0 0 810 809.999993" height="1080" preserveAspectRatio="xMidYMid meet" version="1.0"><defs><clipPath id="998ed78c72"><path d="M 36 21 L 809.15625 21 L 809.15625 793.949219 L 36 793.949219 Z M 36 21 " clip-rule="nonzero"/></clipPath><clipPath id="c188cce34c"><path d="M 0 16.199219 L 774 16.199219 L 774 790 L 0 790 Z M 0 16.199219 " clip-rule="nonzero"/></clipPath></defs><rect x="-81" width="972" fill="#ffffff" y="-80.999999" height="971.999992" fill-opacity="1"/><rect x="-81" width="972" fill="#ffffff" y="-80.999999" height="971.999992" fill-opacity="1"/><g clip-path="url(#998ed78c72)"><path fill="#ffbd00" d="M 422.683594 21 C 415.546875 21 408.472656 21.125 401.335938 21.632812 C 346.144531 24.726562 294.234375 39.253906 247.503906 63.066406 C 221.867188 75.886719 198.058594 91.679688 176.082031 109.933594 C 149.8125 131.722656 126.320312 156.925781 106.683594 184.90625 C 89.820312 208.527344 75.738281 234.234375 64.8125 261.457031 C 46.246094 306.554688 36.207031 355.882812 36.207031 407.550781 C 36.207031 621.039062 208.984375 794.101562 422.683594 794.101562 C 474.273438 794.101562 523.65625 783.933594 568.621094 765.488281 C 595.835938 754.5625 621.476562 740.476562 645.09375 723.613281 C 673.132812 703.96875 698.457031 680.601562 720.242188 654.324219 C 738.367188 632.40625 754.28125 608.40625 767.097656 582.761719 C 794 530.148438 809.15625 470.648438 809.15625 407.550781 C 809.15625 194 636.128906 21 422.683594 21 " fill-opacity="1" fill-rule="nonzero"/></g><g clip-path="url(#c188cce34c)"><path fill="#ffde50" d="M 387.316406 16.199219 C 380.246094 16.199219 373.109375 16.390625 365.972656 16.832031 C 331.683594 18.726562 298.59375 25.167969 267.207031 35.402344 C 248.199219 41.589844 229.761719 49.296875 212.203125 58.265625 C 211.890625 58.457031 211.699219 58.582031 211.382812 58.582031 C 203.996094 62.433594 196.542969 66.476562 189.472656 70.835938 C 179.242188 76.710938 169.324219 83.339844 159.917969 90.476562 C 153.285156 94.960938 146.90625 100.015625 140.78125 105.132812 C 132.574219 111.953125 124.679688 119.027344 117.101562 126.480469 C 100.367188 142.714844 85.273438 160.523438 71.824219 179.535156 C 71.632812 179.664062 71.507812 179.980469 71.316406 180.105469 C 54.519531 203.789062 40.4375 229.433594 29.449219 256.65625 C 10.882812 301.816406 0.84375 351.148438 0.84375 402.8125 C 0.84375 616.300781 173.683594 789.363281 387.316406 789.363281 C 438.972656 789.363281 488.292969 779.132812 533.257812 760.753906 C 560.472656 749.761719 586.113281 735.675781 609.792969 718.8125 C 610.109375 718.6875 610.234375 718.558594 610.550781 718.246094 C 629.558594 704.917969 647.367188 689.757812 663.597656 673.082031 C 671.175781 665.503906 678.121094 657.796875 684.941406 649.585938 C 690.058594 643.207031 695.109375 636.890625 699.71875 630.257812 C 706.726562 620.785156 713.359375 610.933594 719.230469 600.699219 C 723.589844 593.625 727.566406 586.171875 731.484375 578.78125 C 731.484375 578.46875 731.609375 578.277344 731.734375 577.960938 C 740.703125 560.339844 748.46875 541.960938 754.660156 522.949219 C 767.164062 485.050781 773.792969 444.691406 773.792969 402.8125 C 773.792969 189.261719 600.828125 16.199219 387.316406 16.199219 " fill-opacity="1" fill-rule="nonzero"/></g><path fill="#ffea94" d="M 663.597656 673.082031 C 647.367188 689.757812 629.558594 704.917969 610.550781 718.246094 L 71.824219 179.535156 C 85.273438 160.523438 100.367188 142.714844 117.101562 126.480469 L 663.597656 673.082031 " fill-opacity="1" fill-rule="nonzero"/><path fill="#ffea94" d="M 754.660156 522.949219 C 748.46875 541.960938 740.703125 560.339844 731.734375 577.960938 C 731.609375 578.277344 731.484375 578.46875 731.484375 578.78125 L 211.382812 58.582031 C 211.699219 58.582031 211.890625 58.457031 212.203125 58.265625 C 229.761719 49.296875 248.199219 41.589844 267.207031 35.402344 L 754.660156 522.949219 " fill-opacity="1" fill-rule="nonzero"/><path fill="#ffea94" d="M 719.230469 600.699219 C 713.359375 610.933594 706.726562 620.785156 699.71875 630.257812 L 159.917969 90.476562 C 169.324219 83.339844 179.242188 76.710938 189.472656 70.835938 L 719.230469 600.699219 " fill-opacity="1" fill-rule="nonzero"/><path fill="#faa300" d="M 225.90625 606.257812 C 276.804688 657.167969 341.851562 684.957031 408.347656 689.757812 C 474.84375 685.148438 540.078125 657.167969 590.910156 606.257812 L 205.828125 221.285156 C 113.816406 334.472656 120.636719 500.96875 225.90625 606.257812 " fill-opacity="1" fill-rule="nonzero"/><path fill="#f68e00" d="M 183.914062 606.257812 C 245.421875 667.96875 327.957031 695.820312 408.347656 689.757812 C 341.851562 684.957031 276.804688 657.167969 225.90625 606.257812 C 120.636719 500.96875 113.816406 334.472656 205.828125 221.285156 C 212.203125 213.707031 218.835938 206.253906 225.90625 199.179688 C 276.617188 148.273438 341.851562 120.289062 408.347656 115.679688 C 327.832031 109.617188 245.421875 137.472656 183.722656 199.179688 C 71.191406 311.546875 71.316406 493.894531 183.914062 606.257812 " fill-opacity="1" fill-rule="nonzero"/><path fill="#ffbd00" d="M 205.828125 221.285156 L 590.910156 606.257812 C 703.445312 493.894531 703.445312 311.734375 590.910156 199.179688 C 540.078125 148.273438 474.84375 120.289062 408.347656 115.679688 C 341.851562 120.289062 276.617188 148.273438 225.90625 199.179688 C 218.835938 206.253906 212.203125 213.707031 205.828125 221.285156 " fill-opacity="1" fill-rule="nonzero"/><path fill="#f68e00" d="M 221.359375 461.113281 L 255.523438 461.113281 C 256.410156 461.113281 257.167969 461.679688 257.417969 462.5 C 260.640625 474.4375 263.925781 484.039062 267.648438 492.882812 C 280.34375 522.820312 299.035156 546 323.347656 561.792969 C 347.597656 577.582031 379.613281 585.542969 418.515625 585.542969 C 456.023438 585.542969 488.105469 575.183594 513.996094 554.65625 C 534.015625 538.800781 549.484375 517.136719 560.03125 490.167969 C 562.304688 484.355469 561.925781 478.039062 559.023438 472.355469 C 555.992188 466.542969 550.6875 462.25 544.308594 460.671875 L 543.992188 460.542969 C 532.816406 457.828125 521.320312 464.082031 517.28125 475.324219 C 509.890625 495.789062 498.902344 512.210938 484.632812 524.085938 C 465.558594 539.9375 441.941406 547.960938 414.472656 547.960938 C 391.929688 547.960938 370.710938 542.085938 351.324219 530.464844 C 331.9375 518.84375 317.410156 500.96875 308.253906 477.472656 C 306.488281 472.921875 304.972656 467.933594 303.644531 463.574219 C 303.519531 463.007812 303.582031 462.375 303.960938 461.871094 C 304.339844 461.363281 304.90625 461.113281 305.539062 461.113281 L 393.253906 461.113281 C 405.125 461.113281 414.726562 451.449219 414.726562 439.636719 C 414.726562 427.824219 405.125 418.226562 393.253906 418.226562 L 297.203125 418.226562 C 296.195312 418.226562 295.371094 417.402344 295.308594 416.394531 C 294.742188 409.066406 294.488281 402.117188 294.488281 395.234375 C 294.488281 389.800781 294.804688 384.558594 295.121094 380.074219 C 295.183594 379.066406 296.003906 378.308594 297.015625 378.308594 L 393.253906 378.308594 C 405.125 378.308594 414.726562 368.644531 414.726562 356.832031 C 414.726562 345.019531 405.125 335.421875 393.253906 335.421875 L 305.414062 335.421875 C 304.78125 335.421875 304.214844 335.105469 303.898438 334.664062 C 303.519531 334.15625 303.390625 333.523438 303.582031 332.957031 L 304.339844 330.113281 C 304.90625 328.21875 305.414062 326.261719 306.109375 324.367188 C 313.8125 301.3125 327.453125 282.742188 346.585938 269.101562 C 365.722656 255.457031 389.84375 248.507812 418.261719 248.507812 C 443.015625 248.507812 463.917969 254.761719 480.335938 267.140625 C 492.589844 276.363281 502.820312 289.878906 510.710938 307.3125 C 515.195312 317.167969 525.929688 322.535156 536.289062 320.070312 C 543.042969 318.492188 548.726562 313.945312 551.695312 307.628906 C 554.476562 301.816406 554.539062 295.121094 551.824219 289.4375 C 541.90625 268.722656 527.953125 251.605469 510.460938 238.53125 C 485.957031 220.210938 455.265625 210.929688 419.273438 210.929688 C 387.445312 210.929688 357.890625 218.253906 331.429688 232.78125 C 305.035156 247.246094 284.382812 268.722656 270.050781 296.640625 C 264.617188 307.3125 260.070312 319.503906 256.21875 333.96875 C 256.03125 334.789062 255.273438 335.421875 254.386719 335.421875 L 221.359375 335.421875 C 209.550781 335.421875 199.953125 345.019531 199.953125 356.832031 C 199.953125 368.644531 209.550781 378.308594 221.359375 378.308594 L 247.253906 378.308594 C 247.757812 378.308594 248.261719 378.496094 248.640625 378.875 C 249.019531 379.253906 249.210938 379.824219 249.210938 380.328125 C 249.082031 381.84375 249.019531 383.359375 248.894531 384.875 C 248.703125 388.351562 248.453125 391.886719 248.453125 395.488281 C 248.453125 402.5625 248.894531 409.570312 249.398438 416.140625 C 249.460938 416.644531 249.273438 417.214844 248.894531 417.59375 C 248.515625 417.972656 248.011719 418.226562 247.503906 418.226562 L 221.359375 418.226562 C 209.550781 418.226562 199.953125 427.824219 199.953125 439.636719 C 199.953125 451.449219 209.550781 461.113281 221.359375 461.113281 " fill-opacity="1" fill-rule="nonzero"/><path fill="#ffea94" d="M 207.089844 466.921875 L 241.253906 466.921875 C 242.074219 466.921875 242.832031 467.492188 243.085938 468.3125 C 246.304688 480.25 249.589844 489.851562 253.316406 498.695312 C 266.007812 528.632812 284.699219 551.8125 309.011719 567.601562 C 333.261719 583.332031 365.277344 591.351562 404.179688 591.351562 C 441.691406 591.351562 473.832031 580.929688 499.722656 560.464844 C 519.679688 544.613281 535.152344 522.882812 545.695312 495.976562 C 547.96875 490.167969 547.589844 483.851562 544.6875 478.164062 C 541.71875 472.355469 536.351562 468.058594 529.972656 466.480469 L 529.65625 466.355469 C 518.480469 463.640625 506.988281 469.890625 502.945312 481.132812 C 495.554688 501.597656 484.566406 517.957031 470.296875 529.894531 C 451.226562 545.75 427.671875 553.769531 400.199219 553.769531 C 377.65625 553.769531 356.375 547.898438 337.050781 536.273438 C 317.601562 524.652344 303.078125 506.777344 293.921875 483.28125 C 292.152344 478.734375 290.636719 473.746094 289.375 469.386719 C 289.183594 468.816406 289.308594 468.1875 289.625 467.679688 C 290.003906 467.175781 290.574219 466.921875 291.203125 466.921875 L 378.980469 466.921875 C 390.792969 466.921875 400.390625 457.257812 400.390625 445.449219 C 400.390625 433.636719 390.792969 424.035156 378.980469 424.035156 L 282.867188 424.035156 C 281.859375 424.035156 281.039062 423.214844 280.972656 422.203125 C 280.40625 414.816406 280.152344 407.929688 280.152344 401.046875 C 280.152344 395.613281 280.46875 390.371094 280.785156 385.886719 C 280.847656 384.875 281.667969 384.054688 282.679688 384.054688 L 378.980469 384.054688 C 390.792969 384.054688 400.390625 374.453125 400.390625 362.644531 C 400.390625 350.832031 390.792969 341.167969 378.980469 341.167969 L 291.078125 341.167969 C 290.511719 341.167969 289.941406 340.914062 289.5625 340.410156 C 289.183594 339.96875 289.058594 339.273438 289.246094 338.703125 L 290.066406 335.925781 C 290.574219 333.96875 291.140625 332.074219 291.773438 330.113281 C 299.476562 307.125 313.117188 288.554688 332.25 274.910156 C 351.386719 261.203125 375.507812 254.320312 403.925781 254.320312 C 428.746094 254.320312 449.582031 260.574219 466.003906 272.890625 C 478.253906 282.175781 488.484375 295.691406 496.441406 313.125 C 500.859375 322.976562 511.597656 328.28125 521.953125 325.882812 C 528.773438 324.304688 534.394531 319.757812 537.363281 313.441406 C 540.203125 307.566406 540.203125 300.933594 537.488281 295.25 C 527.574219 274.53125 513.617188 257.414062 496.125 244.277344 C 471.621094 226.023438 440.933594 216.738281 404.9375 216.738281 C 373.109375 216.738281 343.554688 224.066406 317.097656 238.59375 C 290.699219 253.058594 270.050781 274.53125 255.777344 302.449219 C 250.285156 313.0625 245.738281 325.3125 241.949219 339.777344 C 241.695312 340.597656 240.9375 341.167969 240.054688 341.167969 L 207.089844 341.167969 C 195.21875 341.167969 185.617188 350.832031 185.617188 362.644531 C 185.617188 374.453125 195.21875 384.054688 207.089844 384.054688 L 232.917969 384.054688 C 233.484375 384.054688 233.992188 384.308594 234.371094 384.6875 C 234.6875 385.066406 234.875 385.570312 234.875 386.140625 C 234.75 387.65625 234.6875 389.171875 234.558594 390.6875 C 234.371094 394.097656 234.117188 397.699219 234.117188 401.296875 C 234.117188 408.371094 234.558594 415.382812 235.066406 421.953125 C 235.128906 422.457031 234.9375 423.027344 234.558594 423.40625 C 234.179688 423.785156 233.675781 424.035156 233.171875 424.035156 L 207.089844 424.035156 C 195.21875 424.035156 185.617188 433.636719 185.617188 445.449219 C 185.617188 457.257812 195.21875 466.921875 207.089844 466.921875 " fill-opacity="1" fill-rule="nonzero"/></svg>