<svg xmlns="http://www.w3.org/2000/svg" xmlns:xlink="http://www.w3.org/1999/xlink" width="1080" zoomAndPan="magnify" viewBox="0 0 810 809.999993" height="1080" preserveAspectRatio="xMidYMid meet" version="1.0"><rect x="-81" width="972" fill="#ffffff" y="-80.999999" height="971.999992" fill-opacity="1"/><rect x="-81" width="972" fill="#ffffff" y="-80.999999" height="971.999992" fill-opacity="1"/><path fill="#ffd54f" d="M 595.429688 324.507812 C 595.429688 329.335938 595.3125 334.160156 595.074219 338.980469 C 594.839844 343.804688 594.484375 348.617188 594.007812 353.421875 C 593.535156 358.226562 592.945312 363.015625 592.238281 367.792969 C 591.527344 372.570312 590.703125 377.324219 589.761719 382.058594 C 588.820312 386.792969 587.761719 391.503906 586.589844 396.1875 C 585.414062 400.871094 584.128906 405.523438 582.726562 410.140625 C 581.324219 414.761719 579.808594 419.34375 578.183594 423.890625 C 576.558594 428.4375 574.820312 432.941406 572.972656 437.398438 C 571.125 441.859375 569.167969 446.273438 567.105469 450.636719 C 565.039062 455 562.871094 459.3125 560.59375 463.570312 C 558.316406 467.828125 555.9375 472.027344 553.457031 476.167969 C 550.972656 480.3125 548.390625 484.386719 545.707031 488.402344 C 543.027344 492.417969 540.246094 496.363281 537.371094 500.242188 C 534.492188 504.117188 531.523438 507.925781 528.460938 511.65625 C 525.398438 515.386719 522.246094 519.042969 519.003906 522.621094 C 515.761719 526.199219 512.429688 529.691406 509.015625 533.105469 C 505.601562 536.519531 502.105469 539.847656 498.53125 543.089844 C 494.953125 546.332031 491.296875 549.484375 487.5625 552.550781 C 483.832031 555.613281 480.027344 558.582031 476.148438 561.457031 C 472.269531 564.332031 468.324219 567.113281 464.308594 569.792969 C 460.292969 572.476562 456.214844 575.058594 452.074219 577.542969 C 447.933594 580.023438 443.734375 582.402344 439.476562 584.679688 C 435.214844 586.953125 430.90625 589.125 426.539062 591.1875 C 422.175781 593.253906 417.761719 595.207031 413.300781 597.054688 C 408.839844 598.902344 404.335938 600.640625 399.789062 602.265625 C 395.246094 603.894531 390.660156 605.40625 386.039062 606.808594 C 381.421875 608.210938 376.769531 609.496094 372.085938 610.671875 C 367.402344 611.84375 362.691406 612.902344 357.957031 613.84375 C 353.21875 614.785156 348.464844 615.609375 343.6875 616.320312 C 338.910156 617.027344 334.121094 617.617188 329.316406 618.089844 C 324.511719 618.566406 319.695312 618.917969 314.875 619.15625 C 310.050781 619.394531 305.226562 619.511719 300.398438 619.511719 C 295.570312 619.511719 290.742188 619.394531 285.921875 619.15625 C 281.097656 618.917969 276.285156 618.566406 271.480469 618.089844 C 266.671875 617.617188 261.882812 617.027344 257.105469 616.320312 C 252.332031 615.609375 247.574219 614.785156 242.839844 613.84375 C 238.105469 612.902344 233.394531 611.84375 228.710938 610.671875 C 224.027344 609.496094 219.375 608.210938 214.753906 606.808594 C 210.132812 605.40625 205.550781 603.894531 201.003906 602.265625 C 196.457031 600.640625 191.953125 598.902344 187.492188 597.054688 C 183.03125 595.207031 178.621094 593.253906 174.253906 591.1875 C 169.890625 589.125 165.578125 586.953125 161.320312 584.679688 C 157.0625 582.402344 152.863281 580.023438 148.71875 577.542969 C 144.578125 575.058594 140.5 572.476562 136.484375 569.792969 C 132.472656 567.113281 128.523438 564.332031 124.644531 561.457031 C 120.769531 558.582031 116.960938 555.613281 113.230469 552.550781 C 109.496094 549.484375 105.84375 546.332031 102.265625 543.089844 C 98.6875 539.847656 95.191406 536.519531 91.777344 533.105469 C 88.363281 529.691406 85.035156 526.199219 81.792969 522.621094 C 78.550781 519.042969 75.398438 515.386719 72.332031 511.65625 C 69.269531 507.925781 66.300781 504.117188 63.425781 500.242188 C 60.546875 496.363281 57.769531 492.417969 55.085938 488.402344 C 52.402344 484.386719 49.820312 480.3125 47.339844 476.167969 C 44.855469 472.027344 42.476562 467.828125 40.203125 463.570312 C 37.925781 459.3125 35.753906 455 33.691406 450.636719 C 31.625 446.273438 29.671875 441.859375 27.824219 437.398438 C 25.972656 432.941406 24.238281 428.4375 22.609375 423.890625 C 20.984375 419.34375 19.46875 414.761719 18.066406 410.140625 C 16.667969 405.523438 15.378906 400.871094 14.207031 396.1875 C 13.03125 391.503906 11.976562 386.792969 11.035156 382.058594 C 10.089844 377.324219 9.265625 372.570312 8.558594 367.792969 C 7.847656 363.015625 7.257812 358.226562 6.785156 353.421875 C 6.3125 348.617188 5.957031 343.804688 5.71875 338.980469 C 5.484375 334.160156 5.363281 329.335938 5.363281 324.507812 C 5.363281 319.679688 5.484375 314.851562 5.71875 310.03125 C 5.957031 305.207031 6.3125 300.394531 6.785156 295.589844 C 7.257812 290.785156 7.847656 285.996094 8.558594 281.21875 C 9.265625 276.445312 10.089844 271.6875 11.035156 266.953125 C 11.976562 262.21875 13.03125 257.507812 14.207031 252.824219 C 15.378906 248.140625 16.667969 243.492188 18.066406 238.871094 C 19.46875 234.25 20.984375 229.667969 22.609375 225.121094 C 24.238281 220.578125 25.972656 216.074219 27.824219 211.613281 C 29.671875 207.152344 31.625 202.738281 33.691406 198.375 C 35.753906 194.011719 37.925781 189.699219 40.203125 185.441406 C 42.476562 181.183594 44.855469 176.984375 47.339844 172.84375 C 49.820312 168.703125 52.402344 164.625 55.085938 160.609375 C 57.769531 156.597656 60.546875 152.648438 63.425781 148.773438 C 66.300781 144.894531 69.269531 141.089844 72.332031 137.355469 C 75.398438 133.625 78.550781 129.96875 81.792969 126.394531 C 85.035156 122.816406 88.363281 119.320312 91.777344 115.90625 C 95.191406 112.492188 98.6875 109.164062 102.265625 105.921875 C 105.84375 102.679688 109.496094 99.527344 113.230469 96.464844 C 116.960938 93.402344 120.769531 90.433594 124.644531 87.554688 C 128.523438 84.679688 132.472656 81.902344 136.484375 79.21875 C 140.5 76.535156 144.578125 73.953125 148.71875 71.472656 C 152.863281 68.988281 157.0625 66.609375 161.320312 64.335938 C 165.578125 62.058594 169.890625 59.890625 174.253906 57.824219 C 178.621094 55.761719 183.03125 53.804688 187.492188 51.957031 C 191.953125 50.109375 196.457031 48.371094 201.003906 46.746094 C 205.550781 45.117188 210.132812 43.605469 214.753906 42.203125 C 219.375 40.800781 224.027344 39.515625 228.710938 38.339844 C 233.394531 37.167969 238.105469 36.109375 242.839844 35.167969 C 247.574219 34.226562 252.332031 33.402344 257.105469 32.695312 C 261.882812 31.984375 266.675781 31.394531 271.480469 30.921875 C 276.285156 30.449219 281.097656 30.09375 285.921875 29.855469 C 290.742188 29.621094 295.570312 29.5 300.398438 29.5 C 305.226562 29.5 310.050781 29.621094 314.875 29.855469 C 319.695312 30.09375 324.511719 30.449219 329.316406 30.921875 C 334.121094 31.394531 338.910156 31.984375 343.6875 32.695312 C 348.464844 33.402344 353.21875 34.226562 357.957031 35.167969 C 362.691406 36.109375 367.402344 37.167969 372.085938 38.339844 C 376.769531 39.515625 381.421875 40.800781 386.039062 42.203125 C 390.660156 43.605469 395.246094 45.117188 399.789062 46.746094 C 404.335938 48.371094 408.839844 50.109375 413.300781 51.957031 C 417.761719 53.804688 422.175781 55.761719 426.539062 57.824219 C 430.90625 59.890625 435.214844 62.058594 439.476562 64.335938 C 443.734375 66.609375 447.933594 68.988281 452.074219 71.472656 C 456.214844 73.953125 460.292969 76.535156 464.308594 79.21875 C 468.324219 81.902344 472.269531 84.679688 476.148438 87.554688 C 480.027344 90.433594 483.832031 93.402344 487.5625 96.464844 C 491.296875 99.527344 494.953125 102.679688 498.53125 105.921875 C 502.105469 109.164062 505.601562 112.492188 509.015625 115.90625 C 512.429688 119.320312 515.761719 122.816406 519.003906 126.394531 C 522.246094 129.96875 525.398438 133.625 528.460938 137.355469 C 531.523438 141.089844 534.492188 144.894531 537.371094 148.773438 C 540.246094 152.648438 543.027344 156.597656 545.707031 160.609375 C 548.390625 164.625 550.972656 168.703125 553.457031 172.84375 C 555.9375 176.984375 558.316406 181.183594 560.59375 185.441406 C 562.871094 189.699219 565.039062 194.011719 567.105469 198.375 C 569.167969 202.738281 571.125 207.152344 572.972656 211.613281 C 574.820312 216.074219 576.558594 220.578125 578.183594 225.121094 C 579.808594 229.667969 581.324219 234.25 582.726562 238.871094 C 584.128906 243.492188 585.414062 248.140625 586.589844 252.824219 C 587.761719 257.507812 588.820312 262.21875 589.761719 266.953125 C 590.703125 271.6875 591.527344 276.445312 592.238281 281.21875 C 592.945312 285.996094 593.535156 290.785156 594.007812 295.589844 C 594.484375 300.394531 594.839844 305.210938 595.074219 310.03125 C 595.3125 314.851562 595.429688 319.679688 595.429688 324.507812 Z M 595.429688 324.507812 " fill-opacity="1" fill-rule="nonzero"/><path fill="#2196f3" d="M 783.179688 458.601562 L 622.25 458.601562 C 607.445312 458.601562 595.429688 470.613281 595.429688 485.417969 C 595.429688 500.222656 607.445312 512.238281 622.25 512.238281 L 715.644531 512.238281 L 537.710938 667.894531 L 339.234375 568.664062 C 331.402344 564.800781 322.121094 564.910156 314.398438 569.148438 L 19.363281 730.058594 C 6.328125 737.140625 1.554688 753.445312 8.636719 766.425781 C 13.519531 775.382812 22.691406 780.425781 32.183594 780.425781 C 36.53125 780.425781 40.929688 779.351562 45.007812 777.097656 L 327.753906 622.945312 L 529.773438 723.945312 C 539.535156 728.71875 551.175781 727.324219 559.4375 720.136719 L 756.359375 547.851562 L 756.359375 646.332031 C 756.359375 661.132812 768.375 673.148438 783.179688 673.148438 C 797.984375 673.148438 810 661.132812 810 646.332031 L 810 485.417969 C 810 470.613281 797.984375 458.601562 783.179688 458.601562 Z M 783.179688 458.601562 " fill-opacity="1" fill-rule="nonzero"/><path fill="#fafafa" d="M 370.667969 453.074219 C 330.328125 469.703125 290.472656 446.585938 267.246094 404.960938 L 300.398438 404.960938 C 315.203125 404.960938 327.21875 392.949219 327.21875 378.144531 C 327.21875 363.339844 315.203125 351.324219 300.398438 351.324219 L 249.167969 351.324219 C 247.828125 342.636719 246.753906 333.730469 246.753906 324.507812 C 246.753906 315.28125 247.773438 306.378906 249.113281 297.6875 L 327.21875 297.6875 C 342.023438 297.6875 354.039062 285.671875 354.039062 270.867188 C 354.039062 256.066406 342.023438 244.050781 327.21875 244.050781 L 267.246094 244.050781 C 290.472656 202.425781 330.328125 179.308594 370.667969 195.9375 C 384.292969 201.460938 400.011719 195.027344 405.699219 181.292969 C 411.277344 167.617188 404.730469 151.953125 391.054688 146.324219 C 375.65625 139.992188 359.78125 136.777344 343.847656 136.777344 C 283.929688 136.777344 232.539062 180.867188 208.238281 244.050781 L 166.292969 244.050781 C 151.484375 244.050781 139.46875 256.066406 139.46875 270.867188 C 139.46875 285.671875 151.484375 297.6875 166.292969 297.6875 L 195.3125 297.6875 C 194.238281 306.539062 193.113281 315.335938 193.113281 324.507812 C 193.113281 333.679688 194.238281 342.476562 195.3125 351.324219 L 166.292969 351.324219 C 151.484375 351.324219 139.46875 363.339844 139.46875 378.144531 C 139.46875 392.949219 151.484375 404.960938 166.292969 404.960938 L 208.238281 404.960938 C 232.539062 468.148438 283.929688 512.238281 343.847656 512.238281 C 359.832031 512.238281 375.710938 509.019531 391.105469 502.691406 C 404.730469 497.058594 411.277344 481.394531 405.699219 467.71875 C 400.011719 453.988281 384.347656 447.550781 370.667969 453.074219 Z M 370.667969 453.074219 " fill-opacity="1" fill-rule="nonzero"/></svg>