<svg xmlns="http://www.w3.org/2000/svg" xmlns:xlink="http://www.w3.org/1999/xlink" width="1080" zoomAndPan="magnify" viewBox="0 0 810 809.999993" height="1080" preserveAspectRatio="xMidYMid meet" version="1.0"><defs><clipPath id="f1387d3d21"><path d="M 9.617188 0 L 623 0 L 623 810 L 9.617188 810 Z M 9.617188 0 " clip-rule="nonzero"/></clipPath><clipPath id="e8fb850d70"><path d="M 540 507 L 800.117188 507 L 800.117188 577 L 540 577 Z M 540 507 " clip-rule="nonzero"/></clipPath><clipPath id="5e69c16294"><path d="M 488 630 L 800.117188 630 L 800.117188 714 L 488 714 Z M 488 630 " clip-rule="nonzero"/></clipPath><clipPath id="5af58fdd4b"><path d="M 517 561 L 800.117188 561 L 800.117188 646 L 517 646 Z M 517 561 " clip-rule="nonzero"/></clipPath></defs><rect x="-81" width="972" fill="#ffffff" y="-80.999999" height="971.999992" fill-opacity="1"/><rect x="-81" width="972" fill="#ffffff" y="-80.999999" height="971.999992" fill-opacity="1"/><g clip-path="url(#f1387d3d21)"><path fill="#f68e00" d="M 59.683594 244.386719 L 110.738281 324.613281 C 115.433594 331.988281 121.347656 338.265625 128.113281 343.292969 L 59.683594 343.292969 Z M 38.722656 185.890625 C 34.957031 179.976562 33.738281 172.957031 35.285156 166.125 C 36.832031 159.292969 40.957031 153.488281 46.898438 149.777344 C 51.085938 147.15625 56.320312 145.878906 63.039062 145.878906 L 66.648438 145.8125 L 128.753906 145.8125 C 129.6875 150.390625 131.929688 154.589844 135.300781 157.945312 C 139.832031 162.480469 145.859375 164.980469 152.269531 164.980469 C 163.851562 164.980469 173.542969 156.734375 175.785156 145.8125 L 231.929688 145.8125 C 249.570312 145.8125 265.578125 156.238281 272.707031 172.378906 L 275.101562 177.796875 C 268.480469 189.648438 263.113281 202.34375 259.195312 215.738281 L 238 230.441406 L 238 171.476562 C 238 167.683594 234.929688 164.617188 231.140625 164.617188 C 227.351562 164.617188 224.28125 167.683594 224.28125 171.476562 L 224.28125 239.945312 L 178.023438 272.019531 L 104.316406 165.03125 C 102.171875 161.917969 97.898438 161.128906 94.777344 163.277344 C 91.664062 165.429688 90.875 169.703125 93.023438 172.816406 L 121.550781 214.226562 L 76.617188 245.4375 Z M 135.125 68.964844 C 137.007812 68.964844 138.40625 69.714844 139.25 70.34375 C 142.277344 72.605469 146.5625 71.992188 148.835938 68.96875 C 152.40625 64.230469 154.640625 58.757812 155.40625 52.945312 L 182.382812 66.042969 C 182.625 66.164062 182.886719 66.246094 183.132812 66.359375 L 183.132812 92.972656 C 183.132812 102.429688 175.445312 110.121094 165.988281 110.121094 C 163.722656 110.121094 161.488281 109.804688 159.335938 109.1875 C 155.691406 108.144531 151.894531 110.242188 150.851562 113.878906 C 149.800781 117.519531 151.902344 121.320312 155.539062 122.371094 C 157.828125 123.027344 160.179688 123.449219 162.558594 123.664062 L 162.558594 140.976562 C 162.558594 146.648438 157.945312 151.261719 152.269531 151.261719 C 149.523438 151.261719 146.945312 150.191406 144.984375 148.230469 C 143.046875 146.308594 141.984375 143.726562 141.984375 140.976562 L 141.984375 89.539062 C 141.984375 85.746094 138.914062 82.679688 135.125 82.679688 C 131.339844 82.679688 128.265625 79.597656 128.265625 75.820312 C 128.265625 72.039062 131.339844 68.964844 135.125 68.964844 Z M 287.019531 184.578125 C 288.699219 183.410156 289.710938 181.582031 289.90625 179.613281 C 293.6875 173.34375 297.839844 167.34375 302.355469 161.652344 L 304.089844 184.617188 L 278.363281 202.453125 C 280.910156 196.289062 283.816406 190.328125 287.019531 184.578125 Z M 224.28125 334.09375 L 224.28125 343.292969 L 211.402344 343.292969 Z M 315.132812 193.652344 C 317.128906 192.265625 318.25 189.929688 318.066406 187.496094 L 316.375 165.03125 C 317.203125 165.414062 317.90625 166.089844 318.300781 166.988281 L 323.273438 178.132812 C 324.09375 179.996094 325.710938 181.386719 327.671875 181.945312 C 329.632812 182.492188 331.738281 182.152344 333.417969 180.992188 L 351.976562 168.242188 L 373.269531 210.816406 L 202.460938 332.824219 C 192.917969 339.636719 181.6875 343.253906 169.964844 343.292969 L 169.53125 343.292969 C 150.289062 343.214844 132.648438 333.496094 122.3125 317.246094 L 83.984375 257.023438 L 129.332031 225.519531 L 170.628906 285.46875 C 171.660156 286.96875 173.246094 287.992188 175.042969 288.320312 C 176.832031 288.648438 178.6875 288.246094 180.179688 287.210938 L 234.964844 249.234375 C 234.972656 249.226562 234.976562 249.222656 234.984375 249.222656 Z M 382.023438 267.859375 C 382.023438 263.171875 382.472656 258.597656 383.296875 254.144531 L 368.304688 254.144531 C 364.515625 254.144531 361.449219 251.070312 361.449219 247.285156 C 361.449219 243.496094 364.515625 240.425781 368.304688 240.425781 L 387.207031 240.425781 C 398.210938 212.359375 425.542969 192.417969 457.464844 192.417969 L 471.179688 192.417969 C 474.96875 192.417969 478.039062 195.488281 478.039062 199.277344 C 478.039062 203.0625 474.96875 206.136719 471.179688 206.136719 L 457.464844 206.136719 C 433.277344 206.136719 412.308594 220.121094 402.195312 240.425781 L 457.464844 240.425781 C 461.253906 240.425781 464.320312 243.496094 464.320312 247.285156 C 464.320312 251.070312 461.253906 254.144531 457.464844 254.144531 L 397.292969 254.144531 C 396.289062 258.558594 395.738281 263.144531 395.738281 267.859375 C 395.738281 270.175781 395.878906 272.460938 396.128906 274.71875 L 457.464844 274.71875 C 461.253906 274.71875 464.320312 277.785156 464.320312 281.578125 C 464.320312 285.359375 461.253906 288.433594 457.464844 288.433594 L 399.273438 288.433594 C 407.773438 312.378906 430.640625 329.585938 457.464844 329.585938 L 471.179688 329.585938 C 474.96875 329.585938 478.039062 332.652344 478.039062 336.441406 C 478.039062 340.226562 474.96875 343.300781 471.179688 343.300781 L 457.464844 343.300781 C 422.996094 343.300781 393.878906 320.0625 384.894531 288.433594 L 368.304688 288.433594 C 364.515625 288.433594 361.449219 285.359375 361.449219 281.578125 C 361.449219 277.785156 364.515625 274.71875 368.304688 274.71875 L 382.351562 274.71875 C 382.144531 272.453125 382.023438 270.171875 382.023438 267.859375 Z M 436.886719 96.398438 C 531.429688 96.398438 608.34375 173.3125 608.34375 267.851562 C 608.34375 362.394531 531.429688 439.308594 436.886719 439.308594 C 419.730469 439.308594 402.90625 436.765625 386.710938 431.808594 C 388.082031 429.050781 388.878906 425.949219 388.878906 422.660156 L 388.878906 412.371094 C 388.878906 399.136719 378.109375 388.367188 364.875 388.367188 L 330.585938 388.367188 C 326.136719 388.367188 321.980469 389.609375 318.402344 391.722656 C 293.226562 367.621094 275.847656 336.160156 268.941406 302.191406 L 306.796875 275.152344 C 310.601562 343.621094 367.488281 398.160156 436.886719 398.160156 C 508.738281 398.160156 567.195312 339.703125 567.195312 267.851562 C 567.195312 196.003906 508.738281 137.546875 436.886719 137.546875 C 410.210938 137.546875 384.914062 145.4375 363.214844 160.40625 C 361.355469 157.734375 358.601562 155.785156 355.40625 154.960938 C 351.5625 153.96875 347.484375 154.691406 344.207031 156.9375 L 332.449219 165.019531 L 330.832031 161.402344 C 327.449219 153.808594 319.292969 149.683594 311.214844 151.351562 C 342.960938 117.234375 388.128906 96.398438 436.886719 96.398438 Z M 375.164062 422.660156 C 375.164062 426.445312 372.089844 429.519531 368.304688 429.519531 L 327.15625 429.519531 C 323.371094 429.519531 320.296875 426.445312 320.296875 422.660156 L 320.296875 412.371094 C 320.296875 406.699219 324.914062 402.085938 330.585938 402.085938 L 364.875 402.085938 C 370.550781 402.085938 375.164062 406.699219 375.164062 412.371094 Z M 330.847656 797.023438 L 293.097656 772.953125 L 313.558594 533.652344 C 314.691406 520.476562 312.320312 507.183594 306.703125 495.199219 L 238 348.632812 L 238 324.292969 L 256.8125 310.859375 C 265.035156 345.34375 283.273438 377.136719 309.078125 401.777344 C 307.492188 404.980469 306.582031 408.570312 306.582031 412.371094 L 306.582031 422.660156 C 306.582031 434.003906 315.8125 443.234375 327.15625 443.234375 L 368.304688 443.234375 C 370.503906 443.234375 372.617188 442.878906 374.609375 442.238281 C 394.558594 449.371094 415.488281 453.027344 436.886719 453.027344 C 538.992188 453.027344 622.0625 369.957031 622.0625 267.851562 C 622.0625 165.75 538.992188 82.679688 436.886719 82.679688 C 374.542969 82.679688 317.59375 114.207031 283.757812 163.765625 C 273.832031 144.425781 253.859375 132.09375 231.929688 132.09375 L 176.273438 132.09375 L 176.273438 122.035156 C 188.242188 117.789062 196.847656 106.382812 196.847656 92.972656 L 196.847656 68.875 C 212.125 67.972656 224.28125 55.300781 224.28125 39.816406 L 224.28125 20.957031 C 224.28125 17.164062 221.214844 14.097656 217.425781 14.097656 L 194.5 14.097656 C 189.964844 14.097656 185.503906 12.878906 181.59375 10.566406 L 173.523438 5.8125 C 170.488281 4.039062 167.265625 2.679688 163.964844 1.773438 C 160.601562 0.851562 157.132812 0.382812 153.65625 0.382812 C 132.089844 0.382812 114.550781 17.921875 114.550781 39.488281 L 114.550781 75.820312 C 114.550781 84.761719 120.285156 92.386719 128.265625 95.21875 L 128.265625 132.09375 L 66.515625 132.09375 L 62.90625 132.160156 C 53.675781 132.160156 46.0625 134.125 39.625 138.140625 C 30.5625 143.808594 24.265625 152.667969 21.910156 163.097656 C 19.546875 173.527344 21.40625 184.234375 27.148438 193.25 L 45.96875 222.824219 L 45.96875 350.152344 C 45.96875 350.894531 46.113281 351.605469 46.34375 352.28125 C 46.128906 383.707031 50.828125 414.832031 60.308594 444.796875 L 86.824219 528.601562 L 18.808594 773.4375 L 10.277344 800.753906 C 9.621094 802.839844 10 805.109375 11.292969 806.863281 C 12.585938 808.625 14.636719 809.664062 16.820312 809.664062 L 148.839844 809.664062 C 151.863281 809.664062 154.527344 807.679688 155.40625 804.789062 C 156.28125 801.902344 155.164062 798.773438 152.644531 797.097656 L 115.628906 772.417969 L 178.042969 547.742188 C 181.53125 535.199219 181.707031 521.882812 178.546875 509.253906 L 157.628906 425.601562 L 172.035156 425.601562 L 224.101562 529.726562 L 196.917969 774.355469 L 191.820312 801.539062 C 191.445312 803.546875 191.980469 805.609375 193.285156 807.183594 C 194.59375 808.753906 196.519531 809.664062 198.5625 809.664062 L 327.15625 809.664062 C 330.203125 809.664062 332.890625 807.648438 333.738281 804.726562 C 334.597656 801.800781 333.410156 798.660156 330.847656 797.023438 " fill-opacity="1" fill-rule="nonzero"/></g><g clip-path="url(#e8fb850d70)"><path fill="#f68e00" d="M 540.679688 571.015625 C 567.421875 574.585938 597.730469 576.476562 628.917969 576.476562 C 676.050781 576.476562 720.28125 572.257812 753.46875 564.601562 C 790.570312 556.035156 800.375 546.195312 800.375 542.183594 C 800.375 538.171875 790.570312 528.332031 753.46875 519.773438 C 720.273438 512.113281 676.042969 507.894531 628.917969 507.894531 C 602.660156 507.894531 576.566406 509.273438 553.003906 511.863281 C 551.738281 528.796875 547.128906 549.429688 540.679688 571.015625 " fill-opacity="1" fill-rule="nonzero"/></g><path fill="#f68e00" d="M 501.40625 638.328125 C 501.4375 638.238281 501.480469 638.152344 501.519531 638.066406 C 511.082031 615.996094 519.179688 594.445312 525.464844 574.453125 C 525.476562 574.414062 525.488281 574.359375 525.503906 574.320312 C 529.75 560.78125 533.171875 547.957031 535.617188 536.214844 C 543.371094 498.9375 538.535156 485.910156 534.898438 484.230469 L 490.394531 463.714844 C 495.664062 501.289062 468.941406 578.15625 444.4375 631.328125 C 424.285156 675.035156 401.363281 714.382812 379.898438 742.113281 C 367.582031 758.019531 356.585938 769.042969 346.949219 775.183594 L 391.339844 795.644531 C 394.980469 797.324219 408.023438 792.542969 431.335938 762.425781 C 452.1875 735.496094 474.527344 697.089844 494.257812 654.292969 C 496.722656 648.957031 499.109375 643.625 501.40625 638.328125 " fill-opacity="1" fill-rule="nonzero"/><g clip-path="url(#5e69c16294)"><path fill="#f68e00" d="M 511.785156 648.769531 C 510.09375 652.621094 508.398438 656.390625 506.71875 660.039062 C 500.761719 672.964844 494.554688 685.492188 488.21875 697.464844 C 521.148438 707.644531 572.800781 713.640625 628.917969 713.640625 C 676.050781 713.640625 720.28125 709.421875 753.46875 701.765625 C 760.621094 700.117188 766.75 698.417969 771.992188 696.722656 C 772.105469 696.683594 772.214844 696.648438 772.320312 696.617188 C 794.039062 689.554688 800.375 682.570312 800.375 679.347656 L 800.375 630.34375 C 768.460938 650.859375 687.46875 658.773438 628.917969 658.773438 C 585.808594 658.773438 544.511719 655.230469 511.785156 648.769531 " fill-opacity="1" fill-rule="nonzero"/></g><path fill="#f68e00" d="M 472.613281 455.519531 C 472.210938 455.332031 471.6875 455.222656 471.046875 455.222656 C 465.9375 455.222656 453.332031 461.988281 432.621094 488.738281 C 411.773438 515.667969 389.421875 554.070312 369.699219 596.871094 C 349.96875 639.667969 335.28125 681.605469 328.34375 714.953125 C 320.578125 752.230469 325.414062 765.25 329.050781 766.933594 C 329.050781 766.933594 329.050781 766.933594 329.058594 766.933594 C 332.707031 768.605469 345.75 763.820312 369.050781 733.714844 C 389.898438 706.78125 412.25 668.378906 431.980469 625.582031 C 451.710938 582.785156 466.398438 540.851562 473.335938 507.503906 C 481.09375 470.226562 476.257812 457.199219 472.621094 455.519531 L 472.613281 455.519531 " fill-opacity="1" fill-rule="nonzero"/><path fill="#f68e00" d="M 470.972656 728.140625 C 461.335938 744.203125 451.617188 758.640625 442.179688 770.824219 C 441.851562 771.246094 441.535156 771.640625 441.207031 772.054688 C 467.789062 786.296875 531.304688 795.941406 601.488281 795.941406 C 648.617188 795.941406 692.847656 791.71875 726.035156 784.066406 C 763.136719 775.5 772.945312 765.652344 772.945312 761.648438 L 772.945312 712.769531 C 746.101562 729.882812 679.484375 741.074219 601.488281 741.074219 C 552.21875 741.074219 505.082031 736.378906 470.972656 728.140625 " fill-opacity="1" fill-rule="nonzero"/><g clip-path="url(#5af58fdd4b)"><path fill="#f68e00" d="M 536.519531 584.304688 C 530.835938 601.71875 524.175781 619.367188 517.304688 635.863281 C 548.703125 641.804688 587.917969 645.058594 628.917969 645.058594 C 676.050781 645.058594 720.28125 640.839844 753.46875 633.183594 C 790.570312 624.617188 800.375 614.777344 800.375 610.765625 L 800.375 561.761719 C 768.460938 582.273438 687.46875 590.191406 628.917969 590.191406 C 596.230469 590.191406 564.429688 588.15625 536.519531 584.304688 " fill-opacity="1" fill-rule="nonzero"/></g><path fill="#f68e00" d="M 615.136719 727.230469 C 561.683594 726.292969 513.054688 719.941406 481.566406 709.75 C 480.449219 711.765625 479.324219 713.769531 478.207031 715.742188 C 510.929688 723.152344 555.160156 727.355469 601.488281 727.355469 C 606.113281 727.355469 610.65625 727.308594 615.136719 727.230469 " fill-opacity="1" fill-rule="nonzero"/></svg>