<?xml version="1.0" encoding="UTF-8"?>
<svg xmlns="http://www.w3.org/2000/svg" xmlns:xlink="http://www.w3.org/1999/xlink" viewBox="0 0 385.75 382.22">
  <defs>
    <style> .cls-1 { stroke: #fff; stroke-width: 1.11px; } .cls-1, .cls-2, .cls-3, .cls-4, .cls-5, .cls-6, .cls-7, .cls-8 { fill: none; } .cls-1, .cls-3, .cls-4, .cls-5, .cls-6, .cls-7 { stroke-miterlimit: 10; } .cls-1, .cls-4 { opacity: .57; } .cls-9 { fill: url(#Gradiente_sem_nome_4); } .cls-2 { stroke: #2f318c; stroke-width: 1.4px; } .cls-2, .cls-3, .cls-5 { stroke-linecap: round; } .cls-2, .cls-8 { stroke-linejoin: round; } .cls-10, .cls-11 { fill: #fff; } .cls-12, .cls-13 { fill: #fff6e7; } .cls-14 { fill: #e8e8e8; } .cls-15 { fill: #ececec; } .cls-16 { fill: #fefefe; } .cls-17 { fill: #ffd298; } .cls-18 { fill: #ffc77f; } .cls-19 { fill: #ffb555; } .cls-20 { fill: #edb62b; } .cls-21 { fill: #f66; } .cls-22 { fill: #ff9000; } .cls-23 { fill: #66c27c; } .cls-24 { fill: #96f5af; } .cls-25 { fill: #8b8b8c; } .cls-26 { fill: #8c4242; } .cls-27, .cls-28 { fill: #a87d1d; } .cls-29 { fill: #a5a5a5; } .cls-30, .cls-31, .cls-32 { fill: #d28880; } .cls-33 { fill: #d3d3d3; } .cls-34, .cls-35 { fill: #afafaf; } .cls-36, .cls-37 { fill: #d5dcf8; } .cls-38 { fill: #0f1582; } .cls-39, .cls-40 { fill: #2f318c; } .cls-41 { fill: #5a5a63; } .cls-42 { fill: #58b167; } .cls-43 { fill: #2f2f35; } .cls-44 { fill: #75d491; } .cls-3 { stroke: #4c2a29; stroke-width: 1.34px; } .cls-45 { fill: #895436; } .cls-45, .cls-35, .cls-28, .cls-31, .cls-46, .cls-47, .cls-48, .cls-49 { mix-blend-mode: multiply; } .cls-31, .cls-46 { opacity: .28; } .cls-46 { fill: #4c2a29; } .cls-47 { fill: #ffe8cb; } .cls-47, .cls-48 { opacity: .67; } .cls-48 { fill: #ffdaaa; } .cls-49 { fill: #515159; opacity: .87; } .cls-4, .cls-7 { stroke: #0f1201; } .cls-5 { stroke: #0f1582; stroke-width: 2.67px; } .cls-6 { stroke: #7b3c38; stroke-width: 1.14px; } .cls-8 { stroke: #c97165; stroke-width: 1.2px; } .cls-40, .cls-50, .cls-32 { fill-rule: evenodd; } .cls-50 { fill: #c96e67; } .cls-51 { isolation: isolate; } .cls-13 { opacity: .52; } .cls-13, .cls-11 { mix-blend-mode: overlay; } .cls-11 { opacity: .54; } .cls-52 { fill: url(#Gradiente_sem_nome_4-3); } .cls-53 { fill: url(#Gradiente_sem_nome_4-6); } .cls-54 { fill: url(#Gradiente_sem_nome_4-7); } .cls-55 { fill: url(#Gradiente_sem_nome_4-5); } .cls-56 { fill: url(#Gradiente_sem_nome_4-4); } .cls-57 { fill: url(#Gradiente_sem_nome_4-2); } .cls-37 { opacity: .41; } </style>
    <linearGradient id="Gradiente_sem_nome_4" data-name="Gradiente sem nome 4" x1="95.52" y1="342.44" x2="99.97" y2="337.98" gradientTransform="translate(0 361.57) scale(1 -1)" gradientUnits="userSpaceOnUse">
      <stop offset="0" stop-color="#b0f5d3"></stop>
      <stop offset=".42" stop-color="#7bc9b2"></stop>
      <stop offset="1" stop-color="#3c8880"></stop>
    </linearGradient>
    <linearGradient id="Gradiente_sem_nome_4-2" data-name="Gradiente sem nome 4" x1="99.28" y1="315.33" x2="103.74" y2="310.88" xlink:href="#Gradiente_sem_nome_4"></linearGradient>
    <linearGradient id="Gradiente_sem_nome_4-3" data-name="Gradiente sem nome 4" x1="138.42" y1="345.24" x2="142.88" y2="340.78" xlink:href="#Gradiente_sem_nome_4"></linearGradient>
    <linearGradient id="Gradiente_sem_nome_4-4" data-name="Gradiente sem nome 4" x1="63.16" y1="130.71" x2="76.59" y2="130.71" gradientTransform="translate(-16.94 1.41) rotate(-3.28)" xlink:href="#Gradiente_sem_nome_4"></linearGradient>
    <linearGradient id="Gradiente_sem_nome_4-5" data-name="Gradiente sem nome 4" x1="46.38" y1="190.76" x2="68" y2="190.76" gradientTransform="translate(6.55 -.29) rotate(1.07)" xlink:href="#Gradiente_sem_nome_4"></linearGradient>
    <linearGradient id="Gradiente_sem_nome_4-6" data-name="Gradiente sem nome 4" x1="278.95" y1="310" x2="292.75" y2="296.2" xlink:href="#Gradiente_sem_nome_4"></linearGradient>
    <linearGradient id="Gradiente_sem_nome_4-7" data-name="Gradiente sem nome 4" x1="278.95" y1="271.42" x2="292.75" y2="257.62" xlink:href="#Gradiente_sem_nome_4"></linearGradient>
  </defs>
  <g class="cls-51">
    <g id="Camada_3" data-name="Camada 3">
      <g>
        <g>
          <path class="cls-37" d="m139.93,256.73c-3.73-.02-7.46-.16-11.19-.47-40.92-3.35-88.32-22.89-108.69-58.46C2.24,166.7-4.76,126.43,3.35,91.75c7.62-32.6,31.26-59.01,64.35-69.04,37.22-11.28,78.36,2.43,114.98-12.98,53.31-22.42,120.31-4.61,157.66,38.04,33.12,37.82,41.14,98.79,30.74,146.04-5.25,23.88-19.08,46.87-41.08,58.9-17.51,9.56-38.67,11.45-58.69,8.96-16.1-2-30.92-7.25-46.4-11.57-12.41-3.46-22.6-1.66-35.3.85-16.35,3.24-32.98,5.86-49.7,5.79Z"></path>
          <path class="cls-36" d="m149.06,233.92c-3.01-.01-6.03-.13-9.05-.38-33.11-2.71-71.46-18.52-87.95-47.31-14.41-25.16-20.07-57.74-13.51-85.81,6.17-26.38,25.29-47.75,52.07-55.87,30.12-9.13,63.4,1.96,93.04-10.5,43.13-18.14,97.35-3.73,127.58,30.78,26.8,30.6,33.29,79.94,24.88,118.17-4.25,19.32-15.44,37.93-33.24,47.66-14.17,7.74-31.29,9.27-47.49,7.25-13.03-1.62-25.02-5.87-37.55-9.37-10.04-2.8-18.28-1.34-28.56.69-13.23,2.62-26.68,4.74-40.21,4.69Z"></path>
        </g>
        <g>
          <ellipse class="cls-49" cx="360.32" cy="339.19" rx="17.59" ry="1.34"></ellipse>
          <g>
            <path class="cls-34" d="m362.55,288.61s-15.06-10.23-5.39-25.11c9.67-14.87,7.26-20.04,3.87-24.23,8.22,9.36,6.42,20.02,1.52,26.78-4.9,6.76-5.68,15.97,0,22.56Z"></path>
            <g>
              <polygon class="cls-16" points="374.84 301.3 345.79 301.3 348.63 338.07 372 338.07 374.84 301.3"></polygon>
              <rect class="cls-25" x="342.72" y="299.42" width="35.18" height="4.31"></rect>
              <path class="cls-41" d="m371,295.55h-21.37c-2.12,0-3.84,1.72-3.84,3.84v.04h29.04v-.04c0-2.12-1.72-3.84-3.84-3.84Z"></path>
              <polygon class="cls-20" points="373.22 322.25 373.91 313.35 346.72 313.35 347.41 322.25 373.22 322.25"></polygon>
            </g>
            <path class="cls-35" d="m374.84,299.42v-.04c0-2.12-1.72-3.84-3.84-3.84h-10.58c2.12,0,3.84,1.72,3.84,3.84v.04h3.07v4.31h-3.26l-2.65,34.34h10.58l2.65-34.34h3.26v-4.31h-3.07Z"></path>
          </g>
        </g>
        <g>
          <path class="cls-38" d="m123.48,78.59l-9.96,2.48c-1.45.36-2.91-.52-3.27-1.97l-.96-3.86,15.2-3.78.96,3.86c.36,1.45-.52,2.91-1.97,3.27Z"></path>
          <rect class="cls-38" x="62.57" y="13.97" width="94.26" height="64.39" rx="2.79" ry="2.79" transform="translate(-7.9 27.84) rotate(-13.97)"></rect>
          <polygon class="cls-39" points="157.95 56.84 155.55 63.74 79.19 82.73 72.41 78.12 58.35 21.57 143.89 .29 157.95 56.84"></polygon>
          <rect class="cls-10" x="64.74" y="15.52" width="42.95" height="58.27" transform="translate(-8.23 22.13) rotate(-13.97)"></rect>
          <rect class="cls-34" x="62.93" y="20.27" width="35.29" height="2.04" transform="translate(-2.76 20.07) rotate(-13.97)"></rect>
          <rect class="cls-34" x="64.59" y="27.35" width="29.05" height="2.04" transform="translate(-4.51 19.93) rotate(-13.97)"></rect>
          <rect class="cls-34" x="66.07" y="32.92" width="35.32" height="2.04" transform="translate(-5.72 21.21) rotate(-13.97)"></rect>
          <rect class="cls-34" x="67.65" y="39.25" width="35.29" height="2.04" transform="translate(-7.2 21.78) rotate(-13.97)"></rect>
          <rect class="cls-34" x="69.22" y="45.58" width="35.29" height="2.04" transform="translate(-8.68 22.34) rotate(-13.97)"></rect>
          <rect class="cls-34" x="70.94" y="53.04" width="25.86" height="2.04" transform="translate(-10.57 21.84) rotate(-13.97)"></rect>
          <rect class="cls-34" x="72.37" y="58.23" width="35.29" height="2.04" transform="translate(-11.64 23.48) rotate(-13.97)"></rect>
          <rect class="cls-34" x="73.94" y="64.56" width="35.29" height="2.04" transform="translate(-13.12 24.04) rotate(-13.97)"></rect>
          <rect class="cls-10" x="108.61" y="4.61" width="42.95" height="58.27" transform="translate(-4.3 32.39) rotate(-13.97)"></rect>
          <rect class="cls-34" x="106.48" y="9.44" width="35.29" height="2.04" transform="translate(1.15 30.27) rotate(-13.97)"></rect>
          <rect class="cls-34" x="108.05" y="15.76" width="35.29" height="2.04" transform="translate(-.33 30.83) rotate(-13.97)"></rect>
          <rect class="cls-34" x="109.76" y="23.18" width="26.24" height="2.04" transform="translate(-2.21 30.37) rotate(-13.97)"></rect>
          <rect class="cls-34" x="111.2" y="28.42" width="35.29" height="2.04" transform="translate(-3.3 31.97) rotate(-13.97)"></rect>
          <rect class="cls-34" x="112.77" y="34.75" width="35.29" height="2.04" transform="translate(-4.78 32.53) rotate(-13.97)"></rect>
          <rect class="cls-34" x="114.35" y="41.09" width="35.16" height="2.04" transform="translate(-6.26 33.09) rotate(-13.97)"></rect>
          <rect class="cls-34" x="115.92" y="47.4" width="35.29" height="2.04" transform="translate(-7.74 33.67) rotate(-13.97)"></rect>
          <rect class="cls-34" x="117.5" y="53.73" width="35.29" height="2.04" transform="translate(-9.22 34.23) rotate(-13.97)"></rect>
          <path class="cls-39" d="m120.87,75.28l-6.59,1.64c-1.44.36-2.91-.52-3.27-1.97l-.6-2.42,11.83-2.94.6,2.42c.36,1.44-.52,2.91-1.97,3.27Z"></path>
        </g>
        <g>
          <path class="cls-39" d="m226.16,99.45s6.09-19.09-2.81-24.63c-5.65-2.91-8.74.71-8.74.71,0,0-2.66-13.5-20.97-9.04-11.86,2.89-15.61-3.23-15.61-3.23,0,0-.11,16.92,8.06,21.95,5.92,5.07,3.65,18.79,3.65,18.79l36.42-4.55Z"></path>
          <path class="cls-49" d="m280.12,348.91s32.98.99,42.18,9.49c9.68,8.93,19.83,22.89-21.83,22.62-41.67-.27-78.6-11.74-113.55-8.1-34.95,3.64-63.62,9.91-71.98,8.52-8.35-1.39,51.19-29.92,51.19-29.92l110.55,4.06,3.44-6.67Z"></path>
          <path class="cls-27" d="m249.28,274.73l-41.57-4.18-41.57,4.18s-2.47,19.64-10.5,30.12l52.07,18.7,52.07-18.7c-8.03-10.48-10.5-30.12-10.5-30.12Z"></path>
          <path class="cls-28" d="m206.06,322.96q1.64.59,1.64.59s0,0,1.64-.59c9.58-22.04,7.29-46.76,6.72-51.57l-8.36-.84-10.7,1.07c-.21,5.28-.57,29.44,9.06,51.33Z"></path>
          <path class="cls-45" d="m165.9,276.33s43.74,19.29,85.99,10.91c-1.9-6.86-2.61-12.51-2.61-12.51l-41.57-4.18-33.39,3.35-8.41,2.42h0Z"></path>
          <path class="cls-38" d="m186.09,85.22c5.92,5.07,3.65,18.79,3.65,18.79l7.74-.97c7.95-7.07,16.92-16.03,15.62-19.4-2.28-5.91-8.88-11.81-21.04-12.49-12.16-.67-14.03-7.88-14.03-7.88,0,0-.11,16.92,8.06,21.95Z"></path>
          <path class="cls-10" d="m206.2,133.12l-34.37,12.53-5.69,129.08s12.15,5.69,41.57,5.69v-145.3l-1.51-2Z"></path>
          <path class="cls-10" d="m209.21,133.12l34.37,12.53,5.69,129.08s-12.15,5.69-41.57,5.69v-145.3l1.51-2Z"></path>
          <path class="cls-30" d="m171.83,145.65l-.16.06c-10.04,3.59-18.06,11.3-22.03,21.19l-36.89,89.29,31.37,3.74,26.56-65.08,1.16-49.19Z"></path>
          <path class="cls-30" d="m243.58,145.65l.16.06c10.04,3.59,18.06,11.3,22.03,21.19l36.89,89.29-31.37,3.74-26.56-65.08-1.16-49.19Z"></path>
          <path class="cls-14" d="m280.1,201.57l-14.32-34.67c-3.97-9.89-11.99-17.61-22.03-21.19l-.16-.06,1.16,49.19,7.52,18.44c10.04-8.41,20.12-11.14,27.84-11.71Z"></path>
          <path class="cls-14" d="m135.31,201.57l14.32-34.67c3.97-9.89,11.99-17.61,22.03-21.19l.16-.06-1.16,49.19-7.52,18.44c-10.04-8.41-20.12-11.14-27.84-11.71Z"></path>
          <path class="cls-33" d="m245.83,196.54s-.93-1.3-2.24-3.75l1.16,2.05s-13.08,72.58-48.03,85.3h0c3.36.18,7.01.29,10.99.29,29.42,0,41.57-5.69,41.57-5.69l-3.45-78.19Z"></path>
          <path class="cls-13" d="m155.64,187.03c8.87-24.87,9.36-24.68,28.72-29.23,19.36-4.56,15.56-22.39,15.56-22.39l-18.05,6.58-2.79,1.02-7.24,2.64-.16.06c-10.04,3.59-18.06,11.3-22.03,21.19l-35.36,85.59c14.93-10.99,33.81-44.28,41.36-65.46Z"></path>
          <path class="cls-46" d="m259.77,187.03c-8.87-24.87-9.36-24.68-28.72-29.23-19.36-4.56-15.56-22.39-15.56-22.39l18.05,6.58,2.79,1.02,7.24,2.64.16.06c10.04,3.59,18.06,11.3,22.03,21.19l35.36,85.59c-14.93-10.99-33.81-44.28-41.36-65.46Z"></path>
          <path class="cls-30" d="m207.8,149.04h-.19c-5.08,0-9.2-4.12-9.2-9.2v-21.96h18.58v21.96c0,5.08-4.12,9.2-9.2,9.2Z"></path>
          <path class="cls-39" d="m216.97,135.03c.05,0,.1,0,.15,0v-16.93h-8.67l-9.91,3.58s3.69,13.36,18.43,13.36Z"></path>
          <path class="cls-30" d="m218.21,83.82h-21l-5.2,11.36.87,11.24c.47,6,4.34,16.35,9.79,18.9,1.62.76,3.34,1.26,5.03,1.26s3.41-.5,5.03-1.26c5.45-2.54,9.33-12.9,9.79-18.9l.87-11.24-5.2-11.36Z"></path>
          <path class="cls-5" d="m211.95,91.62s5.15-.86,8.24.93"></path>
          <path class="cls-5" d="m203.46,91.62s-5.15-.86-8.24.93"></path>
          <g>
            <path class="cls-26" d="m243.58,325.22l-118.77-36.03c-15.77-4.78-32.36,4.5-36.52,20.44l-.16.6c-4.29,16.43,6.36,33.02,23.08,35.95,43.91,7.68,123.51,20.73,165.4,22.33l17.66,11.77c2.67,1.78,6.21,1.48,8.54-.71l.09-.09c2.78-2.6,2.92-6.97.32-9.75l-2.75-2.94s-2.45-11.96-14.58-17.08c-12.12-5.13-13.26-17.65-16.11-24.49-2.85-6.83-21.07-10.25-26.2,0Z"></path>
            <path class="cls-18" d="m88.29,309.63c4.17-15.94,20.75-25.23,36.52-20.44l40.28,12.22c-6.07,7.57-14.07,22.93-14.31,51.45-14.71-2.39-28.31-4.71-39.56-6.68-16.72-2.92-27.38-19.52-23.08-35.95l.16-.6Z"></path>
            <path class="cls-47" d="m125.76,334.68c0,4.84-1.16,9.41-3.21,13.46-3.98-.68-7.78-1.34-11.33-1.96-16.72-2.92-27.38-19.52-23.08-35.95l.16-.6c.37-1.43.85-2.81,1.42-4.13,2.01-.43,4.08-.65,6.22-.65,16.48,0,29.83,13.36,29.83,29.83Z"></path>
            <path class="cls-6" d="m249.28,341.74s-1.71,9.95-18.22,6.4"></path>
            <path class="cls-46" d="m259.77,337.18s-25.3-1.14-78.84-10.69c-43.37-7.74-56.09-29.93-59.36-38.08,1.08.2,2.16.45,3.23.78l118.77,36.03c5.13-10.25,23.35-6.83,26.2,0,2.85,6.83,3.99,19.36,16.11,24.49,12.12,5.13,14.58,17.08,14.58,17.08,0,0-12.47-7.97-20.35-9.68-7.88-1.71-20.35-19.93-20.35-19.93Z"></path>
          </g>
          <path class="cls-43" d="m265.25,367.87s21.81,20.87,40.4,12.28c3.09-1.43,4.06-5.38,2.04-8.12-15.66-21.27-35.41-44.44-42.94-53.15-1.88-2.18-4.87-3.06-7.63-2.26l-21.42,6.22,29.54,45.03Z"></path>
          <polygon class="cls-29" points="235.71 322.84 215.19 316.61 230.73 364.43 265.25 367.87 235.71 322.84"></polygon>
          <path class="cls-30" d="m171.83,325.22l118.77-36.03c15.77-4.78,32.36,4.5,36.52,20.44l.16.6c4.29,16.43-6.36,33.02-23.08,35.95-43.91,7.68-123.51,20.73-165.4,22.33l-17.66,11.77c-2.67,1.78-6.21,1.48-8.54-.71l-.09-.09c-2.78-2.6-2.92-6.97-.32-9.75l2.75-2.94s2.45-11.96,14.58-17.08c12.12-5.13,13.26-17.65,16.11-24.49,2.85-6.83,21.07-10.25,26.2,0Z"></path>
          <path class="cls-18" d="m327.12,309.63c-4.17-15.94-20.75-25.23-36.52-20.44l-40.28,12.22c6.07,7.57,14.07,22.93,14.31,51.45,14.71-2.39,28.31-4.71,39.56-6.68,16.73-2.92,27.38-19.52,23.08-35.95l-.16-.6Z"></path>
          <path class="cls-48" d="m289.65,334.68c0,4.84,1.16,9.41,3.21,13.46,3.98-.68,7.78-1.34,11.33-1.96,16.73-2.92,27.38-19.52,23.08-35.95l-.16-.6c-.37-1.43-.85-2.81-1.42-4.13-2.01-.43-4.08-.65-6.22-.65-16.48,0-29.83,13.36-29.83,29.83Z"></path>
          <path class="cls-46" d="m155.64,337.18s25.3-1.14,78.83-10.69c43.37-7.74,56.09-29.93,59.36-38.08-1.08.2-2.16.45-3.23.78l-118.77,36.03c-5.13-10.25-23.35-6.83-26.2,0-2.85,6.83-3.99,19.36-16.11,24.49-12.12,5.13-14.58,17.08-14.58,17.08,0,0,12.47-7.97,20.35-9.68,7.88-1.71,20.35-19.93,20.35-19.93Z"></path>
          <path class="cls-1" d="m129.52,349.71l-17.8-3.3c-16.11-2.57-27.03-17.81-24.28-33.89l.11-.63c3-17.54,20.8-28.38,37.76-23.01l33.62,10.66"></path>
          <path class="cls-10" d="m201.6,110.68c-.64,0-1.02.74-.62,1.25,1.78,2.29,4.14,3.69,6.74,3.69s4.96-1.4,6.74-3.69c.39-.5.02-1.25-.62-1.25h-12.23Z"></path>
          <rect class="cls-30" x="213.09" y="75.53" width="1.52" height="9.67"></rect>
          <g>
            <path class="cls-30" d="m302.67,256.19l.06.17c3.56,9.86-.7,20.83-9.99,25.69l-63.42,33.25-.31-.81c-5.59-14.44.26-30.78,13.73-38.41l28.56-16.16,31.37-3.74Z"></path>
            <path class="cls-31" d="m289.27,276.55c0,2.34.58,4.54,1.61,6.48l1.86-.98c7.32-3.84,11.5-11.47,11.2-19.36-.26-.01-.51-.04-.77-.04-7.68,0-13.9,6.22-13.9,13.9Z"></path>
            <line class="cls-30" x1="271.3" y1="259.92" x2="289.27" y2="249.73"></line>
          </g>
          <g>
            <path class="cls-30" d="m112.93,256.19l-.06.17c-3.56,9.86.7,20.83,9.99,25.69l63.42,33.25.31-.81c5.59-14.44-.26-30.78-13.73-38.41l-28.56-16.16-31.37-3.74Z"></path>
            <path class="cls-31" d="m126.32,276.55c0,2.34-.58,4.54-1.61,6.48l-1.86-.98c-7.32-3.84-11.5-11.47-11.2-19.36.26-.01.51-.04.77-.04,7.68,0,13.9,6.22,13.9,13.9Z"></path>
            <line class="cls-30" x1="144.3" y1="259.92" x2="126.32" y2="249.73"></line>
          </g>
          <path class="cls-3" d="m179.24,311.61s3.2-17.56-7.22-23.2"></path>
          <path class="cls-3" d="m236.17,311.61s-3.2-17.56,7.22-23.2"></path>
          <path class="cls-43" d="m150.16,367.87s-21.81,20.87-40.4,12.28c-3.09-1.43-4.06-5.38-2.04-8.12,15.66-21.27,35.41-44.44,42.94-53.15,1.88-2.18,4.87-3.06,7.63-2.26l21.42,6.22-29.54,45.03Z"></path>
          <polygon class="cls-15" points="179.7 322.84 200.21 316.61 184.67 364.43 150.16 367.87 179.7 322.84"></polygon>
          <path class="cls-46" d="m171.17,335.84c6.09-.65,13.99-1.6,23.77-2.98l5.28-16.25-20.51,6.22-8.53,13Z"></path>
          <path class="cls-12" d="m156.69,353.34l-11.9,18.14c-.74,1.13-2.06,1.73-3.4,1.55h-.08c-2.58-.36-3.89-3.3-2.43-5.45l12.17-17.97c.78-1.15,2.19-1.7,3.54-1.38l.07.02c2.26.53,3.31,3.15,2.04,5.1Z"></path>
          <g>
            <g>
              <polygon class="cls-34" points="206.07 248.51 133.24 248.51 151.19 312.47 206.07 312.47 260.94 312.47 278.9 248.51 206.07 248.51"></polygon>
              <rect class="cls-25" x="151.19" y="312.47" width="109.75" height="9.32"></rect>
              <ellipse class="cls-41" cx="206.19" cy="285.53" rx="17.81" ry="9.12"></ellipse>
              <rect class="cls-41" x="133.24" y="244.27" width="145.66" height="4.24"></rect>
              <rect class="cls-41" x="157.27" y="315.15" width="10.99" height="3.75"></rect>
              <rect class="cls-41" x="173.14" y="315.15" width="10.99" height="3.75"></rect>
              <line class="cls-7" x1="260.94" y1="317.13" x2="194.15" y2="317.13"></line>
              <path class="cls-11" d="m133.24,248.51l17.96,63.96h39.09c23.21-26.91,37.31-63.96,37.31-63.96l-.05-4.24h-94.31v4.24Z"></path>
            </g>
            <line class="cls-4" x1="133.24" y1="248.51" x2="278.9" y2="248.51"></line>
          </g>
          <path class="cls-32" d="m192.47,100.95c.6-.52-1.44-2.74-5-1.3-3.3,1.3-1.8,9.5,3.2,10.5,0,0,1.8.4,3.2-.8,0-.1-1.2-6.1-1.4-8.4Z"></path>
          <path class="cls-50" d="m222.03,109.66c1.48,1.1,3.13.36,3.13.36,4.92-1.36,5.82-9.64,2.44-10.7-2.28-.74-3.87-.09-4.59.61"></path>
          <path class="cls-50" d="m192.26,102.27c-.42-.36-1.31-.65-2.53-.15-1.81.71-.99,5.2,1.75,5.75,0,0,.99.22,1.75-.44"></path>
          <path class="cls-2" d="m206.76,101.66v3.1c0,.1,0,.3.1.4.2.5.9.7,1.6.6l1.3-.3"></path>
          <path class="cls-40" d="m201.66,100.06c0,1.1-.7,1.9-1.6,1.9s-1.6-.9-1.6-1.9c0-1.1.7-1.9,1.6-1.9s1.6.8,1.6,1.9Z"></path>
          <path class="cls-40" d="m217.05,100.11c0,1.1-.7,1.9-1.6,1.9s-1.6-.9-1.6-1.9c0-1.1.7-1.9,1.6-1.9s1.6.8,1.6,1.9Z"></path>
          <path class="cls-8" d="m206.36,100.16c0,3.7-3,6.7-6.7,6.7s-6.7-3-6.7-6.7,3-6.7,6.7-6.7,6.7,3,6.7,6.7Zm16.4,0c0,3.7-3,6.7-6.7,6.7s-6.7-3-6.7-6.7,3-6.7,6.7-6.7,6.7,3,6.7,6.7Zm-16.4,0s1.6-1.5,3.1,0h-3.1Zm-13.4,0l-2.2-.1,2.2.1Zm29.8,0h1.9-1.9Z"></path>
        </g>
        <path class="cls-9" d="m98.95,19.33l-2.1,2.1c-.16.16-.41.16-.56,0l-.79-.79c-.47-.47-1.22-.47-1.69,0-.47.47-.47,1.22,0,1.69l1.88,1.88c.48.48,1.27.48,1.75,0l3.2-3.2c.47-.47.47-1.22,0-1.69-.47-.47-1.22-.47-1.69,0Z"></path>
        <path class="cls-57" d="m102.72,46.44l-2.1,2.1c-.16.16-.41.16-.56,0l-.79-.79c-.47-.47-1.22-.47-1.69,0-.47.47-.47,1.22,0,1.69l1.88,1.88c.48.48,1.27.48,1.75,0l3.2-3.2c.47-.47.47-1.22,0-1.69-.47-.47-1.22-.47-1.69,0Z"></path>
        <path class="cls-52" d="m141.86,16.54l-2.1,2.1c-.16.16-.41.16-.56,0l-.79-.79c-.47-.47-1.22-.47-1.69,0-.47.47-.47,1.22,0,1.69l1.88,1.88c.48.48,1.27.48,1.75,0l3.2-3.2c.47-.47.47-1.22,0-1.69-.47-.47-1.22-.47-1.69,0Z"></path>
        <g>
          <ellipse class="cls-46" cx="85.08" cy="219.05" rx="40.68" ry="3.45" transform="translate(-16.02 6.92) rotate(-4.26)"></ellipse>
          <rect class="cls-17" x="60.55" y="130.94" width="8.36" height="62.83" transform="translate(-9.18 3.97) rotate(-3.28)"></rect>
          <rect class="cls-19" x="68.77" y="130.77" width="8.36" height="64.43" transform="translate(-9.21 4.44) rotate(-3.28)"></rect>
          <rect class="cls-22" x="69.51" y="111.91" width="42.59" height="7.34" rx="3.32" ry="3.32" transform="translate(-37.77 44.37) rotate(-22.86)"></rect>
          <rect class="cls-22" x="96.26" y="117.16" width="34.04" height="7.34" rx="3.32" ry="3.32" transform="translate(55.2 275.93) rotate(-116.32)"></rect>
          <rect class="cls-22" x="88.84" y="119.06" width="28.36" height="7.34" rx="3.32" ry="3.32" transform="translate(-42.55 189.7) rotate(-74.7)"></rect>
          <path class="cls-19" d="m91.23,132.89c-.82,3.88-.49,8.17,1.35,12.52,1.7,4.03,4.77,7.3,8.75,9.12,14.57,6.67,28.76-3.8,28.76-17.58,0-2.42-.44-4.73-1.23-6.87"></path>
          <rect class="cls-19" x="11.44" y="152.18" width="35.2" height="7.34" rx="3.32" ry="3.32" transform="translate(-97.78 250.98) rotate(-116.32)"></rect>
          <rect class="cls-19" x="3.17" y="151.36" width="32.57" height="7.34" rx="3.32" ry="3.32" transform="translate(-135.21 132.87) rotate(-74.7)"></rect>
          <path class="cls-17" d="m7.11,167.21c-.82,3.88-.49,8.17,1.35,12.52,1.7,4.03,4.77,7.3,8.75,9.12,14.57,6.67,28.76-3.8,28.76-17.58,0-2.42-.44-4.73-1.23-6.87"></path>
          <rect class="cls-19" x="18.09" y="132.13" width="42.59" height="7.34" rx="3.32" ry="3.32" transform="translate(-49.67 25.97) rotate(-22.86)"></rect>
          <g>
            <path class="cls-56" d="m66.24,114.12c-7.41.42-13.07,6.77-12.64,14.18s6.77,13.07,14.18,12.64"></path>
            <path class="cls-21" d="m67.78,140.94c7.41-.42,13.07-6.77,12.64-14.18s-6.77-13.07-14.18-12.64"></path>
          </g>
          <path class="cls-19" d="m70.97,198.35l31.1-2.31c3.21-.24,6.01,2.34,6.27,5.76l.78,10.53c.25,3.42-2.14,6.38-5.35,6.62l-31.1,2.31"></path>
          <path class="cls-17" d="m72.68,221.07l-31.1,2.31c-3.21.24-6.01-2.34-6.27-5.76l-.78-10.53c-.25-3.42,2.14-6.38,5.35-6.62l31.1-2.31"></path>
          <path class="cls-21" d="m70.84,198.25l21.64-1.43-.22-4.04c-.33-5.94-5.45-10.48-11.43-10.15l-10.9.61"></path>
          <path class="cls-55" d="m69.93,183.24l-10.39.58c-5.98.33-10.57,5.42-10.24,11.35l.25,4.58,21.29-1.5"></path>
        </g>
        <path class="cls-46" d="m380.31,21.28h-30.85c1.2,1.49,1.92,3.38,1.92,5.44s-.72,3.95-1.92,5.44h30.85c3.01,0,5.44-2.44,5.44-5.44s-2.44-5.44-5.44-5.44Z"></path>
        <path class="cls-23" d="m333.95,26.72c0-2.06.72-3.95,1.92-5.44h-67.36c-3.01,0-5.44,2.44-5.44,5.44s2.44,5.44,5.44,5.44h67.36c-1.2-1.49-1.92-3.38-1.92-5.44Z"></path>
        <path class="cls-42" d="m335.87,21.28h-24.91c3.01,0,5.44,2.44,5.44,5.44s-2.44,5.44-5.44,5.44h24.91c-1.2-1.49-1.92-3.38-1.92-5.44s.72-3.95,1.92-5.44Z"></path>
        <path class="cls-46" d="m284.25,75.37c8.6,0,15.57-6.97,15.57-15.57s-6.97-15.57-15.57-15.57-15.57,6.97-15.57,15.57,6.97,15.57,15.57,15.57Z"></path>
        <path class="cls-53" d="m289.6,52.21l-6.52,6.52c-.48.48-1.26.48-1.74,0l-2.44-2.44c-1.44-1.44-3.78-1.44-5.23,0-1.44,1.44-1.44,3.78,0,5.23l5.82,5.82c1.5,1.5,3.93,1.5,5.43,0l9.9-9.9c1.44-1.44,1.44-3.78,0-5.23-1.44-1.44-3.78-1.44-5.23,0Z"></path>
        <path class="cls-46" d="m284.25,113.95c8.6,0,15.57-6.97,15.57-15.57s-6.97-15.57-15.57-15.57-15.57,6.97-15.57,15.57,6.97,15.57,15.57,15.57Z"></path>
        <path class="cls-54" d="m289.6,90.8l-6.52,6.52c-.48.48-1.26.48-1.74,0l-2.44-2.44c-1.44-1.44-3.78-1.44-5.23,0-1.44,1.44-1.44,3.78,0,5.23l5.82,5.82c1.5,1.5,3.93,1.5,5.43,0l9.9-9.9c1.44-1.44,1.44-3.78,0-5.23-1.44-1.44-3.78-1.44-5.23,0Z"></path>
        <path class="cls-46" d="m355.03,51.95h-42.09c-1.67,0-3.02-1.35-3.02-3.02s1.35-3.02,3.02-3.02h42.09c1.67,0,3.02,1.35,3.02,3.02s-1.35,3.02-3.02,3.02Z"></path>
        <path class="cls-46" d="m379.6,62.97h-66.67c-1.67,0-3.02-1.35-3.02-3.02s1.35-3.02,3.02-3.02h66.67c1.67,0,3.02,1.35,3.02,3.02s-1.35,3.02-3.02,3.02Z"></path>
        <path class="cls-46" d="m379.6,74h-66.67c-1.67,0-3.02-1.35-3.02-3.02s1.35-3.02,3.02-3.02h66.67c1.67,0,3.02,1.35,3.02,3.02s-1.35,3.02-3.02,3.02Z"></path>
        <path class="cls-46" d="m355.03,90.56h-42.09c-1.67,0-3.02-1.35-3.02-3.02s1.35-3.02,3.02-3.02h42.09c1.67,0,3.02,1.35,3.02,3.02s-1.35,3.02-3.02,3.02Z"></path>
        <path class="cls-46" d="m379.6,101.58h-66.67c-1.67,0-3.02-1.35-3.02-3.02s1.35-3.02,3.02-3.02h66.67c1.67,0,3.02,1.35,3.02,3.02s-1.35,3.02-3.02,3.02Z"></path>
        <path class="cls-46" d="m379.6,112.6h-66.67c-1.67,0-3.02-1.35-3.02-3.02s1.35-3.02,3.02-3.02h66.67c1.67,0,3.02,1.35,3.02,3.02s-1.35,3.02-3.02,3.02Z"></path>
        <path class="cls-44" d="m342.66,36.28c5.28,0,9.56-4.28,9.56-9.56s-4.28-9.56-9.56-9.56-9.56,4.28-9.56,9.56,4.28,9.56,9.56,9.56Z"></path>
        <path class="cls-24" d="m346.63,27.74c1.48-1.48,1.48-3.88,0-5.35s-3.88-1.48-5.35,0c-1.48,1.48-1.48,3.88,0,5.35,1.48,1.48,3.88,1.48,5.35,0Z"></path>
      </g>
    </g>
  </g>
</svg>
