<?xml version="1.0" encoding="UTF-8"?> <svg xmlns="http://www.w3.org/2000/svg" width="120" height="120" viewBox="0 0 120 120" fill="none"><g clip-path="url(#clip0_107_780)"><path fill-rule="evenodd" clip-rule="evenodd" d="M49.6887 51.8352V30.7415H15.2344L3.51562 51.8352H49.6887Z" fill="#F88125" fill-opacity="0.2"></path><path fill-rule="evenodd" clip-rule="evenodd" d="M59.064 30.7415V51.8352H96.5637L78.9856 30.7415H59.064Z" fill="#F88125" fill-opacity="0.2"></path><path d="M25.7812 75.2726H25.7796C24.4854 75.2726 23.4365 76.3219 23.4365 77.6163C23.5518 80.7213 28.0104 80.7216 28.125 77.6163C28.125 76.3219 27.0754 75.2726 25.7812 75.2726Z" fill="#0B1B34"></path><path d="M94.2207 75.2726H94.219C92.9248 75.2726 91.876 76.3219 91.876 77.6163C91.9913 80.7213 96.4498 80.7216 96.5644 77.6163C96.5644 76.3219 95.5149 75.2726 94.2207 75.2726Z" fill="#0B1B34"></path><path d="M117.656 65.8976V49.4914C117.656 48.197 116.607 47.1477 115.313 47.1477H95.3354L80.8044 29.2635C80.3595 28.7158 79.6913 28.3977 78.9854 28.3977H15.2343C14.3878 28.3977 13.6068 28.8545 13.1915 29.5923L2.64468 48.3423C2.44734 48.6931 2.34375 49.089 2.34375 49.4914V65.8976C1.04953 65.8976 0 66.9469 0 68.2414V77.6164C0 78.9108 1.04953 79.9601 2.34375 79.9601H11.9133C14.8097 95.4881 36.757 95.4773 39.6475 79.9601H80.3527C83.2491 95.4881 105.196 95.4773 108.087 79.9601H117.656C118.951 79.9601 120 78.9108 120 77.6164V68.2414C120 66.9469 118.95 65.8976 117.656 65.8976ZM7.03124 61.2101H10.5469C13.6533 61.0948 13.6509 56.6368 10.5469 56.5227H7.03124V50.1055L16.6052 33.0854H77.8698L92.4007 50.9696C92.8456 51.5173 93.5138 51.8354 94.2197 51.8354H112.969V56.5229H109.453C106.347 56.6382 106.349 61.0962 109.453 61.2104H112.969V65.8979H101.985C97.6062 62.8081 90.833 62.8083 86.454 65.8979H33.546C29.167 62.8081 22.3938 62.8083 18.0147 65.8979H7.03124V61.2101ZM80.3527 75.2726H39.6473C39.3639 73.5907 38.781 72.0092 37.9553 70.5851H82.0444C81.219 72.0092 80.6358 73.5907 80.3527 75.2726ZM4.68749 70.5851H13.6052C12.7795 72.0092 12.1966 73.5907 11.9133 75.2726H4.68749V70.5851ZM25.7803 86.9913C20.6109 86.9913 16.4053 82.7857 16.4053 77.6164C16.8766 65.1962 34.6858 65.1997 35.1552 77.6164C35.1552 82.7857 30.9496 86.9913 25.7803 86.9913V86.9913ZM94.2197 86.9913C89.0504 86.9913 84.8448 82.7857 84.8448 77.6164C85.3161 65.1962 103.125 65.1997 103.595 77.6164C103.595 82.7857 99.3891 86.9913 94.2197 86.9913ZM115.313 75.2726H108.087C107.803 73.5907 107.22 72.0092 106.395 70.5851H115.313V75.2726Z" fill="#0B1B34"></path></g><defs><clipPath id="clip0_107_780"><rect width="120" height="120" fill="white"></rect></clipPath></defs></svg> 