<?xml version="1.0" encoding="UTF-8"?> <svg xmlns="http://www.w3.org/2000/svg" width="120" height="120" viewBox="0 0 120 120" fill="none"><g clip-path="url(#clip0_107_1118)"><path d="M29.1694 35.022H49.8783V47.1902H29.1694V35.022Z" fill="#F88125" fill-opacity="0.2"></path><path d="M94.1083 22.5692H69.1875C65.4419 22.5692 62.1077 24.3626 60 27.135C57.8922 24.3626 54.558 22.5692 50.8125 22.5692H25.8916C19.5332 22.5692 14.3604 27.7369 14.3604 34.0892V45.7299C14.3604 47.0243 15.4099 48.0736 16.7041 48.0736C17.9983 48.0736 19.0479 47.0243 19.0479 45.7299V34.0892C19.0479 30.3218 22.1182 27.2567 25.8916 27.2567H50.8125C54.5861 27.2567 57.6562 30.3218 57.6562 34.0892V70.5443C57.6562 71.8388 58.7057 72.8881 60 72.8881C61.2942 72.8881 62.3437 71.8388 62.3437 70.5443V34.0892C62.3437 30.3218 65.414 27.2567 69.1875 27.2567H94.1083C97.882 27.2567 100.952 30.3218 100.952 34.0892V45.7299C100.952 47.0243 102.002 48.0736 103.296 48.0736C104.59 48.0736 105.64 47.0243 105.64 45.7299V34.0892C105.64 27.7369 100.467 22.5692 94.1083 22.5692Z" fill="#0B1B34"></path><path d="M70.1216 35.022H90.8305V47.1902H70.1216V35.022Z" fill="#F88125" fill-opacity="0.2"></path><path d="M23.9111 73.3686H60V69.4676C60 64.3997 55.8867 60.2914 50.8125 60.2914H25.8914C25.2114 60.2914 24.5489 60.3652 23.9111 60.5051V73.3686Z" fill="#F88125" fill-opacity="0.2"></path><path d="M96.0888 73.3685V60.5053C95.4511 60.3654 94.7885 60.2916 94.1086 60.2916H69.1875C64.1133 60.2916 60 64.3999 60 69.4678V73.3688H96.0888V73.3685Z" fill="#F88125" fill-opacity="0.2"></path><path d="M106.872 43.3859C99.6338 43.3859 93.7448 49.2689 93.7448 56.5001V71.0248H26.2549V56.5001C26.2549 49.2689 20.366 43.3859 13.1273 43.3859C5.88867 43.3859 0 49.2689 0 56.5001C0 62.8261 4.58086 68.1792 10.6012 69.3682V87.2801C10.6012 88.5745 11.6508 89.6238 12.945 89.6238H15.8236L17.9344 95.8406C18.2571 96.7915 19.1496 97.4309 20.1537 97.4309H27.7329C28.737 97.4309 29.6295 96.7913 29.9522 95.8406L32.063 89.6238H87.937L90.0478 95.8406C90.3706 96.7915 91.263 97.4309 92.2671 97.4309H99.8463C100.85 97.4309 101.743 96.7913 102.066 95.8406L104.176 89.6238H106.873C108.159 89.6238 109.204 88.5874 109.216 87.3014L109.38 69.372C115.41 68.1907 120 62.8331 120 56.5001C120 49.2689 114.111 43.3859 106.872 43.3859ZM26.0536 92.7434H21.833L20.7738 89.6236H27.1125L26.0536 92.7434ZM98.167 92.7434H93.9464L92.8873 89.6236H99.2259L98.167 92.7434ZM107.016 64.9256C105.745 64.9467 104.723 65.9768 104.711 67.2476L104.55 84.9363H15.2888V67.2691C15.2888 65.9899 14.2629 64.947 12.9839 64.9256C8.40938 64.8497 4.6875 61.0699 4.6875 56.5001C4.6875 51.8536 8.47359 48.0734 13.1276 48.0734C17.7816 48.0734 21.5677 51.8536 21.5677 56.5001V73.3685C21.5677 74.663 22.6172 75.7123 23.9114 75.7123H96.0888C97.383 75.7123 98.4326 74.663 98.4326 73.3685V56.5001C98.4326 51.8536 102.219 48.0734 106.873 48.0734C111.527 48.0734 115.312 51.8536 115.312 56.5001C115.312 61.0699 111.591 64.8497 107.016 64.9256Z" fill="#0B1B34"></path></g><defs><clipPath id="clip0_107_1118"><rect width="120" height="120" fill="white"></rect></clipPath></defs></svg> 