<?xml version="1.0" encoding="UTF-8"?> <svg xmlns="http://www.w3.org/2000/svg" width="120" height="120" viewBox="0 0 120 120" fill="none"><g clip-path="url(#clip0_107_835)"><path d="M61.1768 69.4131L54.1167 78.8263H77.6498V69.4131H61.1768Z" fill="#F88125" fill-opacity="0.2"></path><path d="M87.0629 55.3029H66.6386C57.9897 55.3029 49.8259 59.0901 44.2403 65.6934C41.8485 68.5209 41.331 72.3644 42.8893 75.7237C44.4477 79.0832 47.7165 81.1701 51.4197 81.1701H87.0627C88.3572 81.1701 89.4064 80.1206 89.4064 78.8264V57.6466C89.4067 56.3522 88.3574 55.3029 87.0629 55.3029ZM84.7192 76.4826H51.4199C49.5346 76.4826 47.9352 75.4614 47.1416 73.7512C46.3482 72.0407 46.6014 70.1604 47.8192 68.7206C52.5123 63.1725 59.3718 59.9904 66.6386 59.9904H84.7192V76.4826Z" fill="#0B1B34"></path><path d="M100.006 20.0032H63.5298C59.6422 20.0032 56.4793 23.1661 56.4793 27.0536C56.4793 30.9412 59.6422 34.1039 63.5298 34.1039H100.006C103.256 34.1039 105.899 36.7474 105.899 39.997C105.899 43.2461 103.256 45.8899 100.006 45.8899C89.923 45.8899 81.5774 45.8899 71.4953 45.8899C44.2665 45.8899 19.8826 62.3507 9.58978 87.3477C9.09689 88.5447 9.66759 89.9144 10.8645 90.4075C12.0716 90.9042 13.4354 90.3198 13.9241 89.1327C15.0667 86.358 16.393 83.7013 17.8822 81.1706H27.5666C30.0493 81.1706 32.5243 80.201 34.3731 78.3522C36.5042 76.2208 37.5219 73.1678 37.0951 70.1859L35.885 61.7165C46.0935 54.6037 58.4312 50.5776 71.4955 50.5776H94.1256L94.1591 85.8965H91.7699L89.4261 88.2402C89.4261 89.5345 90.4754 90.584 91.7699 90.584H96.5052C97.7994 90.584 98.8501 89.5333 98.8489 88.2379L98.822 59.9908H100.007C111.031 59.9908 120 51.0217 120 39.9972C120 28.9727 111.031 20.0032 100.006 20.0032ZM32.4547 70.8489C32.6736 72.378 32.1517 73.9438 31.0581 75.0372C30.1534 75.9417 28.8976 76.4826 27.5666 76.4826H20.931C24.0158 72.1762 27.6111 68.3177 31.6156 64.9767L32.4547 70.8489ZM100.006 55.3028H98.8173L98.8128 50.5771H100.006C105.84 50.5771 110.587 45.8308 110.587 39.9968C110.587 34.1625 105.84 29.4161 100.006 29.4161H63.5298C62.2269 29.4161 61.1668 28.3561 61.1668 27.0534C61.1668 25.7503 62.2269 24.6904 63.5298 24.6904H100.006C108.446 24.6904 115.312 31.5569 115.312 39.9968C115.312 48.4366 108.446 55.3028 100.006 55.3028Z" fill="#0B1B34"></path><path d="M0 99.9968V97.653C0 91.1702 5.27414 85.8961 11.757 85.8961H91.7698V99.9968H0Z" fill="#F88125" fill-opacity="0.2"></path></g><defs><clipPath id="clip0_107_835"><rect width="120" height="120" fill="white"></rect></clipPath></defs></svg> 