<?xml version="1.0" encoding="UTF-8"?> <svg xmlns="http://www.w3.org/2000/svg" width="120" height="120" viewBox="0 0 120 120" fill="none"><g clip-path="url(#clip0_107_853)"><path fill-rule="evenodd" clip-rule="evenodd" d="M34.5429 17.2643C23.1474 20.3178 16.5908 35.747 18.557 54.8823C20.6038 52.6621 23.1795 51.0918 26.0255 50.3292C28.8715 49.5665 31.8874 49.6387 34.77 50.538C30.8374 31.9295 30.7444 18.2822 34.5429 17.2643Z" fill="#F88125" fill-opacity="0.2"></path><path fill-rule="evenodd" clip-rule="evenodd" d="M34.543 17.2643C38.3414 16.2465 45.0846 28.1121 50.9833 46.1939C53.03 43.9737 55.6058 42.4034 58.4518 41.6408C61.2978 40.8781 64.3137 40.9503 67.1962 41.8496C59.3312 24.2948 45.9384 14.2109 34.543 17.2643Z" fill="#F88125" fill-opacity="0.2"></path><path d="M102.433 70.7526C107.602 70.7526 111.808 66.547 111.808 61.3776C111.808 56.2082 107.602 52.0024 102.433 52.0024C97.2637 52.0024 93.0581 56.208 93.0581 61.3776C93.0581 66.5472 97.2637 70.7526 102.433 70.7526ZM102.433 56.6901C105.018 56.6901 107.121 58.7929 107.121 61.3779C107.121 63.9626 105.018 66.0654 102.433 66.0654C99.8484 66.0654 97.7456 63.9626 97.7456 61.3779C97.7456 58.7929 99.8484 56.6901 102.433 56.6901Z" fill="#0B1B34"></path><path d="M102.433 48.4871C103.727 48.4871 104.776 47.4378 104.776 46.1434V43.7996C104.776 42.5052 103.727 41.4559 102.433 41.4559C101.138 41.4559 100.089 42.5052 100.089 43.7996V46.1434C100.089 47.4376 101.138 48.4871 102.433 48.4871Z" fill="#0B1B34"></path><path d="M85.1802 51.4167C84.5329 52.5377 84.917 53.9712 86.038 54.6183L88.0677 55.7902C88.4369 56.0034 88.8397 56.1047 89.2372 56.1047C90.0472 56.1047 90.8352 55.6842 91.2693 54.9323C91.9166 53.8113 91.5325 52.3779 90.4115 51.7308L88.3818 50.5589C87.2603 49.9113 85.8271 50.2957 85.1802 51.4167Z" fill="#0B1B34"></path><path d="M88.0677 66.965L86.038 68.1369C84.917 68.784 84.5329 70.2174 85.1802 71.3384C85.6145 72.0903 86.402 72.5108 87.2122 72.5108C87.6097 72.5108 88.0129 72.4093 88.3818 72.1962L90.4115 71.0244C91.5325 70.3773 91.9166 68.9438 91.2693 67.8228C90.6219 66.7018 89.1887 66.3179 88.0677 66.965Z" fill="#0B1B34"></path><path d="M100.089 76.6118V78.9555C100.089 80.25 101.138 81.2993 102.433 81.2993C103.727 81.2993 104.776 80.25 104.776 78.9555V76.6118C104.776 75.3173 103.727 74.268 102.433 74.268C101.138 74.268 100.089 75.3173 100.089 76.6118Z" fill="#0B1B34"></path><path d="M118.828 68.1368L116.798 66.965C115.677 66.3174 114.244 66.7018 113.597 67.8228C112.949 68.9438 113.333 70.3772 114.455 71.0243L116.484 72.1962C116.853 72.4095 117.256 72.5107 117.654 72.5107C118.464 72.5107 119.252 72.0903 119.686 71.3384C120.333 70.2174 119.949 68.7839 118.828 68.1368Z" fill="#0B1B34"></path><path d="M115.629 56.1046C116.026 56.1046 116.429 56.0032 116.798 55.7901L118.828 54.6182C119.949 53.9711 120.333 52.5377 119.686 51.4167C119.039 50.2957 117.605 49.9118 116.484 50.5589L114.455 51.7307C113.333 52.3779 112.949 53.8113 113.597 54.9323C114.031 55.6842 114.818 56.1046 115.629 56.1046Z" fill="#0B1B34"></path><path d="M117.656 105.674H107.432C99.3171 97.7332 89.8845 91.5047 79.3809 87.1538C71.2186 83.773 62.7123 81.6512 53.9978 80.8157L45.1643 47.8488C46.8671 47.7117 48.6038 47.9065 50.2851 48.431C51.1502 48.701 52.0924 48.4483 52.7064 47.782C54.449 45.8918 56.6455 44.5507 59.0584 43.9043C61.4708 43.2579 64.0435 43.3207 66.4983 44.0867C67.3629 44.3567 68.3056 44.1038 68.9194 43.4377C70.6622 41.5475 72.8585 40.2064 75.2714 39.56C77.6842 38.9136 80.2567 38.9764 82.7111 39.7423C83.6328 40.0299 84.636 39.7229 85.2392 38.9691C85.8423 38.2154 85.9215 37.1689 85.4389 36.3329C75.4886 19.0983 55.5095 10.3251 36.216 14.4514L35.3917 11.3753C35.0568 10.1251 33.7719 9.38312 32.5211 9.71803C31.271 10.053 30.5289 11.3383 30.8638 12.5884L31.6881 15.6645C12.9163 21.7385 0.000488281 39.3261 0.000488281 59.2267C0.000488281 60.1921 0.592279 61.0585 1.49157 61.4096C1.76883 61.5179 2.05758 61.5704 2.34375 61.5704C2.98616 61.5704 3.61498 61.306 4.06756 60.815C5.81012 58.9248 8.00666 57.5837 10.4195 56.9373C12.8317 56.2909 15.4046 56.3537 17.8594 57.1197C18.7238 57.389 19.6665 57.1368 20.2808 56.4709C22.0233 54.5807 24.2199 53.2396 26.6327 52.5932C29.0456 51.9468 31.6181 52.0099 34.0722 52.7756C34.9365 53.0453 35.8794 52.7927 36.4937 52.1268C37.6874 50.8319 39.0941 49.7948 40.6372 49.0622L49.0559 80.4808C47.8652 80.4332 46.6713 80.4095 45.4744 80.4095C29.9425 80.4095 14.6235 84.5143 1.17282 92.2803C0.051816 92.9274 -0.332321 94.3608 0.315016 95.4818C0.962119 96.6028 2.39531 96.9869 3.51655 96.3396C16.2556 88.9845 30.7645 85.097 45.4744 85.097C47.1003 85.097 48.7193 85.1429 50.3294 85.2343L52.3982 92.9552C52.6788 94.0024 53.6257 94.6929 54.6606 94.6929C54.8613 94.6929 55.0656 94.6669 55.2688 94.6125C56.519 94.2776 57.261 92.9923 56.9261 91.7419L55.297 85.6623C72.0724 87.6057 87.7283 94.5162 100.528 105.674H2.34421C1.04977 105.674 0.000488281 106.724 0.000488281 108.018C0.000488281 109.313 1.04977 110.362 2.34421 110.362H106.459H106.469C106.469 110.362 106.475 110.362 106.479 110.362H117.656C118.95 110.362 120 109.313 120 108.018C120 106.724 118.95 105.674 117.656 105.674ZM34.0696 47.9234C31.195 47.2664 28.2321 47.3119 25.4191 48.0656C22.6067 48.8191 20.0178 50.2615 17.8566 52.2677C14.9816 51.6107 12.0186 51.6562 9.20618 52.41C7.73432 52.8044 6.32386 53.3873 5.00364 54.141C7.05065 37.7385 18.8726 23.8898 35.1498 19.5284C38.6713 18.5848 42.2316 18.1304 45.7545 18.1304C58.5137 18.1304 70.7468 24.1013 78.5629 34.4308C77.0435 34.4383 75.5299 34.6386 74.0583 35.0329C71.2455 35.7864 68.6567 37.2287 66.4955 39.2349C63.6202 38.578 60.6575 38.6234 57.8451 39.3772C55.0326 40.1307 52.4435 41.573 50.2823 43.5793C47.4087 42.9225 44.4462 42.968 41.6352 43.7206C41.634 43.7208 41.633 43.7211 41.6319 43.7215C41.6307 43.722 41.6298 43.7222 41.6286 43.7225C38.8178 44.476 36.23 45.9178 34.0696 47.9234Z" fill="#0B1B34"></path></g><defs><clipPath id="clip0_107_853"><rect width="120" height="120" fill="white"></rect></clipPath></defs></svg> 