<?xml version="1.0" encoding="UTF-8"?> <svg xmlns="http://www.w3.org/2000/svg" width="120" height="120" viewBox="0 0 120 120" fill="none"><g clip-path="url(#clip0_107_875)"><path d="M100.464 33.3225L60 17.4293L19.5361 33.3225L60 48.9185L100.464 33.3225Z" fill="#F88125" fill-opacity="0.2"></path><path d="M93.3435 83.5354L71.9102 90.7508V75.3775L93.3435 68.1622V83.5354Z" fill="#F88125" fill-opacity="0.2"></path><path d="M118.721 40.4952L105.726 33.4949L117.159 28.2717C117.893 27.9363 118.443 27.2688 118.564 26.4712C118.731 25.3811 118.128 24.3503 117.141 23.9439L79.2446 8.32451C78.6945 8.0981 78.0788 8.08896 77.5227 8.2992L59.9999 14.9236L42.4773 8.2992C41.9212 8.08873 41.3055 8.0981 40.7554 8.32451L2.85891 23.9442C1.87266 24.3506 1.26962 25.3814 1.43579 26.4714C1.55743 27.269 2.10774 27.9365 2.84157 28.2719L14.2741 33.4952L1.27852 40.4952C0.643133 40.8374 0.169227 41.4379 0.0396181 42.1478C-0.167803 43.2822 0.457977 44.3561 1.47821 44.7616L12.6075 49.1842V94.3029C12.6075 95.3086 13.249 96.2021 14.2017 96.5237C14.2017 96.5237 59.2445 111.727 59.2466 111.728L59.2895 111.742C59.7667 111.893 60.2811 111.89 60.7546 111.728C60.7571 111.727 60.7595 111.726 60.7618 111.725L106.001 96.5246C106.955 96.204 107.598 95.3096 107.598 94.3029V49.1026L118.521 44.7616C119.542 44.3561 120.167 43.2822 119.96 42.1478C119.831 41.4379 119.357 40.8377 118.721 40.4952ZM78.3144 13.0111L110.366 26.2216L100.395 30.7771L66.5174 17.471L78.3144 13.0111ZM41.6856 13.0111L53.4826 17.471L19.6052 30.7774L9.63397 26.2218L41.6856 13.0111ZM17.295 51.0472L40.7828 60.3812C41.0613 60.4921 41.3552 60.5469 41.6484 60.5469C42.0119 60.5469 42.3749 60.4623 42.7066 60.2945L57.6561 52.7308V106.244L17.295 92.6204V51.0472ZM102.91 92.6178L62.3436 106.249V52.7308L77.2932 60.2943C77.6251 60.4621 77.9877 60.5467 78.3514 60.5467C78.6446 60.5467 78.9385 60.4916 79.217 60.381L102.91 50.9654V92.6178ZM78.4672 55.6349L61.0911 46.8437C61.0895 46.8428 61.0879 46.8421 61.086 46.8412C60.4068 46.4835 59.5928 46.4833 58.9138 46.8412C58.9119 46.8421 58.9103 46.843 58.9086 46.844L41.5326 55.6351L7.88202 42.2624L20.5232 35.4527L59.9999 19.9474L99.4768 35.4529L112.118 42.2626L78.4672 55.6349Z" fill="#0B1B34"></path></g><defs><clipPath id="clip0_107_875"><rect width="120" height="120" fill="white"></rect></clipPath></defs></svg> 