<?xml version="1.0" encoding="UTF-8"?> <svg xmlns="http://www.w3.org/2000/svg" width="120" height="120" viewBox="0 0 120 120" fill="none"><path fill-rule="evenodd" clip-rule="evenodd" d="M35.8408 23.5434H59.9969L47.7396 6.18257C46.65 4.6446 45.7598 4.0282 43.8731 4.0282H35.8411V23.5434H35.8408Z" fill="#F88125" fill-opacity="0.2"></path><path d="M117.656 21.1997H61.211L49.6519 4.82789C48.3152 2.94117 46.8211 1.68445 43.8729 1.68445H23.0119C19.822 1.68445 17.2268 4.28812 17.2268 7.48851V21.1997H2.34375C1.0493 21.1997 0 22.249 0 23.5434V35.0112C0 36.3056 1.0493 37.3549 2.34375 37.3549H17.726C18.6279 39.3757 20.6571 40.7887 23.0119 40.7887H26.5411V100.437C26.5411 101.289 27.0241 102.096 27.7737 102.499C28.5511 102.917 29.523 102.859 30.2428 102.348L48.3384 89.4813V100.437C48.3384 101.732 49.3877 102.781 50.6822 102.781C51.9766 102.781 53.0259 101.732 53.0259 100.437V40.7887H56.5617C58.9137 40.7887 60.9405 39.3757 61.8415 37.3549H80.4799V40.3938C80.4799 44.6505 83.9515 48.1137 88.2183 48.1137H92.4117V55.106H91.0882C88.6713 55.106 86.7049 57.0703 86.7049 59.4848V70.7273C86.7049 73.1419 88.6713 75.1061 91.0882 75.1061H92.4117V82.9572C87.5719 84.029 83.9412 88.3481 83.9412 93.4973C83.9412 99.45 88.7925 104.293 94.7555 104.293C100.718 104.293 105.57 99.45 105.57 93.4973C105.57 92.2029 104.52 91.1536 103.226 91.1536C101.932 91.1536 100.882 92.2029 100.882 93.4973C100.882 96.8653 98.1338 99.6054 94.7555 99.6054C91.3772 99.6054 88.6287 96.8653 88.6287 93.4973C88.6287 90.1293 91.3772 87.3893 94.7555 87.3893C96.0499 87.3893 97.0992 86.34 97.0992 85.0455V75.1061H98.4227C100.84 75.1061 102.806 73.1419 102.806 70.7273V59.4848C102.806 57.0703 100.84 55.106 98.4227 55.106H97.0992V48.1137H101.293C105.556 48.1137 109.024 44.6505 109.024 40.3938V37.3549H117.656C118.951 37.3549 120 36.3056 120 35.0112V23.5434C120 22.249 118.951 21.1997 117.656 21.1997ZM98.119 70.4187H91.3929V59.7937H98.119V70.4187ZM4.6875 25.8872H17.2268V32.6674H4.6875V25.8872ZM48.3387 80.3972L32.9295 69.4411L48.3387 58.4852V80.3972ZM31.2286 73.9833L46.6378 84.9393L31.2286 95.8954V73.9833ZM31.2286 64.8991V42.9872L46.6378 53.9433L31.2286 64.8991ZM48.3387 49.4011L36.2259 40.7887H48.3387V49.4011ZM56.562 36.1012H23.0119C22.4168 36.1012 21.9143 35.602 21.9143 35.0112V7.48851C21.9143 6.88335 22.417 6.37195 23.0119 6.37195H43.8727C44.8305 6.37195 45.0621 6.4582 45.8245 7.53421L57.6527 24.2871V35.0109C57.653 35.602 57.1533 36.1012 56.562 36.1012ZM104.337 40.3938C104.337 42.0658 102.971 43.4262 101.293 43.4262H88.2185C86.5362 43.4262 85.1677 42.0658 85.1677 40.3938V37.3549H104.337V40.3938ZM115.312 32.6674H62.3405V25.8872H115.312V32.6674Z" fill="#0B1B34"></path><path fill-rule="evenodd" clip-rule="evenodd" d="M12.3555 118.315H67.2116V107.113L57.7178 100.438H50.6824H28.8848H21.8559L12.3555 107.113V118.315Z" fill="#F88125" fill-opacity="0.2"></path></svg> 