<?xml version="1.0" encoding="UTF-8"?>
<svg xmlns="http://www.w3.org/2000/svg" width="60" height="60" viewBox="0 0 60 60" fill="none">
  <g clip-path="url(#clip0_1024_1130)">
    <path d="M38.825 17.6501C35.7395 17.6501 32.7736 18.2969 30 19.5721C27.2264 18.2968 24.2605 17.6501 21.175 17.6501C9.49907 17.6501 0.00012207 27.1493 0.00012207 38.8251C0.00012207 50.501 9.49919 60 21.1751 60C24.2607 60 27.2265 59.3534 30.0001 58.078C32.7737 59.3535 35.7396 60 38.8251 60C50.5011 60 60 50.501 60 38.8251C60 27.1493 50.5009 17.6501 38.825 17.6501V17.6501ZM2.34386 38.8251C2.34386 28.4415 10.7915 19.9939 21.175 19.9939C31.6014 19.9939 40.0063 28.4483 40.0063 38.8251C40.0063 43.4435 38.3373 47.8409 35.2943 51.2847C34.0902 50.9433 32.933 50.4229 31.8739 49.7488C34.8089 46.8808 36.4666 42.978 36.4666 38.8251C36.4666 30.2439 29.4918 23.5334 21.1749 23.5334C12.743 23.5334 5.88326 30.3933 5.88326 38.8251C5.88326 48.3083 14.4904 55.5823 23.9233 53.8683C24.9707 54.9065 26.1153 55.8273 27.3465 56.622C25.3742 57.3081 23.3071 57.6563 21.1749 57.6563C10.7915 57.6563 2.34386 49.2086 2.34386 38.8251ZM37.9544 25.9071C45.4823 25.4071 51.7729 31.3965 51.7729 38.825C51.7729 46.2513 45.4845 52.2431 37.9545 51.7428C43.8151 44.1486 43.8202 33.508 37.9544 25.9071V25.9071ZM30 29.3524C35.4933 34.4623 35.5032 43.1789 30 48.2977C24.5066 43.188 24.497 34.4713 30 29.3524ZM22.0456 25.9071C16.1848 33.5016 16.1798 44.1419 22.0455 51.7429C14.5177 52.2431 8.22712 46.2535 8.22712 38.8251C8.22712 31.3988 14.5155 25.407 22.0456 25.9071ZM38.825 57.6563C28.4073 57.6563 19.9938 49.2156 19.9938 38.8251C19.9938 34.207 21.6614 29.8089 24.7042 26.365C25.9832 26.7345 27.0711 27.2337 28.1258 27.9014C25.191 30.7696 23.5333 34.6725 23.5333 38.8251C23.5333 47.2552 30.369 54.1168 38.825 54.1168C47.2569 54.1168 54.1166 47.257 54.1166 38.8251C54.1166 29.3449 45.5149 22.069 36.0777 23.7815C35.03 22.7429 33.8845 21.8217 32.6525 21.0267C34.6249 20.3405 36.6926 19.9939 38.8249 19.9939C49.2084 19.9939 57.656 28.4415 57.656 38.8251C57.6561 49.2086 49.2085 57.6563 38.825 57.6563V57.6563Z" fill="#0B1B34"></path>
    <path d="M30.4428 2.60284C31.4479 2.11862 32.5517 2.34045 33.2723 3.06256L33.557 3.34733C34.0148 3.80483 34.7565 3.80506 35.2142 3.34744L35.4993 3.06244C35.9625 2.5992 36.5785 2.34397 37.2335 2.34397C38.5881 2.34397 39.6863 3.44061 39.6863 4.79623C39.6863 5.45084 39.4312 6.06655 38.9678 6.52979C38.9067 6.59248 34.6269 11.0067 34.3888 11.2524L30.8118 7.5369C30.363 7.07061 29.6209 7.05666 29.1548 7.50537C28.6885 7.9542 28.6744 8.69612 29.1232 9.1624L33.5415 13.7517C34.0015 14.2295 34.7666 14.2296 35.2272 13.7546L40.6319 8.18026C42.5009 6.30409 42.4962 3.27619 40.6251 1.40541C38.8933 -0.326852 36.2258 -0.427282 34.386 0.935843C32.9843 -0.103376 31.0933 -0.312321 29.4252 0.491702C28.8421 0.772601 28.5974 1.47315 28.8784 2.05616C29.1594 2.63928 29.8599 2.88385 30.4428 2.60284V2.60284Z" fill="#0B1B34"></path>
    <path d="M19.3677 8.14616C18.4667 7.25049 17.9704 6.06057 17.9703 4.79448C17.9698 2.19737 20.0856 0.0482656 22.7512 0.0482656C23.7857 0.0482656 24.7704 0.372406 25.5873 0.972055C27.4409 -0.388844 30.0897 -0.257594 31.7998 1.43354C33.6706 3.28651 33.6757 6.28897 31.8071 8.14616L25.5873 14.4964L19.3677 8.14616Z" fill="#FEE6D3"></path>
  </g>
  <defs>
    <clipPath id="clip0_1024_1130">
      <rect width="60" height="60" fill="white"></rect>
    </clipPath>
  </defs>
</svg>
