<?xml version="1.0" encoding="UTF-8"?> <svg xmlns="http://www.w3.org/2000/svg" width="438" height="388" viewBox="0 0 438 388" fill="none"><path d="M322.556 382.926H59.5672C57.5003 382.926 55.9662 381.234 56.1589 379.163L89.5308 18.3341C89.7235 16.2633 91.5712 14.571 93.6343 14.571H356.623C358.69 14.571 360.224 16.2633 360.031 18.3341L326.659 379.163C326.467 381.234 324.619 382.926 322.556 382.926Z" fill="#0B1B34"></path><path d="M306.513 357.111H80.3876C78.6117 357.111 77.293 355.653 77.4554 353.874L106.149 43.6265C106.316 41.8472 107.903 40.3896 109.679 40.3896H335.804C337.58 40.3896 338.899 41.8472 338.736 43.6265L310.042 353.874C309.876 355.653 308.289 357.111 306.513 357.111Z" fill="#FAFAFB"></path><path d="M270.624 4.70898H171.283C167.416 4.70898 164.281 7.84968 164.281 11.7239V20.2797C164.281 24.1539 167.416 27.2946 171.283 27.2946H270.624C274.491 27.2946 277.625 24.1539 277.625 20.2797V11.7239C277.625 7.84968 274.491 4.70898 270.624 4.70898Z" fill="#2E4160"></path><path d="M127.671 63.0317L127.145 68.0213L126.787 71.4398V71.4474L125.181 86.6585H148.759L150.595 69.2479L150.89 66.5071L151.249 63.0355H127.671V63.0317ZM129.938 65.5682L129.356 71.0991L128.997 74.5176L127.984 84.122H146.495L147.859 71.1862L148.147 68.4453L148.453 65.5682H129.934H129.938Z" fill="#B5B5C4"></path><path d="M303.411 64.9099H157.292L157.035 67.3706H303.15L303.411 64.9099Z" fill="#B5B5C4"></path><path d="M302.492 73.613H156.377L156.116 76.0738H302.232L302.492 73.613Z" fill="#B5B5C4"></path><path d="M269.124 82.2068H155.47L155.266 84.1186H268.923L269.124 82.2068Z" fill="#B5B5C4"></path><path d="M165.65 58.5836L164.512 56.8535L134.424 78.1633L125.779 66.1058L123.954 67.4914L133.619 80.9686L133.755 81.173L165.65 58.5836Z" fill="#828295"></path><path d="M122.54 113.84L122.015 118.83L121.656 122.256L120.05 137.467H143.624L145.461 120.056L145.748 117.319V117.312L146.118 113.84H122.54V113.84ZM124.807 116.377L124.226 121.9V121.907L123.859 125.326L122.846 134.93H141.365L142.729 121.991L143.016 119.254V119.246L143.322 116.377H124.804H124.807Z" fill="#B5B5C4"></path><path d="M298.275 115.718H152.16L151.899 118.175H298.015L298.275 115.718Z" fill="#B5B5C4"></path><path d="M297.358 124.421H151.243L150.982 126.878H297.101L297.358 124.421Z" fill="#B5B5C4"></path><path d="M263.993 133.015H150.336L150.135 134.926H263.789L263.993 133.015Z" fill="#B5B5C4"></path><path d="M160.519 109.392L159.381 107.662L129.293 128.972L120.644 116.914L118.823 118.3L128.484 131.777L128.62 131.981L160.519 109.392Z" fill="#828295"></path><path d="M117.655 163.293L117.13 168.275V168.282L116.835 171.076L116.771 171.701L115.165 186.919H138.743L140.579 169.509L140.874 166.768L141.241 163.297H117.655V163.293ZM119.922 165.829L119.34 171.353V171.36L118.981 174.779L118.634 178.068L117.969 184.383H136.48L137.844 171.447L138.131 168.706L138.437 165.829H119.918H119.922Z" fill="#B5B5C4"></path><path d="M293.394 165.175H147.279L147.018 167.631H293.133L293.394 165.175Z" fill="#B5B5C4"></path><path d="M292.476 173.877H146.361L146.1 176.334H292.219L292.476 173.877Z" fill="#B5B5C4"></path><path d="M259.113 182.468H145.455L145.254 184.38H258.908L259.113 182.468Z" fill="#B5B5C4"></path><path d="M155.637 158.845L154.5 157.115L124.411 178.428L115.762 166.367L113.941 167.753L123.603 181.23L123.739 181.438L155.637 158.845Z" fill="#828295"></path><path d="M112.508 217.717L111.983 222.707L111.616 226.125V226.133L110.01 241.344H133.596L135.425 223.941V223.933L135.719 221.192L136.086 217.721H112.508V217.717ZM114.775 220.253L114.193 225.784L113.834 229.21V229.218L112.818 238.811H131.336L132.696 225.883V225.875L132.984 223.134L133.29 220.257H114.779L114.775 220.253Z" fill="#B5B5C4"></path><path d="M288.243 219.599H142.124L141.867 222.056H287.982L288.243 219.599Z" fill="#B5B5C4"></path><path d="M287.325 228.302H141.209L140.949 230.759H287.064L287.325 228.302Z" fill="#B5B5C4"></path><path d="M253.957 236.896H140.303L140.099 238.807H253.756L253.957 236.896Z" fill="#B5B5C4"></path><path d="M150.482 213.272L149.345 211.542L119.256 232.852L110.611 220.794L108.786 222.176L118.452 235.653L118.588 235.861L150.482 213.272Z" fill="#828295"></path><path d="M172.825 339.101L164.017 339.249L171.329 283.587L180.136 283.44L172.825 339.101Z" fill="#B5B5C4"></path><path d="M197.253 338.689L188.445 338.836L195.043 288.641L203.847 288.494L197.253 338.689Z" fill="#B5B5C4"></path><path d="M147.23 339.533L138.422 339.681L143.799 298.764L152.606 298.613L147.23 339.533Z" fill="#B5B5C4"></path><path d="M221.926 338.272L213.119 338.42L224.753 249.857L233.56 249.709L221.926 338.272Z" fill="#B5B5C4"></path><path d="M263.729 337.568L256.089 337.697L264.42 274.248L272.064 274.119L263.729 337.568Z" fill="#B5B5C4"></path><path d="M282.882 337.246L275.812 337.364L281.627 293.082L288.697 292.965L282.882 337.246Z" fill="#B5B5C4"></path><path d="M243.294 338.023L235.782 338.148L243.113 282.376L250.62 282.251L243.294 338.023Z" fill="#B5B5C4"></path><path d="M130.766 272.409L115.259 272.61L116.691 263.145L132.198 262.945L130.766 272.409Z" fill="#B5B5C4"></path><path d="M127.158 296.271L111.651 296.471L113.083 287.007L128.59 286.806L127.158 296.271Z" fill="#B5B5C4"></path><path d="M123.682 319.246L108.175 319.447L109.607 309.982L125.114 309.782L123.682 319.246Z" fill="#B5B5C4"></path><path d="M120.579 339.772L105.072 339.973L106.504 330.505L122.011 330.308L120.579 339.772Z" fill="#B5B5C4"></path><path d="M98.3733 377.978C98.3733 377.978 86.2706 383.793 58.9708 382.979C31.671 383.797 17.9248 377.566 17.154 377.319H17.1502C-0.242323 371.823 -0.582388 354.37 5.48591 335.109C11.1612 317.092 22.4363 297.49 30.6206 284.599C30.6206 284.599 30.6244 284.596 30.6282 284.588C35.3551 277.145 39.0429 271.94 40.0254 270.573C40.1954 270.339 40.2823 270.218 40.2823 270.218H77.667C77.667 270.218 77.7614 270.35 77.9428 270.6C78.6834 271.63 80.8371 274.67 83.773 279.11C84.2189 279.784 84.6837 280.492 85.1635 281.23C92.9813 293.239 104.982 313.276 111.473 332.103C118.819 353.397 119.125 373.148 98.3733 377.982V377.978Z" fill="#F5A136"></path><path d="M79.7274 341.376C79.7274 338.656 77.5087 336.437 74.7891 336.437C73.1429 336.437 71.9263 337.153 71.0674 338.155C68.5625 341.018 66.2722 342.521 62.6937 342.521C58.1132 342.521 54.821 340.159 53.0318 335.936H63.1231C65.1271 335.936 66.7732 334.362 66.7732 332.358C66.7732 330.354 65.1271 328.708 63.1231 328.708H51.4572C51.3856 327.992 51.3856 327.205 51.3856 326.346C51.3856 325.487 51.3856 324.628 51.4572 323.841H63.1231C65.1271 323.841 66.7732 322.266 66.7732 320.262C66.7732 318.258 65.1271 316.612 63.1231 316.612H53.1749C54.9642 312.676 58.0417 310.314 62.2643 310.314C65.7712 310.314 68.2046 311.746 70.4948 314.322C71.2106 315.109 72.4272 315.968 74.2881 315.968C77.1509 315.968 79.5842 313.678 79.5842 310.815C79.5842 309.169 78.797 307.809 78.0813 307.093C74.3596 303.157 69.9223 300.509 62.479 300.509C51.8866 300.509 44.5865 307.165 41.6521 316.612H38.1452C36.1412 316.612 34.4951 318.258 34.4951 320.262C34.4951 322.266 36.1412 323.841 38.1452 323.841H40.2923C40.2207 324.7 40.2207 325.63 40.2207 326.489C40.2207 327.276 40.2207 327.992 40.2923 328.708H38.1452C36.1412 328.708 34.4951 330.354 34.4951 332.358C34.4951 334.362 36.1412 335.936 38.1452 335.936H41.4374C44.3002 345.741 51.7435 352.326 62.6937 352.326C69.9223 352.326 74.7175 349.32 78.6538 344.525C79.1548 343.88 79.7274 342.664 79.7274 341.376Z" fill="#FFD111"></path><path d="M81.974 251.872C80.5344 256.259 77.3264 264.739 77.3264 264.739L59.3067 265.602L41.2831 264.739C41.2831 264.739 39.0878 258.928 37.516 254.438C36.5751 251.75 35.8572 249.54 35.963 249.32C36.2502 248.745 44.015 247.734 45.3073 249.32L46.5995 250.906C46.5995 250.906 50.4801 245.602 56.5219 248.472L59.3029 249.612L62.0839 248.472C68.122 245.606 72.0063 250.906 72.0063 250.906L73.2985 249.32C74.5908 247.734 82.3594 248.745 82.6466 249.32C82.7146 249.46 82.435 250.452 81.9702 251.868L81.974 251.872Z" fill="#DB9030"></path><path d="M78.1922 270.599H40.4221C38.8125 270.599 37.4976 269.282 37.4976 267.669C37.4976 266.056 38.8125 264.739 40.4221 264.739H78.1922C79.8019 264.739 81.1168 266.056 81.1168 267.669C81.1168 269.282 79.8019 270.599 78.1922 270.599Z" fill="#5E2E2A"></path><path d="M98.3733 377.977C98.3733 377.977 86.2706 383.792 58.9708 382.978C31.671 383.796 17.9248 377.565 17.154 377.319H17.1502C-0.242323 371.822 -0.582388 354.37 5.48591 335.108C6.41921 345.254 8.79967 355.452 14.3012 359.897C27.0272 370.179 68.2509 375.418 86.2215 367.147C104.192 358.875 105.806 359.496 108.821 350.069C109.898 346.696 110.891 339.965 111.477 332.11C118.823 353.404 119.129 373.154 98.377 377.989L98.3733 377.977Z" fill="#DB9030"></path><path d="M85.1638 281.226C84.3476 280.344 79.0653 274.673 77.4896 273.878C75.7779 273.014 45.4704 274.09 42.1529 274.495C38.9034 274.892 31.1612 283.864 30.6284 284.58C35.3553 277.137 39.0432 271.932 40.0256 270.565C40.1956 270.33 40.2825 270.209 40.2825 270.209H77.6672C77.6672 270.209 77.7617 270.342 77.943 270.592C78.6836 271.621 80.8374 274.661 83.7733 279.102C84.2192 279.776 84.6839 280.484 85.1638 281.222V281.226Z" fill="#DB9030"></path><path d="M81.9737 251.871C80.5341 256.258 77.3261 264.738 77.3261 264.738L59.3063 265.602L41.2828 264.738C41.2828 264.738 39.0875 258.927 37.5156 254.437C39.2689 257.053 41.6418 260.249 43.4441 261.343C46.6785 263.315 75.0741 263.595 76.2454 262.077C77.0503 261.032 80.1335 255.316 81.9737 251.867V251.871Z" fill="#DB9030"></path><path d="M98.812 372.549V381.631C98.812 383.1 115.158 384.289 135.32 384.289C155.482 384.289 171.828 383.1 171.828 381.631V372.549H98.812Z" fill="#FFD111"></path><path d="M125.235 384.183V372.545H98.8154V381.627C98.8154 382.839 109.981 383.865 125.235 384.183Z" fill="#FAB60B"></path><path d="M126.462 384.209C129.3 384.262 132.266 384.288 135.319 384.288C139.872 384.288 144.229 384.228 148.249 384.118V372.552H126.462V384.213V384.209Z" fill="#FAB60B"></path><path d="M149.712 384.073C162.718 383.668 171.828 382.725 171.828 381.631V372.549H149.712V384.073Z" fill="#FAB60B"></path><path d="M135.32 375.109C155.483 375.109 171.828 373.919 171.828 372.451C171.828 370.983 155.483 369.793 135.32 369.793C115.157 369.793 98.812 370.983 98.812 372.451C98.812 373.919 115.157 375.109 135.32 375.109Z" fill="#FFD111"></path><path d="M135.32 374.294C151.923 374.294 165.382 373.469 165.382 372.451C165.382 371.433 151.923 370.607 135.32 370.607C118.717 370.607 105.258 371.433 105.258 372.451C105.258 373.469 118.717 374.294 135.32 374.294Z" fill="#FAB60B"></path><path d="M100.848 361.624V370.706C100.848 372.175 117.194 373.363 137.356 373.363C157.518 373.363 173.864 372.175 173.864 370.706V361.624H100.848Z" fill="#FFD111"></path><path d="M127.268 373.257V361.62H100.848V370.702C100.848 371.913 112.014 372.939 127.268 373.257Z" fill="#FAB60B"></path><path d="M128.5 373.283C131.337 373.336 134.303 373.363 137.356 373.363C141.909 373.363 146.266 373.302 150.286 373.192V361.627H128.5V373.287V373.283Z" fill="#FAB60B"></path><path d="M151.744 373.147C164.75 372.742 173.86 371.8 173.86 370.705V361.624H151.744V373.147Z" fill="#FAB60B"></path><path d="M137.356 364.183C157.519 364.183 173.864 362.993 173.864 361.525C173.864 360.057 157.519 358.868 137.356 358.868C117.193 358.868 100.848 360.057 100.848 361.525C100.848 362.993 117.193 364.183 137.356 364.183Z" fill="#FFD111"></path><path d="M137.356 363.369C153.959 363.369 167.418 362.544 167.418 361.525C167.418 360.507 153.959 359.682 137.356 359.682C120.754 359.682 107.294 360.507 107.294 361.525C107.294 362.544 120.754 363.369 137.356 363.369Z" fill="#FAB60B"></path><path d="M95.6904 350.391V359.473C95.6904 360.942 112.036 362.131 132.198 362.131C152.361 362.131 168.707 360.942 168.707 359.473V350.391H95.6904Z" fill="#FFD111"></path><path d="M122.11 362.025V350.387H95.6904V359.469C95.6904 360.681 106.856 361.707 122.11 362.025Z" fill="#FAB60B"></path><path d="M123.341 362.051C126.179 362.104 129.145 362.131 132.198 362.131C136.751 362.131 141.108 362.07 145.128 361.96V350.395H123.341V362.055V362.051Z" fill="#FAB60B"></path><path d="M146.591 361.915C159.596 361.51 168.706 360.567 168.706 359.473V350.391H146.591V361.915Z" fill="#FAB60B"></path><path d="M132.198 352.951C152.361 352.951 168.707 351.761 168.707 350.293C168.707 348.825 152.361 347.635 132.198 347.635C112.036 347.635 95.6904 348.825 95.6904 350.293C95.6904 351.761 112.036 352.951 132.198 352.951Z" fill="#FFD111"></path><path d="M162.265 350.293C162.265 351.311 148.806 352.137 132.203 352.137C115.6 352.137 102.141 351.311 102.141 350.293C102.141 349.275 115.6 348.449 132.203 348.449C148.806 348.449 162.265 349.275 162.265 350.293Z" fill="#FAB60B"></path><path d="M102.881 340.121V349.203C102.881 350.672 119.227 351.861 139.389 351.861C159.551 351.861 175.897 350.672 175.897 349.203V340.121H102.881Z" fill="#FFD111"></path><path d="M129.304 351.754V340.117H102.885V349.199C102.885 350.41 114.05 351.436 129.304 351.754Z" fill="#FAB60B"></path><path d="M130.533 351.78C133.371 351.833 136.337 351.86 139.39 351.86C143.943 351.86 148.3 351.799 152.32 351.689V340.124H130.533V351.784V351.78Z" fill="#FAB60B"></path><path d="M153.781 351.644C166.786 351.239 175.896 350.297 175.896 349.203V340.121H153.781V351.644Z" fill="#FAB60B"></path><path d="M175.897 340.022C175.897 341.491 159.551 342.68 139.389 342.68C119.227 342.68 102.881 341.491 102.881 340.022C102.881 338.553 119.227 337.365 139.389 337.365C159.551 337.365 175.897 338.553 175.897 340.022Z" fill="#FFD111"></path><path d="M169.454 340.022C169.454 341.04 155.995 341.866 139.392 341.866C122.789 341.866 109.33 341.04 109.33 340.022C109.33 339.004 122.789 338.178 139.392 338.178C155.995 338.178 169.454 339.004 169.454 340.022Z" fill="#FAB60B"></path><path d="M426 378H20V383H426V378Z" fill="#164447"></path><path d="M375.04 364.871L374.084 317.021L356.397 320.294L360.037 362.599L375.04 364.871Z" fill="white"></path><path d="M375.379 357.246C375.379 357.246 363.947 363.42 359.021 354.465L326.983 373.498L380.479 373.152L375.379 357.246Z" fill="#101010"></path><path d="M380.481 373.16L380.513 378.047L327.019 378.391L326.987 373.503L380.481 373.16Z" fill="white"></path><path d="M356.094 363.774C355.946 363.714 355.807 363.61 355.703 363.481C353.523 360.64 351.325 359.232 351.307 359.215C350.873 358.939 350.76 358.386 351.047 357.98C351.334 357.566 351.924 357.471 352.35 357.73C352.454 357.79 354.834 359.31 357.232 362.427C357.536 362.825 357.441 363.386 357.024 363.671C356.746 363.861 356.389 363.887 356.094 363.766V363.774Z" fill="white"></path><path d="M351.507 366.054C351.359 365.993 351.22 365.89 351.116 365.76C348.936 362.919 346.738 361.512 346.721 361.494C346.286 361.218 346.173 360.665 346.46 360.259C346.747 359.854 347.346 359.741 347.763 360.009C347.867 360.069 350.248 361.589 352.645 364.707C352.949 365.104 352.854 365.665 352.437 365.95C352.159 366.14 351.803 366.166 351.507 366.045V366.054Z" fill="white"></path><path d="M346.912 368.342C346.764 368.282 346.625 368.178 346.521 368.049C344.341 365.208 342.143 363.8 342.125 363.791C341.691 363.515 341.578 362.962 341.865 362.557C342.151 362.151 342.742 362.038 343.168 362.306C343.272 362.367 345.652 363.886 348.05 367.004C348.354 367.401 348.258 367.962 347.841 368.247C347.563 368.437 347.207 368.463 346.912 368.342V368.342Z" fill="white"></path><path d="M420.63 363.627L413.629 316.279L396.498 321.736L405.463 363.247L420.63 363.627Z" fill="white"></path><path d="M420.048 357.245C420.048 357.245 408.616 363.42 403.69 354.465L371.652 373.497L425.147 373.152L420.048 357.245V357.245Z" fill="#101010"></path><path d="M425.151 373.159L425.183 378.046L371.689 378.39L371.657 373.502L425.151 373.159Z" fill="white"></path><path d="M400.763 363.774C400.615 363.713 400.476 363.61 400.372 363.48C398.192 360.639 395.994 359.232 395.976 359.214C395.542 358.938 395.429 358.385 395.716 357.98C396.002 357.565 396.593 357.47 397.019 357.729C397.123 357.79 399.503 359.309 401.901 362.427C402.205 362.824 402.11 363.385 401.693 363.67C401.415 363.86 401.058 363.886 400.763 363.765V363.774Z" fill="white"></path><path d="M396.176 366.053C396.028 365.993 395.889 365.889 395.785 365.76C393.604 362.919 391.406 361.511 391.389 361.494C390.955 361.217 390.842 360.665 391.128 360.259C391.415 359.853 392.014 359.741 392.431 360.009C392.536 360.069 394.916 361.589 397.314 364.706C397.618 365.103 397.522 365.665 397.105 365.95C396.827 366.14 396.471 366.166 396.176 366.045V366.053Z" fill="white"></path><path d="M391.58 368.342C391.433 368.282 391.294 368.178 391.189 368.049C389.009 365.208 386.811 363.8 386.794 363.791C386.359 363.515 386.247 362.962 386.533 362.557C386.82 362.151 387.411 362.038 387.836 362.306C387.941 362.367 390.321 363.886 392.718 367.004C393.022 367.401 392.927 367.962 392.51 368.247C392.232 368.437 391.876 368.463 391.58 368.342V368.342Z" fill="white"></path><path d="M354.451 177.55C354.451 177.55 349.048 177.421 348.205 202.239C348.031 207.343 348.136 214.432 348.457 219.527L355.346 350.994H380.417L373.954 215.175L397.67 350.994L423.766 350.432L395.958 177.55L376.681 175.115L354.451 177.55V177.55Z" fill="black"></path><path d="M373.953 215.183L363.112 212.67" stroke="#434141" stroke-width="0.67" stroke-linecap="round" stroke-linejoin="round"></path><path d="M388.931 105.721C388.931 105.721 379.497 115.254 368.586 119.373C357.675 123.492 336.644 136.73 320.677 137.939L325.984 115.789L360.629 97.0073L388.94 105.729L388.931 105.721Z" fill="#212E38"></path><path d="M298.897 82.2233L298.107 76.4116C297.951 75.2545 297.125 74.2959 295.996 73.9592L289.072 71.8953C288.065 71.5931 286.987 72.0248 286.466 72.9315C285.841 74.0196 286.24 75.4013 287.344 76.0058L290.662 77.8019C290.662 77.8019 286.058 81.4375 290.497 86.3251L298.897 82.2147V82.2233Z" fill="#EA886F"></path><path d="M296.004 73.9595L286.961 61.6885C286.353 60.8681 285.163 60.7386 284.398 61.4294C283.816 61.9562 283.651 62.8025 284.016 63.5019L289.706 74.5121L296.004 73.9595V73.9595Z" fill="#EA886F"></path><path d="M288.725 70.9715L285.25 69.7971C284.52 69.6071 283.738 69.7798 283.148 70.2462L282.349 70.8852C281.436 71.6106 281.184 72.88 281.74 73.899L286.171 81.7486L291.87 77.5777L288.725 70.9802V70.9715Z" fill="#EA886F"></path><path d="M282.392 72.103H281.098C280.481 72.103 279.882 72.3448 279.439 72.7766L278.37 73.8215C277.919 74.2619 277.658 74.8664 277.658 75.5054C277.658 76.0149 277.823 76.5071 278.136 76.913L283.817 84.4345L288.743 80.7903L282.401 72.1117L282.392 72.103Z" fill="#EA886F"></path><path d="M280.316 75.0818H279.021C278.404 75.0818 277.805 75.3236 277.362 75.7554L276.294 76.8002C275.842 77.2406 275.581 77.8451 275.581 78.4842C275.581 78.9936 275.746 79.4859 276.059 79.8917L278.048 82.5342C280.081 85.2284 283.929 85.7811 286.657 83.7691L280.316 75.0904V75.0818Z" fill="#EA886F"></path><path d="M280.794 84.0715L283.443 86.9903C285.971 89.7623 290.28 89.9782 293.077 87.4653L298.906 82.2235L294.389 76.481H288.742L283.817 79.8661L280.794 84.0629V84.0715Z" fill="#EA886F"></path><path d="M295.527 73.8817L287.995 71.3947C286.918 71.0666 285.771 71.6711 285.432 72.7419C285.18 73.5536 285.45 74.4258 286.119 74.9525L290.662 77.8195C290.662 77.8195 286.562 79.8057 289.906 84.4429" stroke="#0B1B34" stroke-width="0.57" stroke-linecap="round" stroke-linejoin="round"></path><path d="M298.897 82.2236L308.601 95.4532L297.785 103.475L287.864 87.1545L298.897 82.2236Z" fill="#EA886F"></path><path d="M330.319 119.192L305.152 86.3342L289.437 98.4325L311.181 132.698C315.594 138.285 321.988 139.65 327.061 135.591C331.613 131.955 336.104 123.613 330.319 119.192V119.192Z" fill="#212E38"></path><path d="M400.729 106.929L380.757 92.3872L370.584 92.5081C370.584 92.5081 360.447 94.1488 353.028 104.684C345.609 115.211 347.112 199.925 347.112 199.925C347.112 199.925 354.8 199.216 354.974 187.023C354.974 187.023 357.562 203.56 371.644 205.27C385.726 206.98 408.608 202.593 408.608 202.593L392.945 161.842L405.541 126.584C407.774 119.658 405.924 112.067 400.737 106.938L400.729 106.929Z" fill="#212E38"></path><path d="M360.628 97.0076L354.634 107.5L357.692 107.465L354.348 111.757C354.348 111.757 352.297 124.84 357.423 140.599L371.696 95.0387L370.593 92.5085C370.593 92.5085 366.709 93.2598 363.669 95.1337" fill="#39505E"></path><path d="M387.896 97.5857C387.896 97.5857 364.484 116.23 357.422 140.599C357.422 140.599 354.824 110.634 370.591 92.5166L380.764 92.3958L387.896 97.5943V97.5857Z" fill="white"></path><mask id="mask0_1201_1218" style="mask-type:alpha" maskUnits="userSpaceOnUse" x="357" y="92" width="31" height="49"><path d="M387.897 97.5857C387.897 97.5857 364.486 116.23 357.423 140.599C357.423 140.599 354.826 110.634 370.593 92.5166L380.765 92.3958L387.897 97.5943V97.5857Z" fill="white"></path></mask><g mask="url(#mask0_1201_1218)"><path d="M386.853 101.929C386.853 101.929 363.503 111.964 364.423 95.9103L371.573 82.2231C371.573 82.2231 387.531 87.1626 388.495 87.4131L392.7 93.0088L393.881 96.843L386.862 101.929H386.853Z" fill="#EA886F"></path></g><path d="M387.897 97.5859L392.823 101.178L386.281 112.413L379.749 112.491L384.301 116.955C384.301 116.955 367.039 130.427 357.414 140.599C357.414 140.599 363.808 115.919 387.888 97.5859H387.897Z" fill="#39505E"></path><path d="M348.571 128.786C348.571 128.786 348.909 121.083 350.586 115.064" stroke="#0B1B34" stroke-width="0.57" stroke-linecap="round" stroke-linejoin="round"></path><path d="M393.388 101.619C393.388 101.619 403.335 104.615 408.729 114.9C414.124 125.185 430.499 149.597 433.592 165.219L410.84 162.576L388.784 130.582L393.388 101.61V101.619Z" fill="#212E38"></path><path d="M398.878 145.228L388.784 130.591" stroke="#0B1B34" stroke-width="0.57" stroke-linecap="round" stroke-linejoin="round"></path><path d="M339.788 154.217L376.787 139.442L380.522 148.25L344.384 162.274L339.788 154.217Z" fill="#C27F22"></path><path d="M377.769 145.4L375.849 141.212L341.152 155.374L343.237 159.571L377.769 145.4Z" fill="white"></path><path d="M343.029 156.981L364.33 207.697L400.824 192.403L380.253 141.808L343.029 156.981Z" fill="#D59934"></path><path d="M343.029 156.98L339.788 154.217L360.881 204.804L364.33 207.696L343.029 156.98Z" fill="#C27F22"></path><path d="M379.983 161.73L356.658 171.238L354.07 165.167L377.395 155.659L379.983 161.73Z" fill="white"></path><path d="M396.941 170.875L371.157 184.735L374.033 194.683L401.119 185.4L396.941 170.875Z" fill="#EA886F"></path><path d="M371.157 184.735C371.157 184.735 352.879 181.436 353.565 187.973C354.252 194.51 357.535 209.933 374.023 194.683L371.157 184.735Z" fill="#EA886F"></path><path d="M371.757 185.478L369.281 182.844C367.856 181.324 366.006 180.262 363.964 179.804L360.186 178.949C359.282 178.742 358.353 179.182 357.936 180.011C357.484 180.918 357.779 182.006 358.631 182.568L364.069 186.134L371.748 185.486L371.757 185.478Z" fill="#EA886F"></path><path d="M415.783 155.469L374.728 177.222L382.72 196.324L425.808 178.301C432.462 175.711 435.624 170.02 433.174 164.018V164.018C430.985 158.638 421.707 151.229 415.783 155.461V155.469Z" fill="#212E38"></path><path d="M408.607 159.277L415.783 155.469" stroke="#0B1B34" stroke-width="0.57" stroke-linecap="round" stroke-linejoin="round"></path><path d="M365.979 72.1719C365.805 70.4534 365.336 68.7608 364.511 67.1892C363.382 65.0303 361.653 62.9578 359.055 64.1841C354.634 66.2652 358.995 73.424 363.529 74.0112C364.867 74.1839 366.083 73.2686 365.979 72.1805V72.1719Z" fill="#D7896D"></path><path d="M357.908 54.7889C358.803 64.1411 366.874 74.7541 377.055 74.78C387.236 74.8059 393.856 66.8785 396.279 57.794C398.998 47.5956 387.306 40.6267 377.124 40.7476C370.713 40.8254 356.935 44.6163 357.908 54.7889V54.7889Z" fill="#0B1B34"></path><path d="M382.18 71.3345L384.777 99.0629L370.357 99.0888L371.234 74.2446L382.18 71.3345Z" fill="#EA886F"></path><path d="M370.723 88.709L380.122 79.6331L371.2 75.9976L370.723 88.709Z" fill="#D7896D"></path><path d="M380.026 44.5904C376.907 43.7355 373.597 43.5369 370.427 44.1931C366.135 45.0826 360.628 47.751 359.924 55.5488C358.751 68.5365 360.315 79.02 366.769 81.9733C371.721 84.2444 375.326 83.3809 381.042 80.0821C383.171 78.8559 385.203 73.6487 385.786 71.1617L388.253 64.2188C388.253 64.2188 394.942 48.6836 380.035 44.599L380.026 44.5904Z" fill="#EA886F"></path><path d="M367.734 63.821L365.632 68.3719L367.187 69.5982" stroke="#0B1B34" stroke-width="0.44" stroke-linecap="round" stroke-linejoin="round"></path><path d="M365.536 54.2447C365.536 54.2447 366.074 56.1186 364.068 56.4813C362.539 56.7577 361.575 56.9045 360.714 57.3276C360.228 57.5694 359.663 57.3621 359.377 56.8526C359.142 56.4381 359.133 55.9027 359.368 55.4969C359.837 54.6679 360.845 53.3812 362.704 53.0099C365.084 52.5349 365.545 54.2447 365.545 54.2447H365.536Z" fill="#0B1B34"></path><path d="M371.581 54.1236C371.581 54.1236 370.921 55.9974 373.745 56.3601C375.89 56.6365 378.453 57.5259 379.669 57.9404C380.355 58.1822 381.137 57.975 381.519 57.4655C381.824 57.051 381.815 56.5156 381.467 56.1097C380.772 55.2807 378.097 53.2514 375.491 52.8887C372.146 52.4224 371.59 54.1322 371.59 54.1322L371.581 54.1236Z" fill="#0B1B34"></path><path d="M370.992 63.2086C370.992 63.2086 372.338 58.0705 379.14 61.8269C379.14 61.8269 376.386 67.1636 370.992 63.2086Z" fill="white"></path><path d="M372.33 62.4917C372.164 63.8216 373.085 65.0219 374.38 65.1773C375.674 65.3328 376.855 64.3829 377.012 63.0617C377.168 61.7404 376.256 60.5315 374.962 60.376C373.667 60.2206 372.486 61.1705 372.33 62.4917V62.4917Z" fill="black"></path><path d="M379.226 61.7056C378.584 61.222 377.845 60.8593 377.081 60.6262C376.308 60.393 375.526 60.2376 374.692 60.2462C373.884 60.2721 373.05 60.4534 372.32 60.9025C371.599 61.3602 371.034 62.051 370.835 62.9491C370.8 63.1132 370.904 63.2772 371.069 63.3204C371.234 63.355 371.399 63.2513 371.443 63.0873V63.0441C371.573 62.3964 372.025 61.7488 372.616 61.3515C373.215 60.9457 373.962 60.747 374.718 60.6952C375.456 60.6607 376.247 60.7902 376.976 60.9888C377.715 61.1961 378.419 61.5156 379.053 61.956C379.122 62.0078 379.209 61.9906 379.261 61.9215C379.313 61.8524 379.296 61.766 379.226 61.7142V61.7056Z" fill="black"></path><path d="M365.866 63.1564C365.866 63.1564 363.85 58.0528 360.106 61.5761C360.106 61.5761 361.557 66.5846 365.866 63.1564Z" fill="white"></path><path d="M364.545 62.1543C364.745 63.3719 364.12 64.4859 363.155 64.6413C362.182 64.7968 361.236 63.9418 361.036 62.7242C360.836 61.5066 361.461 60.3927 362.426 60.2372C363.39 60.0818 364.346 60.9367 364.545 62.1543Z" fill="black"></path><path d="M360.211 61.6451C360.497 61.2479 360.871 60.9111 361.314 60.7297C361.748 60.5398 362.261 60.5052 362.695 60.6088H362.721C363.355 60.7297 363.955 61.0147 364.424 61.4551C364.893 61.8869 365.275 62.4482 365.501 63.0268V63.044C365.562 63.1736 365.71 63.2426 365.849 63.1908C365.979 63.139 366.048 62.9836 365.996 62.8541C365.849 62.5 365.666 62.2064 365.458 61.9128C365.249 61.6278 365.006 61.3601 364.728 61.127C364.459 60.8938 364.146 60.6952 363.824 60.5484C363.503 60.3843 363.138 60.3152 362.791 60.2548H362.817C362.252 60.1425 361.705 60.2202 361.201 60.4534C360.706 60.6866 360.306 61.0752 360.02 61.5156C359.985 61.576 359.993 61.6537 360.054 61.6883C360.115 61.7228 360.185 61.7055 360.228 61.6537L360.211 61.6451Z" fill="black"></path><path d="M372.659 71.9041C372.659 71.9041 367.976 74.3738 364.667 71.4119" stroke="#0B1B34" stroke-width="0.44" stroke-linecap="round" stroke-linejoin="round"></path><path d="M385.638 67.9753C385.638 67.9753 379.384 48.2174 388.644 47.7166L393.717 57.561L390.998 65.7819L385.647 67.984L385.638 67.9753Z" fill="#0B1B34"></path><path d="M384.022 72.1805C384.413 70.4016 385.108 68.6917 386.151 67.146C387.593 65.0217 389.643 63.0614 392.214 64.6503C396.593 67.3446 391.172 74.3221 386.359 74.3911C384.943 74.4084 383.779 73.3117 384.022 72.1891V72.1805Z" fill="#EA886F"></path><path d="M391.016 68.1479C387.61 66.9821 385.777 70.7903 385.777 70.7903" stroke="#0B1B34" stroke-width="0.44" stroke-linecap="round" stroke-linejoin="round"></path><path d="M387.288 48.1308C387.288 48.1308 364.198 54.0634 356.24 43.1741C356.24 43.1741 370.869 35.0567 383.327 41.7492L387.288 48.1308V48.1308Z" fill="#0B1B34"></path><path d="M387.245 44.6422C387.245 44.6422 382.215 36.7667 373.024 36.6631C373.024 36.6631 375.544 42.9756 380.999 44.7027C386.463 46.4384 387.245 44.6422 387.245 44.6422Z" fill="#0B1B34"></path><path d="M390.155 47.6217C390.155 47.6217 389.895 42.4491 385.473 39.9016C385.473 39.9016 384.952 43.6321 387.115 45.9551C389.278 48.278 390.147 47.6217 390.147 47.6217H390.155Z" fill="#0B1B34"></path></svg> 