<?xml version="1.0" encoding="UTF-8"?> <svg xmlns="http://www.w3.org/2000/svg" width="125" height="21" viewBox="0 0 125 21" fill="none"><path d="M1.00021 10.7913C0.944145 8.13186 1.98058 5.56566 3.86783 3.69106C5.75509 1.81647 8.32822 0.797346 10.9872 0.871317C14.6067 0.871317 16.7516 2.0778 18.4943 3.82051L15.8132 6.90375C14.3386 5.56321 12.864 4.69186 10.9202 4.69186C7.70291 4.69186 5.42399 7.37294 5.42399 10.6573C5.42399 13.9416 7.63588 16.6897 10.9202 16.6897C13.1321 16.6897 14.4726 15.8183 15.9472 14.4108L18.6283 17.1589C16.6711 19.4329 13.7843 20.6912 10.7862 20.5773C8.17975 20.6137 5.66942 19.5944 3.82624 17.7512C1.98305 15.9081 0.96375 13.3977 1.00021 10.7913Z" fill="#00AAB8"></path><path d="M20.1699 5.63025H24.3256V8.57944C25.1969 6.56863 26.5375 5.29512 29.0175 5.36214V9.7189H28.8164C26.0683 9.7189 24.3256 11.3946 24.3256 14.88V20.3092H20.1699V5.63025Z" fill="#00AAB8"></path><path fill-rule="evenodd" clip-rule="evenodd" d="M36.3903 5.36218C32.1006 5.36218 29.1514 8.84759 29.1514 13.0703C29.1514 17.5611 32.3687 20.6443 36.7924 20.6443C39.1016 20.7135 41.3097 19.6963 42.7579 17.8962L40.4119 15.8184C39.4582 16.7435 38.188 17.2707 36.8595 17.293C35.0873 17.4188 33.5142 16.1661 33.24 14.4108H43.4281C43.4816 14.056 43.5041 13.6971 43.4952 13.3384C43.4952 9.18272 40.68 5.36218 36.3903 5.36218ZM36.3903 8.7135C38.133 8.7135 39.2054 9.98701 39.4735 11.7967H33.173C33.5081 9.91999 34.6476 8.7135 36.3903 8.7135Z" fill="#00AAB8"></path><path fill-rule="evenodd" clip-rule="evenodd" d="M51.2031 5.36211C47.7847 5.36211 44.5674 8.04319 44.5674 13.0032C44.5674 17.8962 47.7847 20.5772 51.2031 20.5772C53.0409 20.6303 54.7716 19.7141 55.7609 18.1643V20.3091H59.9166V0.335083H55.7609V7.574C54.6923 6.13871 52.9918 5.31349 51.2031 5.36211ZM52.2755 8.98157C54.2193 8.98157 55.8279 10.5902 55.8279 13.0032C55.8279 15.4162 54.2193 17.0248 52.2755 17.0248C50.3317 17.0248 48.7231 15.4162 48.7231 13.0032C48.7231 10.5232 50.3317 8.98157 52.2755 8.98157Z" fill="#00AAB8"></path><path fill-rule="evenodd" clip-rule="evenodd" d="M73.3227 20.3091V18.3654V18.2983C74.3986 19.7248 76.0942 20.5476 77.8805 20.5102C81.3659 20.5102 84.5162 17.8291 84.5162 12.9362C84.5162 8.04319 81.2989 5.36211 77.8805 5.36211C76.0457 5.32225 74.3211 6.23527 73.3227 7.77508V0.335083H69.167V20.3091H73.3227ZM76.8081 8.91455C78.7519 8.91455 80.3605 10.5232 80.3605 12.9362C80.3605 15.4162 78.7519 16.9578 76.8081 16.9578C74.8643 16.9578 73.2556 15.3491 73.2556 12.9362C73.2556 10.5232 74.8643 8.91455 76.8081 8.91455Z" fill="#00AAB8"></path><path d="M102.681 5.63024H106.836V7.70808C107.79 6.26446 109.396 5.38613 111.126 5.36213C112.85 5.26587 114.473 6.18194 115.282 7.70808C116.407 6.21651 118.172 5.34625 120.041 5.36213C123.124 5.36213 125.001 7.23889 125.001 10.7913V20.3092H120.845V12.1319C120.845 10.1881 119.974 9.11565 118.432 9.11565C116.89 9.11565 115.885 10.1881 115.885 12.1319V20.3092H111.729V12.1319C111.729 10.1881 110.858 9.11565 109.316 9.11565C107.775 9.11565 106.836 10.1881 106.836 12.1319V20.3092H102.681L102.681 5.63024Z" fill="#00AAB8"></path><path fill-rule="evenodd" clip-rule="evenodd" d="M64.5416 4.55784C65.8002 4.55784 66.8205 3.53753 66.8205 2.27892C66.8205 1.02031 65.8002 0 64.5416 0C63.283 0 62.2627 1.02031 62.2627 2.27892C62.2627 3.53753 63.283 4.55784 64.5416 4.55784ZM66.6195 5.63025H62.4638V20.3092H66.6195V5.63025Z" fill="#00AAB8"></path><rect x="86.5938" y="18.4995" width="13.5395" height="1.77622" fill="#004C44"></rect><path d="M93.162 1.7427C91.2369 1.68863 89.3709 2.41108 87.9841 3.74744C86.5974 5.0838 85.8063 6.92176 85.7891 8.84756C85.7877 10.7615 86.5658 12.5935 87.9443 13.9213C89.3227 15.2491 91.1825 15.9583 93.095 15.8854C97.3177 15.8854 100.468 12.7351 100.468 8.84756C100.46 8.14215 100.347 7.44186 100.133 6.76973L96.6474 8.64648V8.91459C96.6474 10.9254 95.3739 12.6011 93.162 12.6011C92.1962 12.6018 91.2717 12.2091 90.6015 11.5137C89.9313 10.8182 89.5732 9.87976 89.6096 8.91459C89.6096 6.90378 90.8831 5.2281 93.095 5.2281C93.5787 5.2057 94.061 5.29755 94.5026 5.49621L98.055 3.61946C96.6962 2.43664 94.9633 1.77194 93.162 1.7427Z" fill="#00AAB8"></path><path d="M91.8887 6.43454L92.626 8.17724C92.7537 8.50895 93.0213 8.76744 93.3572 8.88372C93.6931 8.99999 94.0632 8.96222 94.3687 8.78048L101.004 5.22805V1.94373L98.0552 3.48535L94.5027 5.3621L93.7654 5.76427C92.5589 6.30048 92.2238 6.50156 91.8887 6.43454Z" fill="#E42624"></path></svg> 