<?xml version="1.0" encoding="UTF-8"?>
<svg xmlns="http://www.w3.org/2000/svg" width="80" height="80" viewBox="0 0 80 80" fill="none">
  <rect width="80" height="80" rx="40" fill="#F88125"></rect>
  <path d="M54.9123 35.7691C55.6087 34.7191 56.0156 33.4611 56.0156 32.1094V28.9844C56.0156 25.3227 53.0366 22.3438 49.375 22.3438C45.7134 22.3438 42.7344 25.3227 42.7344 28.9844V32.1094C42.7344 33.4617 43.1416 34.7202 43.8386 35.7707C42.4597 36.4538 41.2658 37.4877 40.3907 38.7666C40.2616 38.7566 40.1316 38.75 40 38.75C39.8684 38.75 39.7384 38.7566 39.6092 38.7666C38.7342 37.4877 37.5403 36.4539 36.1614 35.7707C36.8584 34.7202 37.2656 33.4617 37.2656 32.1094V28.9844C37.2656 25.3227 34.2866 22.3438 30.625 22.3438C30.089 22.3438 29.5682 22.4093 29.0686 22.5298C28.3877 21.0365 26.8752 20 25.1562 20C22.787 20 20.8594 21.9276 20.8594 24.2969C20.8594 26.2688 22.195 27.9335 24.0087 28.437C23.9939 28.6177 23.9844 28.7998 23.9844 28.9844V32.1094C23.9844 33.4611 24.3913 34.7191 25.0877 35.7691C22.0686 37.2573 20.0781 40.3582 20.0781 43.8281V58.8281C20.0781 59.4753 20.6028 60 21.25 60H58.75C59.3972 60 59.9219 59.4753 59.9219 58.8281V43.8281C59.9219 40.3582 57.9314 37.2573 54.9123 35.7691ZM53.4814 27.7187C51.366 27.427 49.4294 26.4586 47.9245 24.9401C48.3779 24.777 48.8661 24.6875 49.375 24.6875C51.3039 24.6875 52.9398 25.9652 53.4814 27.7187ZM45.0781 28.9844C45.0781 27.9796 45.4257 27.055 46.0058 26.3224C46.9641 27.3439 48.0988 28.2016 49.342 28.8367C50.7069 29.534 52.159 29.9566 53.672 30.1002V32.1094C53.672 34.4787 51.7444 36.4062 49.3751 36.4062C47.0058 36.4062 45.0782 34.4787 45.0782 32.1094V28.9844H45.0781ZM45.5992 37.5677C46.6721 38.3122 47.973 38.75 49.375 38.75C50.778 38.75 52.0798 38.3115 53.1531 37.566C55.7842 38.4943 57.5781 40.9951 57.5781 43.8281C57.5781 49.2129 53.1973 53.5938 47.8125 53.5938C47.1663 53.5938 46.6406 53.068 46.6406 52.4219C46.6406 51.7757 47.1663 51.25 47.8125 51.25C51.9049 51.25 55.2344 47.9205 55.2344 43.8281C55.2344 43.1809 54.7097 42.6562 54.0625 42.6562C53.4153 42.6562 52.8906 43.1809 52.8906 43.8281C52.8906 46.6282 50.6126 48.9062 47.8125 48.9062C47.1514 48.9062 46.5325 49.0899 46.0037 49.4086C45.5452 49.0411 45.0363 48.7465 44.494 48.5327C44.8663 47.8269 45.0781 47.0238 45.0781 46.1719V43.8281C45.0781 42.0345 44.1425 40.4562 42.7345 39.5525C43.4952 38.6516 44.4867 37.9621 45.5992 37.5677ZM37.2656 46.1719V43.8281C37.2656 42.3204 38.4923 41.0938 40 41.0938C41.5077 41.0938 42.7344 42.3204 42.7344 43.8281V46.1719C42.7344 47.6796 41.5077 48.9062 40 48.9062C38.4923 48.9062 37.2656 47.6796 37.2656 46.1719ZM26.3281 30.407C27.8954 30.6433 29.4555 30.18 30.625 29.1749C31.5934 30.007 32.829 30.4681 34.1151 30.468C34.3824 30.468 34.6521 30.4478 34.9219 30.4072V32.1094C34.9219 34.4787 32.9943 36.4062 30.625 36.4062C28.2557 36.4062 26.3281 34.4787 26.3281 32.1094V30.407ZM34.8171 28.0446L34.7198 28.0641C33.5097 28.3062 32.2848 27.7989 31.6 26.7718C31.3827 26.4458 31.0168 26.25 30.625 26.25C30.2331 26.25 29.8673 26.4459 29.65 26.7719C28.9652 27.7989 27.7405 28.3062 26.5302 28.0641L26.4329 28.0446C26.8628 26.1259 28.5785 24.6875 30.625 24.6875C32.6715 24.6875 34.3872 26.1259 34.8171 28.0446ZM23.2031 24.2969C23.2031 23.2199 24.0793 22.3438 25.1562 22.3438C25.9298 22.3438 26.6112 22.8054 26.9248 23.4729C25.9293 24.1434 25.1255 25.0767 24.6112 26.172C23.7987 25.9355 23.2031 25.1847 23.2031 24.2969ZM26.8468 37.566C27.9202 38.3115 29.222 38.75 30.625 38.75C32.0269 38.75 33.3279 38.3122 34.4008 37.5677C35.5133 37.9622 36.5048 38.6516 37.2655 39.5526C35.8575 40.4562 34.9219 42.0345 34.9219 43.8281V46.1719C34.9219 47.0238 35.1337 47.8269 35.5061 48.5327C34.9637 48.7466 34.4548 49.0411 33.9964 49.4086C33.4675 49.0899 32.8486 48.9062 32.1875 48.9062C29.3874 48.9062 27.1094 46.6282 27.1094 43.8281C27.1094 43.1809 26.5847 42.6562 25.9375 42.6562C25.2903 42.6562 24.7656 43.1809 24.7656 43.8281C24.7656 47.9205 28.0951 51.25 32.1875 51.25C32.8337 51.25 33.3594 51.7757 33.3594 52.4219C33.3594 53.068 32.8337 53.5938 32.1875 53.5938C26.8027 53.5938 22.4219 49.2129 22.4219 43.8281C22.4219 40.9951 24.2157 38.4943 26.8468 37.566ZM22.4219 50.9796C24.5556 53.8855 27.9527 55.808 31.7969 55.9305V57.6562H22.4219V50.9796ZM34.1406 57.6562V55.3434C35.0821 54.712 35.7031 53.6382 35.7031 52.4219C35.7031 51.9984 35.6278 51.5922 35.49 51.2159C36.017 50.8027 36.6518 50.5487 37.3246 50.4854C38.1021 50.9694 39.0187 51.25 40 51.25C40.9813 51.25 41.8979 50.9694 42.6754 50.4854C43.3482 50.5487 43.983 50.8027 44.51 51.2159C44.3722 51.5922 44.2969 51.9984 44.2969 52.4219C44.2969 53.6382 44.9179 54.712 45.8594 55.3434V57.6562H34.1406ZM57.5781 57.6562H48.2031V55.9305C52.0473 55.808 55.4444 53.8855 57.5781 50.9796V57.6562Z" fill="#0B1B34"></path>
</svg>
