<?xml version="1.0" encoding="UTF-8"?>
<svg xmlns="http://www.w3.org/2000/svg" width="81" height="80" viewBox="0 0 81 80" fill="none">
  <rect x="0.666504" width="80" height="79.9615" rx="39.9807" fill="#F88125"></rect>
  <path d="M60.6429 47.1863C60.5356 46.3016 60.0654 45.4895 59.3528 44.9582C57.9968 43.9473 56.1112 44.1254 54.9668 45.3729L51.6873 48.9455C51.6888 48.9037 51.6905 48.862 51.6905 48.8199C51.6905 46.9558 50.1804 45.4394 48.3242 45.4394C43.2886 45.4001 43.9507 45.8022 40.9298 44.2965C38.0859 43.056 34.715 43.6031 32.3421 45.6904L31.0938 46.7887L28.5012 46.7597C28.2931 46.3163 28.0081 45.9085 27.6524 45.5558C26.8734 44.7833 25.8455 44.358 24.7581 44.358C22.502 44.3579 20.6665 46.2012 20.6665 48.4669V55.8524C20.6665 58.1181 22.502 59.9614 24.7581 59.9614C25.8463 59.9614 26.8744 59.5355 27.6531 58.762C28.0028 58.4148 28.2841 58.0142 28.4911 57.5787H50.6676C52.4421 57.5787 54.0978 56.7834 55.2114 55.3965L59.9233 49.6601C60.4879 48.9726 60.7503 48.071 60.6429 47.1863ZM24.7581 57.6176C23.7889 57.6176 23.0004 56.8257 23.0004 55.8523V48.4668C23.0004 47.4934 23.7889 46.7015 24.7581 46.7015C25.7193 46.7015 26.5272 47.4997 26.5665 48.4839V55.8282C26.5274 56.8165 25.7194 57.6176 24.7581 57.6176ZM58.1228 48.1687C58.1228 48.1687 53.4004 53.918 53.3974 53.9218C52.729 54.7563 51.734 55.235 50.6675 55.235H28.9003V49.108L31.5141 49.1372C31.7986 49.1385 32.0799 49.0371 32.296 48.8469L33.8799 47.4533C35.5772 45.9602 37.9796 45.5648 39.9993 46.4458C43.4877 48.4298 45.4075 47.644 48.3242 47.783C48.8935 47.783 49.3566 48.2481 49.3566 48.8198C49.3566 49.3915 48.8935 49.8566 48.3242 49.8566H39.5569C38.9124 49.8566 38.3899 50.3813 38.3899 51.0285C38.3899 51.6757 38.9124 52.2004 39.5569 52.2004H51.356C51.6809 52.2004 51.9911 52.0644 52.212 51.8251L53.1915 50.7636C53.7212 50.2188 56.2248 47.4133 56.8178 46.839C57.6209 46.1975 58.8179 47.25 58.1228 48.1687Z" fill="#0B1B34"></path>
  <path d="M40.6668 41.1316C46.4682 41.1316 51.1879 36.3919 51.1879 30.5659C51.1879 24.7398 46.4682 20 40.6668 20C34.8653 20 30.1455 24.7398 30.1455 30.5659C30.1455 36.3919 34.8654 41.1316 40.6668 41.1316ZM40.6668 22.3438C45.1812 22.3438 48.8541 26.0322 48.8541 30.5659C48.8541 35.0995 45.1812 38.7879 40.6668 38.7879C36.1522 38.7879 32.4793 35.0995 32.4793 30.5659C32.4794 26.0321 36.1522 22.3438 40.6668 22.3438Z" fill="#0B1B34"></path>
  <path d="M36.4477 31.7609H36.8878C37.4217 34.1566 39.5548 35.9529 42.0991 35.9529C42.7436 35.9529 43.2661 35.4282 43.2661 34.781C43.2661 34.1338 42.7437 33.6092 42.0991 33.6092C40.8544 33.6092 39.784 32.8458 39.3274 31.7609H42.0991C42.7436 31.7609 43.2661 31.2362 43.2661 30.589C43.2661 29.9418 42.7437 29.4171 42.0991 29.4171H39.3274C39.784 28.3321 40.8544 27.5688 42.0991 27.5688C42.7436 27.5688 43.2661 27.0442 43.2661 26.397C43.2661 25.7498 42.7437 25.2251 42.0991 25.2251C39.5548 25.2251 37.4217 27.0214 36.8878 29.4171H36.4477C35.8033 29.4171 35.2808 29.9418 35.2808 30.589C35.2808 31.2362 35.8033 31.7609 36.4477 31.7609Z" fill="#0B1B34"></path>
</svg>
