<?xml version="1.0" encoding="UTF-8"?>
<svg xmlns="http://www.w3.org/2000/svg" width="48" height="48" viewBox="0 0 48 48" fill="none">
  <path fill-rule="evenodd" clip-rule="evenodd" d="M24.0044 22.9838C29.9476 22.9838 34.7949 18.1365 34.7949 12.1933C34.243 -2.10039 13.7636 -2.09643 13.2139 12.1934C13.2138 18.1365 18.0611 22.9838 24.0044 22.9838Z" fill="#F88125" fill-opacity="0.2"></path>
  <path d="M45.729 15.4221C44.7467 14.8823 43.2504 14.9918 42.2863 16.5075C42.2771 16.5184 38.6701 22.4283 38.6608 22.4408C37.6967 21.8537 36.3271 22.0645 35.6181 22.9516C35.1301 23.538 32.1321 27.3061 31.6222 27.9206C29.309 30.6217 25.7315 31.7176 24.0044 35.2276C22.2776 31.7179 18.6996 30.6216 16.3866 27.9206C15.8763 27.3058 12.879 23.5384 12.3906 22.9516C11.6819 22.0646 10.3118 21.8538 9.34799 22.4408C9.33936 22.4272 5.73069 16.5199 5.72249 16.5075C3.80919 13.5069 -0.0512704 15.9116 1.27007 18.7431C2.54734 21.5893 4.68308 26.9316 6.14173 30.0909C7.50951 33.0998 8.12298 33.9453 10.5178 36.1221L13.7578 39.067V39.3674H13.2139C12.7272 39.3674 12.3326 39.7621 12.3326 40.2487V45.6441C12.3326 46.1307 12.7272 46.5254 13.2139 46.5254H34.795C35.2817 46.5254 35.6763 46.1307 35.6763 45.6441V40.2487C35.6763 39.7621 35.2817 39.3674 34.795 39.3674H34.2511V39.067L37.4911 36.1221C39.8859 33.9453 40.4994 33.0998 41.8672 30.0909C42.9181 27.7793 44.1584 24.8202 45.1549 22.4426C45.8671 20.7436 46.4821 19.2761 46.735 18.7513C47.3286 17.4977 46.8956 16.0627 45.729 15.4221ZM15.2317 38.0251L11.7033 34.8178C9.49244 32.8083 9.0116 32.1454 7.74614 29.3616C6.30027 26.2301 4.1254 20.7958 2.86408 17.9912C2.60682 17.4388 2.90902 17.0874 3.12856 16.9668C3.49676 16.7643 3.90868 16.9441 4.23133 17.4477L8.24548 24.0173C8.17075 24.4968 8.23015 25.0935 8.52239 25.832C9.3613 27.952 10.4011 30.0695 11.3753 31.6415C11.6317 32.0552 12.1749 32.1828 12.5887 31.9263C13.0024 31.67 13.13 31.1267 12.8736 30.713C11.9521 29.2259 10.9635 27.2105 10.1613 25.1833C9.81394 24.3053 10.0487 24.108 10.1371 24.0337C10.3902 23.8098 10.8205 23.8131 11.0349 24.078C11.5438 24.6912 14.5411 28.4582 15.0309 29.047C17.8499 32.4621 22.6583 33.372 23.1231 38.5331V39.3675H15.5204V38.6772C15.5203 38.4289 15.4156 38.1921 15.2317 38.0251ZM14.0951 41.1301H23.123V44.7629H14.0951V41.1301ZM33.9136 44.7629H24.8856V41.1301H33.9135L33.9136 44.7629ZM45.1445 17.9913C43.8741 20.8135 41.7153 26.2156 40.2625 29.3617C38.997 32.1455 38.5162 32.8084 36.3054 34.8179L32.777 38.0252C32.5932 38.1922 32.4884 38.429 32.4884 38.6773V39.3676H24.8857V38.5332C25.3501 33.3725 30.1591 32.4619 32.9779 29.0471C33.4674 28.4586 36.4653 24.6909 36.9738 24.0781C37.1881 23.8137 37.6181 23.8094 37.8715 24.0337C37.9599 24.108 38.1948 24.3054 37.8473 25.1834C37.0451 27.2106 36.0566 29.226 35.1351 30.713C34.8787 31.1267 35.0062 31.67 35.4199 31.9264C35.8336 32.1828 36.3769 32.0554 36.6333 31.6416C37.6075 30.0696 38.6473 27.9521 39.4862 25.832C39.7785 25.0936 39.8378 24.497 39.7631 24.0174L43.7773 17.4478C44.0999 16.9442 44.5118 16.7643 44.8801 16.9668C45.0996 17.0875 45.4018 17.4388 45.1445 17.9913Z" fill="#0B1B34"></path>
  <path d="M18.6091 15.3226H20.875V17.5885C20.875 18.0752 21.2696 18.4698 21.7563 18.4698H26.2524C26.7391 18.4698 27.1337 18.0752 27.1337 17.5885V15.3226H29.3996C29.8863 15.3226 30.2809 14.928 30.2809 14.4413V9.94534C30.2809 9.45869 29.8863 9.06404 29.3996 9.06404H27.1337V6.79804C27.1337 6.31138 26.7391 5.91673 26.2524 5.91673H21.7563C21.2696 5.91673 20.875 6.31138 20.875 6.79804V9.06404H18.6091C18.1223 9.06404 17.7278 9.45869 17.7278 9.94534V14.4414C17.7278 14.928 18.1223 15.3226 18.6091 15.3226ZM19.4904 10.8266H21.7563C22.243 10.8266 22.6376 10.432 22.6376 9.94534V7.67934H25.3711V9.94534C25.3711 10.432 25.7656 10.8266 26.2524 10.8266H28.5183V13.5601H26.2524C25.7656 13.5601 25.3711 13.9547 25.3711 14.4414V16.7073H22.6376V14.4414C22.6376 13.9547 22.243 13.5601 21.7563 13.5601H19.4904V10.8266Z" fill="#0B1B34"></path>
</svg>
