<?xml version="1.0" encoding="UTF-8"?>
<svg xmlns="http://www.w3.org/2000/svg" width="81" height="80" viewBox="0 0 81 80" fill="none">
  <rect x="0.333008" width="80" height="80" rx="40" fill="#F88125"></rect>
  <path d="M56.0361 26.25H54.8643V23.5156C54.8643 21.5771 53.2871 20 51.3486 20C49.4101 20 47.833 21.5771 47.833 23.5156V24.4754C47.833 25.6898 47.0175 26.7709 45.8498 27.1045L44.708 27.4308V27.4219C44.708 26.7747 44.1833 26.25 43.5361 26.25H38.8486C38.2014 26.25 37.6768 26.7747 37.6768 27.4219V32.6562H23.8486C21.9101 32.6562 20.333 34.2334 20.333 36.1719V58.8281C20.333 59.2603 20.5709 59.6574 20.9519 59.8613C21.1252 59.9541 21.3152 60 21.5048 60C21.7321 60 21.9589 59.9339 22.1549 59.8031L26.5472 56.875H48.8486C50.7871 56.875 52.3643 55.2979 52.3643 53.3594V41.0938H56.0361C58.4054 41.0938 60.333 39.1662 60.333 36.7969V30.5469C60.333 28.1776 58.4054 26.25 56.0361 26.25ZM40.0205 28.5938H42.3643V38.75H40.0205V28.5938ZM50.0205 53.3594C50.0205 54.0055 49.4948 54.5312 48.8486 54.5312H26.1924C25.9611 54.5312 25.7349 54.5998 25.5424 54.7281L22.6768 56.6385V36.1719C22.6768 35.5257 23.2025 35 23.8486 35H37.6768V39.9219C37.6768 40.5691 38.2014 41.0938 38.8486 41.0938H43.5361C44.1382 41.0938 44.6336 40.6395 44.6999 40.0552C45.7439 40.721 46.9714 41.0938 48.2479 41.0938H50.0205V53.3594ZM57.9893 36.7969C57.9893 37.8738 57.1131 38.75 56.0361 38.75H48.2479C46.8231 38.75 45.4924 38.0312 44.708 36.8558V29.8684L46.4936 29.3582C48.6622 28.7386 50.1768 26.7307 50.1768 24.4754V23.5156C50.1768 22.8695 50.7025 22.3438 51.3486 22.3438C51.9948 22.3438 52.5205 22.8695 52.5205 23.5156V27.4219C52.5205 28.0691 53.0452 28.5938 53.6924 28.5938H56.0361C57.1131 28.5938 57.9893 29.4699 57.9893 30.5469V36.7969Z" fill="#0B1B34"></path>
  <path d="M26.1924 42.0312H34.0049C34.6521 42.0312 35.1768 41.5066 35.1768 40.8594C35.1768 40.2122 34.6521 39.6875 34.0049 39.6875H26.1924C25.5452 39.6875 25.0205 40.2122 25.0205 40.8594C25.0205 41.5066 25.5452 42.0312 26.1924 42.0312Z" fill="#0B1B34"></path>
  <path d="M46.5049 44.375H26.1924C25.5452 44.375 25.0205 44.8997 25.0205 45.5469C25.0205 46.1941 25.5452 46.7188 26.1924 46.7188H46.5049C47.1521 46.7188 47.6768 46.1941 47.6768 45.5469C47.6768 44.8997 47.1521 44.375 46.5049 44.375Z" fill="#0B1B34"></path>
  <path d="M46.5049 49.0625H26.1924C25.5452 49.0625 25.0205 49.5872 25.0205 50.2344C25.0205 50.8816 25.5452 51.4062 26.1924 51.4062H46.5049C47.1521 51.4062 47.6768 50.8816 47.6768 50.2344C47.6768 49.5872 47.1521 49.0625 46.5049 49.0625Z" fill="#0B1B34"></path>
</svg>
