<?xml version="1.0" encoding="UTF-8"?>
<svg xmlns="http://www.w3.org/2000/svg" width="81" height="80" viewBox="0 0 81 80" fill="none">
  <rect x="0.666504" width="80" height="80.0001" rx="40" fill="#0B1B34"></rect>
  <path d="M60.3234 53.0276L53.565 46.2692L56.8796 42.9547C57.1668 42.6675 57.2848 42.2521 57.1915 41.8568C57.0981 41.4615 56.8069 41.1427 56.4216 41.0143L36.5342 34.3851C36.1132 34.2447 35.6488 34.3544 35.335 34.6683C35.0211 34.9822 34.9115 35.4464 35.0519 35.8675L41.681 55.7549C41.8095 56.1402 42.1283 56.4315 42.5235 56.5248C42.9188 56.6183 43.3342 56.5002 43.6214 56.2129L46.936 52.8984L53.6945 59.6568C53.9233 59.8856 54.2232 60.0001 54.5231 60.0001C54.8229 60.0001 55.1229 59.8857 55.3516 59.6568L60.3235 54.6849C60.7812 54.2272 60.7812 53.4853 60.3234 53.0276ZM54.523 57.1708L47.7645 50.4125C47.307 49.9548 46.5648 49.9548 46.1073 50.4125L43.3048 53.2149L38.0165 37.3498L53.8816 42.6382L51.0791 45.4406C50.6219 45.8978 50.6215 46.6403 51.0791 47.0979L57.8376 53.8563L54.523 57.1708Z" fill="white"></path>
  <path d="M35.9009 29.375C36.5481 29.375 37.0728 28.8503 37.0728 28.2031V21.1719C37.0728 20.5247 36.5481 20 35.9009 20C35.2537 20 34.729 20.5247 34.729 21.1719V28.2031C34.729 28.8503 35.2537 29.375 35.9009 29.375Z" fill="white"></path>
  <path d="M26.7857 24.462C26.3281 24.0044 25.5861 24.0044 25.1284 24.462C24.6707 24.9197 24.6707 25.6616 25.1284 26.1193L30.1003 31.0912C30.5579 31.5488 31.3 31.5488 31.7575 31.0912C32.2152 30.6335 32.2152 29.8915 31.7575 29.4339L26.7857 24.462Z" fill="white"></path>
  <path d="M30.1003 39.3775L25.1284 44.3494C24.6707 44.8071 24.6707 45.549 25.1284 46.0067C25.586 46.4643 26.3281 46.4643 26.7857 46.0067L31.7575 41.0348C32.2152 40.5772 32.2152 39.8352 31.7575 39.3775C31.2999 38.9199 30.5579 38.9199 30.1003 39.3775Z" fill="white"></path>
  <path d="M41.7012 31.0912L46.6731 26.1193C47.1307 25.6616 47.1307 24.9197 46.6731 24.462C46.2155 24.0044 45.4735 24.0044 45.0158 24.462L40.0439 29.4339C39.5863 29.8915 39.5863 30.6335 40.0439 31.0912C40.5015 31.5488 41.2436 31.5488 41.7012 31.0912Z" fill="white"></path>
  <path d="M30.0415 35.2344C30.0415 34.5872 29.5168 34.0625 28.8696 34.0625H21.8384C21.1912 34.0625 20.6665 34.5872 20.6665 35.2344C20.6665 35.8816 21.1912 36.4062 21.8384 36.4062H28.8696C29.5168 36.4062 30.0415 35.8816 30.0415 35.2344Z" fill="white"></path>
</svg>
