<?xml version="1.0" encoding="UTF-8"?>
<svg xmlns="http://www.w3.org/2000/svg" width="80" height="80" viewBox="0 0 80 80" fill="none">
  <rect width="80" height="80" rx="40" fill="#0B1B34"></rect>
  <path d="M55.7855 43.7956C55.3111 43.3213 54.7299 42.9926 54.0961 42.8314C54.3875 41.6244 54.0632 40.2976 53.1227 39.3571C52.6391 38.8735 52.0532 38.5534 51.434 38.3956C51.7092 37.2583 51.4547 35.9139 50.4594 34.9186C50.1255 34.5848 49.7426 34.3296 49.3339 34.1509L53.1233 30.3621C54.5604 28.9233 54.563 26.5942 53.1227 25.1542C51.6843 23.7157 49.355 23.7132 47.9144 25.1542L36.0941 36.9744L35.4028 33.9788C35.006 32.2579 33.7046 30.8864 32.0067 30.3995C30.3091 29.9125 28.4788 30.386 27.2301 31.6353C27.2299 31.6355 27.2298 31.6356 27.2295 31.6358C27.0097 31.8558 26.886 32.1546 26.8863 32.4657L26.901 47.0443L23.4785 50.4668C23.0208 50.9245 23.0208 51.6666 23.4785 52.1243L31.0109 59.6567C31.2306 59.8765 31.5288 60.0001 31.8396 60.0001H42.7446C44.0632 60.0001 45.3032 59.4863 46.236 58.5534L55.7854 49.004C57.2062 47.5846 57.2417 45.2498 55.7855 43.7956V43.7956ZM49.5719 41.0146C50.0954 40.4911 50.9424 40.4918 51.4652 41.0146C51.9872 41.5366 51.9872 42.386 51.4652 42.908L48.8018 45.5713C48.2775 46.0957 47.4303 46.0932 46.9087 45.5715C46.3867 45.0492 46.3866 44.1997 46.9084 43.6779L49.5719 41.0146ZM45.251 42.0204C44.729 42.5424 43.8797 42.5421 43.3576 42.0204C42.8356 41.4984 42.8356 40.649 43.3576 40.1271L46.9085 36.5762C47.4309 36.0538 48.2803 36.0545 48.8018 36.5762C49.3254 37.0997 49.3246 37.9468 48.8018 38.4695C48.8018 38.4696 48.8015 38.4698 48.8016 38.4697C48.8018 38.4695 45.251 42.0204 45.251 42.0204V42.0204ZM44.5787 56.8957C44.0956 57.3788 43.4272 57.6559 42.7447 57.6559H32.3252L25.9649 51.2955L28.9023 48.3581C29.1224 48.1379 29.2458 47.8394 29.2456 47.5281L29.2311 33.0054C29.8452 32.5783 30.6268 32.4422 31.3604 32.6527C32.2395 32.9048 32.9133 33.6148 33.1187 34.5056L34.2858 39.562C34.3359 39.7795 34.4463 39.9732 34.5985 40.1257C34.5986 40.1261 35.4866 41.0146 35.4866 41.0146C37.477 43.005 37.477 46.2436 35.4866 48.234C35.0288 48.6918 35.0288 49.4338 35.4866 49.8916C35.9443 50.3494 36.6865 50.3492 37.1441 49.8916C40.0485 46.9872 40.0485 42.2615 37.1441 39.3571L37.0853 39.2983L49.572 26.8116C50.1076 26.2758 50.9555 26.3019 51.4652 26.8117C51.9878 27.3342 51.9881 28.1814 51.4652 28.705L41.7001 38.4695C40.2641 39.9054 40.2641 42.242 41.7003 43.6782C42.3862 44.3636 43.2772 44.7208 44.1774 44.7516C44.2082 45.6519 44.5656 46.5429 45.251 47.2288C45.9363 47.9142 46.8268 48.2716 47.7267 48.3027C47.7583 49.2387 48.1367 50.1139 48.8013 50.7787C49.1306 51.1083 49.5117 51.3668 49.926 51.5486L44.5787 56.8957ZM54.1284 47.3459C54.1282 47.3461 54.128 47.3463 54.1278 47.3465L52.3522 49.1222C51.8362 49.6388 50.9876 49.6505 50.4594 49.1217C49.9326 48.595 49.9407 47.7475 50.4597 47.2285L52.2351 45.4531C52.762 44.9263 53.6092 44.9346 54.1284 45.4537C54.6583 45.9828 54.6433 46.8317 54.1284 47.3459V47.3459Z" fill="white"></path>
  <path d="M35.6056 27.3595C36.2529 27.3595 36.7777 26.8347 36.7777 26.1874V21.1659C36.7157 19.6108 34.4949 19.612 34.4336 21.1659V26.1875C34.4336 26.8348 34.9584 27.3595 35.6056 27.3595V27.3595Z" fill="white"></path>
  <path d="M29.7554 27.0162C30.2131 27.474 30.9553 27.4738 31.4129 27.0162C31.8706 26.5584 31.8706 25.8164 31.4129 25.3587L30.1576 24.1033C29.6999 23.6456 28.9578 23.6456 28.5 24.1033C28.0423 24.561 28.0423 25.3031 28.5 25.7608L29.7554 27.0162Z" fill="white"></path>
  <path d="M41.4564 27.0162L42.7117 25.7608C43.1695 25.3031 43.1695 24.561 42.7117 24.1033C42.2541 23.6456 41.5119 23.6456 41.0542 24.1033L39.7989 25.3587C39.3411 25.8164 39.3411 26.5584 39.7989 27.0162C40.2566 27.474 40.9987 27.4738 41.4564 27.0162V27.0162Z" fill="white"></path>
</svg>
