<?xml version="1.0" encoding="UTF-8"?>
<svg xmlns="http://www.w3.org/2000/svg" width="81" height="80" viewBox="0 0 81 80" fill="none">
  <rect x="0.333008" width="80" height="79.9996" rx="39.9998" fill="#0B1B34"></rect>
  <path d="M59.6458 47.9305L55.1538 43.4384C60.3062 32.6266 52.3868 20 40.3331 20C28.3004 20 20.3497 32.6049 25.5124 43.4384L21.0204 47.9305C19.7702 49.1806 20.3018 51.3141 21.9969 51.8304L26.9866 53.3459L28.5022 58.3356C29.0163 60.0241 31.1454 60.5666 32.4021 59.3122L38.9597 52.7545C39.8612 52.8293 40.7742 52.8318 41.7065 52.7545L48.2642 59.3122C49.5163 60.5643 51.6489 60.0275 52.1641 58.3356L53.6797 53.3459L58.6694 51.8304C60.3672 51.3134 60.8939 49.1785 59.6458 47.9305V47.9305ZM30.7451 57.6545L29.2288 52.6648C29.0015 51.9148 28.4179 51.3312 27.6679 51.1031L22.6783 49.5876L26.7172 45.5486C28.9109 48.8048 32.2405 51.2352 36.1334 52.2664L30.7451 57.6545ZM28.4108 43.8548C22.5228 34.4784 29.3731 22.3437 40.3331 22.3437C51.3816 22.3437 58.0905 34.5626 52.2554 43.8548C46.7307 52.6658 33.9347 52.6646 28.4108 43.8548V43.8548ZM52.9984 51.103C52.2484 51.3312 51.6648 51.9148 51.4368 52.6647L49.9212 57.6544L44.5331 52.2662C48.426 51.235 51.7555 48.8046 53.9493 45.5484L57.9883 49.5874L52.9984 51.103Z" fill="white"></path>
  <path d="M40.3333 24.6874C32.4911 24.6874 26.8216 32.2996 29.1243 39.8268C31.0861 46.2554 38.0454 49.6711 44.2708 47.4438C48.8049 45.821 52.0518 41.4832 52.0518 36.4058C52.0518 29.9443 46.7949 24.6874 40.3333 24.6874V24.6874ZM34.0133 43.3228C27.6853 37.547 31.8482 27.031 40.3333 27.031C46.1081 27.031 50.504 32.2272 49.5917 37.876C48.444 45.1981 39.5318 48.3727 34.0133 43.3228Z" fill="white"></path>
  <path d="M43.8887 33.2367L38.7234 37.0707L36.934 35.1642C36.4911 34.6921 35.7496 34.6686 35.2776 35.1116C34.8057 35.5545 34.7822 36.2961 35.2251 36.768L37.729 39.4359C38.1365 39.8702 38.8044 39.9293 39.2818 39.575L45.2856 35.1186C45.8053 34.7329 45.9138 33.9989 45.5281 33.4792C45.1424 32.9596 44.4084 32.851 43.8887 33.2367V33.2367Z" fill="white"></path>
</svg>
