<?xml version="1.0" encoding="UTF-8"?> <svg xmlns="http://www.w3.org/2000/svg" width="48" height="48" viewBox="0 0 48 48" fill="none"><path d="M34 8H31.64C31.2274 6.8329 30.4639 5.822 29.4541 5.10588C28.4444 4.38976 27.2379 4.00348 26 4H22C20.7621 4.00348 19.5556 4.38976 18.5459 5.10588C17.5361 5.822 16.7726 6.8329 16.36 8H14C12.4087 8 10.8826 8.63214 9.75736 9.75736C8.63214 10.8826 8 12.4087 8 14V38C8 39.5913 8.63214 41.1174 9.75736 42.2426C10.8826 43.3679 12.4087 44 14 44H34C35.5913 44 37.1174 43.3679 38.2426 42.2426C39.3679 41.1174 40 39.5913 40 38V14C40 12.4087 39.3679 10.8826 38.2426 9.75736C37.1174 8.63214 35.5913 8 34 8ZM20 10C20 9.46957 20.2107 8.96086 20.5858 8.58579C20.9609 8.21071 21.4696 8 22 8H26C26.5304 8 27.0391 8.21071 27.4142 8.58579C27.7893 8.96086 28 9.46957 28 10V12H20V10ZM36 38C36 38.5304 35.7893 39.0391 35.4142 39.4142C35.0391 39.7893 34.5304 40 34 40H14C13.4696 40 12.9609 39.7893 12.5858 39.4142C12.2107 39.0391 12 38.5304 12 38V14C12 13.4696 12.2107 12.9609 12.5858 12.5858C12.9609 12.2107 13.4696 12 14 12H16V14C16 14.5304 16.2107 15.0391 16.5858 15.4142C16.9609 15.7893 17.4696 16 18 16H30C30.5304 16 31.0391 15.7893 31.4142 15.4142C31.7893 15.0391 32 14.5304 32 14V12H34C34.5304 12 35.0391 12.2107 35.4142 12.5858C35.7893 12.9609 36 13.4696 36 14V38Z" fill="#0B1B34"></path><path d="M18 28H26C26.5304 28 27.0391 28.2107 27.4142 28.5858C27.7893 28.9609 28 29.4696 28 30C28 30.5304 27.7893 31.0391 27.4142 31.4142C27.0391 31.7893 26.5304 32 26 32H18C17.4696 32 16.9609 31.7893 16.5858 31.4142C16.2107 31.0391 16 30.5304 16 30C16 29.4696 16.2107 28.9609 16.5858 28.5858C16.9609 28.2107 17.4696 28 18 28Z" fill="#F88125"></path><path d="M18 20H30C30.5304 20 31.0391 20.2107 31.4142 20.5858C31.7893 20.9609 32 21.4696 32 22C32 22.5304 31.7893 23.0391 31.4142 23.4142C31.0391 23.7893 30.5304 24 30 24H18C17.4696 24 16.9609 23.7893 16.5858 23.4142C16.2107 23.0391 16 22.5304 16 22C16 21.4696 16.2107 20.9609 16.5858 20.5858C16.9609 20.2107 17.4696 20 18 20Z" fill="#F88125"></path></svg> 