<?xml version="1.0" encoding="UTF-8"?> <svg xmlns="http://www.w3.org/2000/svg" width="48" height="48" viewBox="0 0 48 48" fill="none"><path d="M23 40H11C10.4696 40 9.96086 39.7893 9.58579 39.4142C9.21071 39.0391 9 38.5304 9 38V10C9 9.46957 9.21071 8.96086 9.58579 8.58579C9.96086 8.21071 10.4696 8 11 8H21V14C21 15.5913 21.6321 17.1174 22.7574 18.2426C23.8826 19.3679 25.4087 20 27 20H33V30C33 30.5304 33.2107 31.0391 33.5858 31.4142C33.9609 31.7893 34.4696 32 35 32C35.5304 32 36.0391 31.7893 36.4142 31.4142C36.7893 31.0391 37 30.5304 37 30V18C37 18 37 18 37 17.88C36.9792 17.6963 36.9389 17.5153 36.88 17.34V17.16C36.7838 16.9544 36.6556 16.7653 36.5 16.6L24.5 4.6C24.3347 4.44443 24.1456 4.31616 23.94 4.22C23.8738 4.20842 23.8062 4.20842 23.74 4.22C23.5455 4.11601 23.3365 4.04184 23.12 4H11C9.4087 4 7.88258 4.63214 6.75736 5.75736C5.63214 6.88258 5 8.4087 5 10V38C5 39.5913 5.63214 41.1174 6.75736 42.2426C7.88258 43.3679 9.4087 44 11 44H23C23.5304 44 24.0391 43.7893 24.4142 43.4142C24.7893 43.0391 25 42.5304 25 42C25 41.4696 24.7893 40.9609 24.4142 40.5858C24.0391 40.2107 23.5304 40 23 40ZM25 10.82L30.18 16H27C26.4696 16 25.9609 15.7893 25.5858 15.4142C25.2107 15.0391 25 14.5304 25 14V10.82ZM15 28H27C27.5304 28 28.0391 27.7893 28.4142 27.4142C28.7893 27.0391 29 26.5304 29 26C29 25.4696 28.7893 24.9609 28.4142 24.5858C28.0391 24.2107 27.5304 24 27 24H15C14.4696 24 13.9609 24.2107 13.5858 24.5858C13.2107 24.9609 13 25.4696 13 26C13 26.5304 13.2107 27.0391 13.5858 27.4142C13.9609 27.7893 14.4696 28 15 28ZM23 32H15C14.4696 32 13.9609 32.2107 13.5858 32.5858C13.2107 32.9609 13 33.4696 13 34C13 34.5304 13.2107 35.0391 13.5858 35.4142C13.9609 35.7893 14.4696 36 15 36H23C23.5304 36 24.0391 35.7893 24.4142 35.4142C24.7893 35.0391 25 34.5304 25 34C25 33.4696 24.7893 32.9609 24.4142 32.5858C24.0391 32.2107 23.5304 32 23 32ZM15 20H17C17.5304 20 18.0391 19.7893 18.4142 19.4142C18.7893 19.0391 19 18.5304 19 18C19 17.4696 18.7893 16.9609 18.4142 16.5858C18.0391 16.2107 17.5304 16 17 16H15C14.4696 16 13.9609 16.2107 13.5858 16.5858C13.2107 16.9609 13 17.4696 13 18C13 18.5304 13.2107 19.0391 13.5858 19.4142C13.9609 19.7893 14.4696 20 15 20Z" fill="#0B1B34"></path><path d="M41.769 32.1421C42.0128 32.2436 42.234 32.3924 42.4199 32.5799C42.6073 32.7658 42.7561 32.987 42.8577 33.2307C42.9592 33.4744 43.0115 33.7359 43.0115 33.9999C43.0115 34.2639 42.9592 34.5253 42.8577 34.769C42.7561 35.0128 42.6073 35.234 42.4199 35.4199L34.4199 43.4199C34.234 43.6073 34.0128 43.7561 33.769 43.8577C33.5253 43.9592 33.2639 44.0115 32.9999 44.0115C32.7359 44.0115 32.4744 43.9592 32.2307 43.8577C31.987 43.7561 31.7658 43.6073 31.5799 43.4199L27.5799 39.4199C27.3934 39.2334 27.2455 39.012 27.1446 38.7684C27.0436 38.5247 26.9917 38.2636 26.9917 37.9999C26.9917 37.7362 27.0436 37.475 27.1446 37.2314C27.2455 36.9877 27.3934 36.7664 27.5799 36.5799C27.7664 36.3934 27.9877 36.2455 28.2314 36.1446C28.475 36.0436 28.7362 35.9917 28.9999 35.9917C29.2636 35.9917 29.5247 36.0436 29.7684 36.1446C30.012 36.2455 30.2334 36.3934 30.4199 36.5799L32.9999 39.1799L39.5799 32.5799C39.7658 32.3924 39.987 32.2436 40.2307 32.1421C40.4744 32.0406 40.7359 31.9883 40.9999 31.9883C41.2639 31.9883 41.5253 32.0406 41.769 32.1421Z" fill="#F88125"></path></svg> 