<?xml version="1.0" encoding="UTF-8"?> <svg xmlns="http://www.w3.org/2000/svg" width="48" height="48" viewBox="0 0 48 48" fill="none"><path d="M38 11H25.44L24.8 9.00004C24.3851 7.82651 23.6155 6.81105 22.5978 6.09437C21.5801 5.37768 20.3647 4.99525 19.12 5.00004H10C8.4087 5.00004 6.88258 5.63219 5.75736 6.7574C4.63214 7.88262 4 9.40875 4 11V37C4 38.5913 4.63214 40.1175 5.75736 41.2427C6.88258 42.3679 8.4087 43 10 43H38C39.5913 43 41.1174 42.3679 42.2426 41.2427C43.3679 40.1175 44 38.5913 44 37V17C44 15.4087 43.3679 13.8826 42.2426 12.7574C41.1174 11.6322 39.5913 11 38 11ZM40 37C40 37.5305 39.7893 38.0392 39.4142 38.4143C39.0391 38.7893 38.5304 39 38 39H10C9.46957 39 8.96086 38.7893 8.58579 38.4143C8.21071 38.0392 8 37.5305 8 37V11C8 10.4696 8.21071 9.9609 8.58579 9.58583C8.96086 9.21076 9.46957 9.00004 10 9.00004H19.12C19.5393 8.99896 19.9483 9.12968 20.2893 9.37373C20.6302 9.61777 20.8858 9.9628 21.02 10.36L22.1 13.64C22.2342 14.0373 22.4898 14.3823 22.8307 14.6264C23.1717 14.8704 23.5807 15.0011 24 15H38C38.5304 15 39.0391 15.2108 39.4142 15.5858C39.7893 15.9609 40 16.4696 40 17V37Z" fill="#0B1B34"></path><path fill-rule="evenodd" clip-rule="evenodd" d="M24.0001 19.6801C22.763 19.0204 21.3298 18.8277 19.9624 19.1374C18.595 19.447 17.3846 20.2382 16.5524 21.3665C15.7201 22.4948 15.3215 23.8848 15.4294 25.2827C15.5374 26.6805 16.1446 27.9929 17.1401 28.9801L22.5801 34.4201C22.766 34.6076 22.9872 34.7564 23.231 34.8579C23.4747 34.9594 23.7361 35.0117 24.0001 35.0117C24.2641 35.0117 24.5256 34.9594 24.7693 34.8579C25.013 34.7564 25.2342 34.6076 25.4201 34.4201L30.8601 28.9801C31.8557 27.9929 32.4629 26.6805 32.5708 25.2827C32.6787 23.8848 32.2801 22.4948 31.4479 21.3665C30.6156 20.2382 29.4052 19.447 28.0378 19.1374C26.6704 18.8277 25.2372 19.0204 24.0001 19.6801ZM28 26.1403L24 30.1403L20 26.1403C19.6556 25.7953 19.4622 25.3278 19.4622 24.8403C19.4622 24.3528 19.6556 23.8853 20 23.5403C20.345 23.1959 20.8125 23.0024 21.3 23.0024C21.7875 23.0024 22.255 23.1959 22.6 23.5403C22.7859 23.7277 23.0071 23.8765 23.2509 23.9781C23.4946 24.0796 23.756 24.1319 24.02 24.1319C24.284 24.1319 24.5454 24.0796 24.7892 23.9781C25.0329 23.8765 25.2541 23.7277 25.44 23.5403C25.7893 23.2183 26.2496 23.0439 26.7245 23.0536C27.1995 23.0632 27.6523 23.2562 27.9882 23.5921C28.3241 23.928 28.517 24.3808 28.5267 24.8558C28.5364 25.3307 28.362 25.791 28.04 26.1403H28Z" fill="#F88125"></path></svg> 