<?xml version="1.0" encoding="UTF-8"?> <svg xmlns="http://www.w3.org/2000/svg" width="476.50163" height="62"><defs><style>.cls-1{fill:#26b7cd;}.cls-2{fill:#001e5a;}</style></defs><g><title>background</title><rect fill="none" id="canvas_background" height="64" width="478.50163" y="-1" x="-1"></rect></g><g><title>Layer 1</title><path class="cls-2" d="m443.49,0.00351c-17.36,-0.25 -30.67,12.89 -30.41,30.16c-0.26,17.27 13,30.41 30.41,30.17c17.35,0.24 30.65,-12.9 30.41,-30.17c0.24,-17.27 -13.06,-30.41 -30.41,-30.16zm0,49.25c-10.5,0 -17.77,-7.77 -17.77,-19.09c0,-11.32 7.27,-19.09 17.77,-19.09c10.5,0 17.76,7.77 17.76,19.09c0,11.32 -7.27,19.09 -17.76,19.09z" id="path216"></path><path class="cls-2" d="m212.11,41.98351c0,-5.48 -2.93,-10.22 -6.54,-13.4c2,-2.79 3.88,-6.27 3.88,-10.23c0,-10 -7.36,-17.11 -17.27,-17.11l-30.37,0l0,11.07l28.3,0c4.38,0 6.69,2.15 6.69,6c0,3.85 -2.31,6.28 -6.69,6.28l-28.3,0l0,11.11l31,0c4.38,0 6.69,2.4 6.69,6.28c0,3.88 -2.31,6 -6.69,6l-31,0l0,11.08l33,0c9.95,0.03 17.3,-7.05 17.3,-17.08z" id="path218"></path><polygon class="cls-2" points="231.0900115966797,59.093505859375 249.34999084472656,16.03350830078125 249.52000427246094,16.03350830078125 258.36000061035156,36.9735107421875 249.11000061035156,36.9735107421875 244.4199981689453,48.02350616455078 263.02000427246094,48.02350616455078 267.6999969482422,59.093505859375 281.4199981689453,59.093505859375 255.3000030517578,1.2435073852539062 243.49000549316406,1.2435073852539062 217.4499969482422,59.093505859375 " id="polygon220"></polygon><path class="cls-2" d="m354.9,24.71351l0,10.91c0,15.45 9.42,23.47 26.19,23.47l22.52,0l0,-11.08l-22.5,0c-9,0 -13.55,-4 -13.55,-12.89l0,-9.91c0,-8.84 4.55,-12.89 13.55,-12.89l22.5,0l0,-11.08l-22.5,0c-16.79,0 -26.21,8.02 -26.21,23.47z" id="path226"></path><rect class="cls-2" x="134.85001" y="1.24351" width="12.64" height="57.85" id="rect228"></rect><path class="cls-2" d="m26.23,60.33351c16.78,0 26.2,-8 26.2,-23.47l0,-35.62l-12.64,0l0,35.12c0,8.84 -4.55,12.89 -13.56,12.89c-9.01,0 -13.55,-4.05 -13.55,-13l0,-35l-12.64,0l0,35.61c0,15.45 9.42,23.47 26.19,23.47z" id="path230"></path><path class="cls-2" d="m92.85,0.00351c-16.78,0 -26.2,8 -26.2,23.47l0,35.62l12.65,0l0,-35.12c0,-8.85 4.54,-12.89 13.55,-12.89c9.01,0 13.55,4 13.55,13l0,35l12.65,0l0,-35.62c0,-15.44 -9.44,-23.46 -26.2,-23.46z" id="path232"></path><path class="cls-2" d="m316.06,0.00351c-16.78,0 -26.2,8 -26.2,23.47l0,35.62l12.65,0l0,-35.12c0,-8.85 4.54,-12.89 13.55,-12.89c9.01,0 13.55,4 13.55,13l0,35l12.64,0l0,-35.62c0,-15.44 -9.42,-23.46 -26.19,-23.46z" id="path234"></path></g></svg> 